<svg xmlns="http://www.w3.org/2000/svg" viewBox="0 0 202 202"><defs><style>.cls-1{fill:none;stroke:#fff;stroke-miterlimit:10;stroke-width:5px;}.cls-2{fill:#121212;}.cls-3{fill:#fff;}</style></defs><title>Asset 12</title><g id="Layer_2" data-name="Layer 2"><g id="Layer_1-2" data-name="Layer 1"><polygon class="cls-1" points="2.5 2.5 2.5 199.5 4.886 199.5 118.624 2.5 2.5 2.5"/><polygon class="cls-1" points="82.828 199.5 199.5 199.5 199.5 2.5 196.566 2.5 82.828 199.5"/><polygon class="cls-1" points="118.624 2.5 4.886 199.5 82.828 199.5 196.566 2.5 118.624 2.5"/><path class="cls-2" d="M81.05371,184.667a17.8955,17.8955,0,0,1-8.93555-2.40234L44.65234,166.40723a17.91046,17.91046,0,0,1-6.55566-24.46582l67.707-117.27149a17.89976,17.89976,0,0,1,24.46582-6.55566l27.46582,15.85742A17.90962,17.90962,0,0,1,164.291,58.43652L96.584,175.709A17.97976,17.97976,0,0,1,81.05371,184.667Z"/><path class="cls-3" d="M121.33447,13.21118v5a15.3956,15.3956,0,0,1,7.68506,2.06787l27.46582,15.85742A15.41023,15.41023,0,0,1,162.12549,57.187l-67.707,117.272a15.40075,15.40075,0,0,1-21.0503,5.64039L45.90234,164.24194a15.40986,15.40986,0,0,1-5.64013-21.05029l67.707-117.272a15.47148,15.47148,0,0,1,13.36474-7.7085l.00049-5m-.001,0a20.40243,20.40243,0,0,0-17.69434,10.2085l-67.707,117.272A20.40969,20.40969,0,0,0,43.40234,168.572l27.46582,15.85742A20.40059,20.40059,0,0,0,98.74854,176.959l67.707-117.272a20.41,20.41,0,0,0-7.47022-27.88061L131.51953,15.949a20.31123,20.31123,0,0,0-10.186-2.73779Z"/><circle class="cls-3" cx="73" cy="147" r="15"/></g></g></svg>