<svg xmlns="http://www.w3.org/2000/svg" viewBox="0 0 28.8 81.07"><defs><style>.cls-1{fill:#fff;}.cls-2{fill:#20a101;}.cls-3{fill:#dad0d1;}</style></defs><title>Asset 4</title><g id="Layer_2" data-name="Layer 2"><g id="Layer_1-2" data-name="Layer 1"><path class="cls-1" d="M27.38,1.51a5.39,5.39,0,0,1,1.42,4c0,6,0,12,0,18.05V62.13a5,5,0,0,1-3.54,5,5.54,5.54,0,0,1-1.72.23l-4.83,0-1.19,0c-2.41,0-4.81,0-7.22,0l-5,0A5,5,0,0,1,3,66.89a5.1,5.1,0,0,1-2.88-4V8.31c0-.23,0-.46,0-.7V7.19L.15,5A5,5,0,0,1,5.2,0H23.73a5.36,5.36,0,0,1,3.46,1.31c.06.08.09.18.22.15h0ZM14.78,32.68A1,1,0,0,1,15,32.1c.81-1.48,1.64-3,2.46-4.45.35-.64.06-1.15-.67-1.17-.89,0-1.78,0-2.67,0a.82.82,0,0,0-.8.53c-1.07,2.37-2.15,4.74-3.21,7.11-.29.65,0,1.09.74,1.1h2c0,.2-.09.32-.16.46l-1.92,3.94c-.21.41-.34.82.11,1.15s.8.07,1.14-.26c2.16-2.13,4.34-4.24,6.52-6.36.29-.28.57-.57.38-1s-.61-.44-1-.44Zm-.28,32.2a1.29,1.29,0,0,0,1.27-1.27,1.3,1.3,0,0,0-2.59,0A1.28,1.28,0,0,0,14.5,64.88Z"/><path class="cls-1" d="M13.52,72a6.65,6.65,0,0,1-4.33,5.78,22.94,22.94,0,0,1-6.77,1.67l-.75.07c.37.49.72,1,1.06,1.52A25.11,25.11,0,0,0,9.9,79.26,8.27,8.27,0,0,0,15.18,72,8.37,8.37,0,0,0,13.52,72Z"/><path class="cls-2" d="M27.41,1.46c-.13,0-.16-.07-.22-.15C27.29,1.33,27.38,1.35,27.41,1.46Z"/><path class="cls-3" d="M15.18,72a8.37,8.37,0,0,0-1.66,0A13.26,13.26,0,0,1,11.74,72a1.78,1.78,0,0,1-1.49-1.78c0-.91-.05-1.84,0-2.75,2.41,0,4.81,0,7.22,0l1.19,0c0,.87,0,1.74,0,2.61a1.88,1.88,0,0,1-2,2C16.23,72,15.7,72,15.18,72Z"/><path class="cls-1" d="M.15,62.94c-.22-.18-.13-.43-.13-.65q0-27,0-54.06C0,8,0,7.8.12,7.61c0,.24,0,.47,0,.7V62.94Z"/><path class="cls-1" d="M.12,7.4l0-.07,0,0Z"/></g></g></svg>