<svg xmlns="http://www.w3.org/2000/svg" viewBox="0 0 44.04 79.18"><defs><style>.cls-1{fill:#fff;}.cls-2{fill:#dad0d1;}</style></defs><title>Asset 6</title><g id="Layer_2" data-name="Layer 2"><g id="Layer_1-2" data-name="Layer 1"><path class="cls-1" d="M44,12.37A11,11,0,0,0,34.46.09"/><path class="cls-1" d="M11.51,16.09a6.85,6.85,0,0,0-5.87-1.7c-4.19.93-6.56,6.29-5.3,12S6,35.86,10.21,34.93A6.22,6.22,0,0,0,13.4,33l-.15-.66A6,6,0,0,1,11.47,30a23.87,23.87,0,0,1-2.08-9.38A5.35,5.35,0,0,1,11.51,16.09Z"/><path class="cls-1" d="M17.93,32.63c-1.19,1-3.12.9-4.68-.3l.15.66,1.27,5.72a2.7,2.7,0,0,0,1.94,2,2.63,2.63,0,0,0,1.34.08A2.87,2.87,0,0,0,20,37.51l-1.29-5.83A4.54,4.54,0,0,1,17.93,32.63Z"/><path class="cls-2" d="M14.14,15.58a3.11,3.11,0,0,0-2.63.51,5.35,5.35,0,0,0-2.12,4.57A23.87,23.87,0,0,0,11.47,30a6,6,0,0,0,1.78,2.29c1.56,1.2,3.49,1.35,4.68.3a4.54,4.54,0,0,0,.81-1,5.51,5.51,0,0,0,.41-5.07,15.44,15.44,0,0,1-1.35-6.1A5.34,5.34,0,0,0,14.14,15.58Z"/><path class="cls-2" d="M21.78,78.77l0,.41a24.22,24.22,0,0,1,3.36-.54l0-.31A463.67,463.67,0,0,1,32,31a2.88,2.88,0,0,1-1.49.26h-.06a2.78,2.78,0,0,1-1.72-.94C26.5,42,24.36,54.67,22.9,67.35c-.72-5-1.23-10.33-1.71-15.31-.44-4.61-.86-9-1.41-12.75A2.68,2.68,0,0,1,18,40.79a2.63,2.63,0,0,1-1.34-.08c.47,3.45.85,7.47,1.26,11.66C18.72,61.28,19.68,71.33,21.78,78.77Z"/><path class="cls-1" d="M31.32,24.36a4.08,4.08,0,0,1-2.69-1.52L28,28.06a2.85,2.85,0,0,0,.76,2.27,2.78,2.78,0,0,0,1.72.94h.06A2.88,2.88,0,0,0,32,31a2.83,2.83,0,0,0,1.72-2.22l.67-5.22a4.14,4.14,0,0,1-3,.79Z"/><path class="cls-1" d="M34.46.09a11,11,0,0,0-6.72,20.48,4.41,4.41,0,0,1,0-.81l1.16-9.09a4.11,4.11,0,0,1,4.6-3.55h.08a4.11,4.11,0,0,1,3.55,4.6L36,20.82a4.92,4.92,0,0,1-.18.78A11,11,0,0,0,44,12.37"/><path class="cls-2" d="M33.52,7.12a4.11,4.11,0,0,0-4.6,3.55l-1.16,9.09a4.41,4.41,0,0,0,0,.81,4.13,4.13,0,0,0,3.58,3.79h.08a4.14,4.14,0,0,0,3-.79,4.2,4.2,0,0,0,1.43-2,4.92,4.92,0,0,0,.18-.78l1.16-9.1a4.11,4.11,0,0,0-3.55-4.6Z"/></g></g></svg>