<svg xmlns="http://www.w3.org/2000/svg" viewBox="0 0 39.37854 39.37832"><defs><style>.cls-1{fill:#8c8c8c;}</style></defs><title>Asset 2</title><g id="Layer_2" data-name="Layer 2"><g id="Layer_1-2" data-name="Layer 1"><path class="cls-1" d="M19.68938,39.37832A19.68916,19.68916,0,1,1,39.37854,19.68916,19.71153,19.71153,0,0,1,19.68938,39.37832Zm0-37.61717a17.928,17.928,0,1,0,17.928,17.928A17.9485,17.9485,0,0,0,19.68938,1.76115Z"/><path class="cls-1" d="M22.9435,20.5336H19.97384v9.55647H15.57126V20.5336H13.4776V16.79238h2.09366V14.37145A4.12818,4.12818,0,0,1,20.013,9.92929l3.261.01392v3.63132h-2.3662a.89617.89617,0,0,0-.9339,1.01971V16.796h3.354Z"/></g></g></svg>