<svg xmlns="http://www.w3.org/2000/svg" viewBox="0 0 235.58 280.7"><defs><style>.cls-1{fill:#171613;}.cls-2{fill:#b7420e;}.cls-3{fill:#f3f7fa;}.cls-4{fill:#79d2f5;}.cls-5{fill:#f3eaa7;}.cls-6{fill:#fefefe;}.cls-7{fill:#fd9110;}.cls-8{fill:#787390;}.cls-9{fill:#cac7dd;}.cls-10{fill:#e7f4fa;}.cls-11{fill:#fbd70c;}.cls-12{fill:#dd8e11;}</style></defs><title>Asset 1</title><g id="Layer_2" data-name="Layer 2"><g id="Layer_1-2" data-name="Layer 1"><path class="cls-1" d="M89,276.52a29.21,29.21,0,0,0,1-14.11c-1-6.62-4.12-12.52-4.68-19.1a28.08,28.08,0,0,1,1.59-11.26V232c1.7-3.49.94-7.42,1.94-11h-.1l1.17-3.19c.86-1.34,1.73-2.67,2.91-4.51a121.84,121.84,0,0,0-19,4.16,10.56,10.56,0,0,1-13.52-10.52c.06-14.93.24-29.87.36-44.8,0-.82-.14-1.64-.22-2.46a13.5,13.5,0,0,0,.2-6c.15-5.76.67-11.55.35-17.28-.28-5,1.42-8.9,4.38-12.57.81-.11,1.77.07,2-1.07l-.06,0,12.94-.45,2,0,6,.12.46.16.46-.18,59-.85c5.12.71,7.89,4.44,10.58,8.26q.36,24,.7,47.89l0,33a.58.58,0,0,0-.29.7l-1.45,1.79h0c-6.68,9.13-14.59,2.84-22.59,1.27,3,6.8,2.38,13.12.48,19.4a6.69,6.69,0,0,0-.23,3.86,22.22,22.22,0,0,1-1.89,16,3.47,3.47,0,0,0-1.17,4.31c.87,2.42.83,5.39-1.1,7-4,3.44-4.13,7.91-4.41,12.48-.62,2.7-2.67,2.23-4.58,2.05,1-1.26.51-3,1.06-4.19,2.55-5.51-.89-4.86-4.23-4.37a44.31,44.31,0,0,1-22-2.26c-2-.73-2.31-.11-3.12,1.54-1.36,2.75.12,6-1.76,8.52C90.92,278.21,88.29,279.76,89,276.52Zm40.12-18.76-1-2.26,1.14-1.92c4-4.42,4.81-9.47,3.09-15.06.22-1.14-.45-2-1-2.86a3.54,3.54,0,0,0,.13-1,17.7,17.7,0,0,0,1.25-17.8c-2-4.29-6.2-4.35-10.28-4.12h-2.3c-4-.72-8-2.21-12-.29-.82,0-1.61.09-1.9,1-5-2.09-9.16-1-12.33,3.32a14.91,14.91,0,0,0-2.65,9.74c0,1.06.09,2.13.14,3.19-4.51,8.65-4.86,17,1.86,24.78l-1,4c-.91,3.49,1.87,4.55,4,6,8.72,4.75,17.85,4.81,27.19,2.32C129,265.1,130.25,263.11,129.09,257.76Zm27.26-49.18q-.22-38.1-.44-76.2c0-2.58-1.81-3.66-3.65-4.77-1-3-3.34-3.07-6-3q-36.68.5-73.34.84c-5.84.07-8.88,3.08-8.95,9q-.41,35.67-.74,71.34c0,1.57-.71,3.36.85,4.68,2.14,4.45,5.15,5.34,10.06,3.92,23.78-6.9,47.66-8.1,71.5,0C151.32,216.28,154,214.74,156.35,208.58Z"/><path class="cls-1" d="M54.35,40.58c-1.72,3.87-2.89,8-5.34,11.53C41.85,62.47,30.6,65.23,19.53,59.19c-1.73-.94-3.41-2-5.11-3-5.41-5-10-10.58-12.77-17.55C-2.1,29.11.9,21.08,7.18,13.84c6.09-7,14-8,22.33-5.71C39.67,11,46.81,17.67,51.72,26.86c.64,1.87,1.29,3.74,1.93,5.62Q54,36.53,54.35,40.58Zm-44.08-24L9.21,17.65c-2.32,2.65-5,5.14-4.72,9.12C2.28,29,2.73,32,3.43,34.31,7,45.85,14,54.6,25.57,58.9c2.45.91,5.32,2.24,7.85-.26,8.35-1.21,13.19-6.4,15.9-14,2.71-3.29,2.5-7.09,1.7-10.89-2-9.3-15.36-20.82-24.82-22.24-6.49-1-12-.87-15.95,5.09Z"/><path class="cls-1" d="M219.49,74.21c-8.75,3.19-17.56,4.81-26.6,1-13.24-5.54-17.66-23.53-8.47-34.61.73-.88,1.49-1.76,2.23-2.63A40.67,40.67,0,0,1,214,27.57c11.88,0,20.23,8.12,21.41,20C236.72,60.54,230.34,68.62,219.49,74.21Zm-36.18-19.7a6.54,6.54,0,0,0,.58,4.41A14.85,14.85,0,0,0,191,70.62c1.4,1.56,3.43,2,5.27,2.4,9.8,2.21,19.18,1.94,27.12-5.4,4.46-3.84,10-7,8.84-14.33.62-3.12-.34-6.08-.78-9.12a15.7,15.7,0,0,0-13.11-13.44A23.35,23.35,0,0,0,208,31,27.61,27.61,0,0,0,195.2,35.7C187.72,39.75,182.47,45.21,183.31,54.51Z"/><path class="cls-1" d="M177.22,31.53c-5.05,4.55-10.26,8.87-16.81,11.16a16.54,16.54,0,0,1-21.88-16.81c.26-3.63,3.18-6,4-9.29C148.17,9.9,154.36,4,162.92,1.15c5.75-1.91,11.07-1.64,16,2.31C185.78,9,187,14.18,183.24,22.3c-.76,1.62-1.44,3.28-2.15,4.93l0,0C179.28,28.23,178.3,29.92,177.22,31.53Zm-29.06-15c-.61-.22-1.24-.28-1.49.43-.09.26.3.68.48,1-7,8-7.06,13-.12,18.52a6.11,6.11,0,0,0,3.38,3c2,.12,3.72,1.06,6.08.58,7.89-1.62,13.77-6.16,18.81-11.89,3.09-3.52,6.14-7.34,6-12.53l0,0c1.31-1.1.85-2.17,0-3.24-.73-3.4-2.31-6-6.06-6.74-1.32-.62-2-2.43-3.91-1.95a14.69,14.69,0,0,0-11.14,2.61,20.4,20.4,0,0,0-8.94,6.2c-1.41,1-3.16,1.77-3.07,4Z"/><path class="cls-2" d="M92.13,278.71c1.88-2.55.4-5.77,1.76-8.52.81-1.65,1.14-2.27,3.12-1.54a44.31,44.31,0,0,0,22,2.26c3.34-.49,6.78-1.14,4.23,4.37-.55,1.2-.09,2.93-1.06,4.19-6.77,1.89-13.67.82-20.51.79C98.49,280.24,94.87,282,92.13,278.71Z"/><path class="cls-3" d="M188.89,14.3l.14.34-.52.1a1,1,0,0,1,.08-.36C188.64,14.31,188.79,14.32,188.89,14.3Z"/><path class="cls-1" d="M96.27,26.34c9.3,1.43,18.69,4.92,25.06,13.85a10.61,10.61,0,0,1,0,12.69c-2,3-1.57,5.47-.27,8.5,3.64,8.51,2.39,13.82-4.2,19.66-5.28,4.67-11,5.07-16.89,1.19C92,77,88.58,66.42,92.48,57.9c1.09-2.39-.49-2.41-1.57-3.17-3.16-2.21-6.88-3.28-9-7.28-4.65-8.72-.11-19.05,9.72-20.75C92.76,26.51,93.94,26.52,96.27,26.34Zm22.18,25.11a.88.88,0,0,0,.11-.63c3-5.66,1.69-9.42-5-13.94-3.41-2.53-6.85-5-11.12-5.92a15.54,15.54,0,0,0-10.16-1.28c-2.81.58-6.29.85-6.87,4.86l-.35,1c-2.81,1.83-2.44,4.41-1.68,7.09a4.68,4.68,0,0,0,1.89,3.87C91.9,52.82,99.63,57,108.92,57.73c2.36.18,5.07.58,6.7-2a4.38,4.38,0,0,0,2.1-2.68ZM103.21,79.66c.05,1.69,1.16.82,1.92.79,3.08,1.78,5.87,1.71,8.21-1.27,1.47-1.41,4.24-1.64,4.12-4.5l-.09.06c1,.32.84-.64,1.13-1.1,2.5-3.86,1.13-7.55-.49-11.23-.65-1.45-.85-3.25-3.35-2.44-4.94,1.61-9.81.76-14.57-1-2-.74-3.87-1.22-5,1.34a4.37,4.37,0,0,0-1.75,4.75c.74,2.89,1.94,5.67,2.94,8.49,1.67,2.75,3,5.87,6.9,6.1Z"/><path class="cls-1" d="M49.37,100.32a.69.69,0,0,0-.3-.74c-1.57-4.66-.54-9.31,0-14,1.91-6.53,3.34-13.24,7.2-19,3.32-5,6.39-6.11,11.87-4.66,5.14,1.37,6.51,5,6.58,9.8.13,8.89-3.25,16.85-6.36,24.9a.77.77,0,0,0-.37.77l.05,0L66.8,99.24l.08,0L66,100.44l.1-.1-1,1.17.07-.08-1.07,1.08.08-.08-1.21,1,.11-.11c-3.54,1.9-7,.67-10.51-.19l.06.14-1.3-.82-1-.86ZM61.3,66.37a3.27,3.27,0,0,0-2.62,2c-4,8.29-7,16.88-7.25,26.22,0,1.6-.11,3.39,1.85,4.19.61,2.13,2.32,1.95,4,1.91,2.41.88,4.06,0,5.46-2,2.11-3.1,4-6.26,4.59-10,3.26-3.76,3.43-8.42,3.79-13,0-3.85,2.19-8.46-3.67-10.17C65.16,64.33,62.92,63.36,61.3,66.37Z"/><path class="cls-1" d="M168.73,97.47c-8.83,6.47-14.36,5.3-19.71-4.28a38.3,38.3,0,0,1-2.69-5.86c-2.22-6.35-1.08-10.62,3.48-13.63,5.27-3.49,9.1-3,14.5,1.91-.2.66.15,1,.7,1.29l-.09-.09,1.26,1.91,0-.06.73,1.31-.08,0c.63,1.31,1.27,2.62,1.9,3.94v.2c1,3.73,2.12,7.43,1.32,11.37l.09-.09C169.63,96.07,169.18,96.77,168.73,97.47Zm-13.57-1.81c-.31,1,0,1.37,1.06,1l-.14.08c1.59,2.86,3.72,2.63,6.08,1,1.8-1.29,3.93-2.36,3.16-5.2,1.49.11,2.23-.55,1.86-2-.86-3.46-1.2-7.15-4-9.8-2.79-3.53-5-8.2-10.92-5.22-3.56,1.53-4.78,4.21-3.92,7.92a13,13,0,0,0,3.91,9.16h0c.22,1.07.5,2.08,1.87,2.16l.09-.15c-.3,1,0,1.37,1.06,1Z"/><path class="cls-1" d="M102.48,111.89l-.06-.31c-1.53-9.87,3.79-16.81,10.08-23.25,1.69-1.72,4.14.33,6.13-.59l3.64,1.68a.46.46,0,0,0,.59.3l1.35,1,1,.89,1,1.13-.09-.09.63,1.29-.07,0c1.68,5.65-1.87,10.38-2.77,15.58l-.65,1.92a5.42,5.42,0,0,0-1.26.74c-7.52,7.62-10.13,7.8-18.36,1.22Zm14.85.76c.79-.44,1.8-.76,1-2l0,0c4.34-2.92,5.15-7.31,5-12.09l0,.1c1.22-1,1.38-2.07,0-3.13-.28-1.8-.69-3.45-3.14-2.92a4.27,4.27,0,0,1-.88-.16c-4-1.79-7.33-1.66-9.14,3h0c-2.15,1.86-3.8,4-3.39,7-3.09,4.41-2.36,8.17,2.18,11.24a4,4,0,0,0,3.33,1.6c1.51.3,2.85.3,3-1.73l0,0c1.15.59,1.61-.17,2-1Z"/><path class="cls-1" d="M94.82,109c2,4.6-2.25,7-3.6,10.48a19,19,0,0,1-8.87.91c-3.25-3.8-8-6.45-9.21-11.82l0-2,.45-1.81-.07.08.79-1.22c7.24-7.35,11.42-6.68,19.41,3.12l1.19,2.17Zm-14.6,4.59,1,1,0,0c.42.86,1,1.47,2,1.05l0,0c-.2.91.39,1,1,1l0,0c.71,1.27,1.81,1,2.91.76a4.39,4.39,0,0,0,3.6-3c2.74-3.15.74-5.46-1.38-7.75a5.36,5.36,0,0,0-4.95-3.23,2.82,2.82,0,0,0-4.3,0c-1.9,0-2.7,1.16-3,2.86-1.27,1.86-1,3.33,1.1,4.34l0,0c-.42,1.07.18,1.62,1,2l0,0,1,1Z"/><path class="cls-4" d="M66,100.44l.86-1.24A1,1,0,0,1,66,100.44Z"/><path class="cls-4" d="M49.37,100.32l1,1.23Z"/><path class="cls-4" d="M64.12,102.51l1.07-1.08Z"/><path class="cls-4" d="M51.35,102.41l1.3.82A1.11,1.11,0,0,1,51.35,102.41Z"/><path class="cls-4" d="M126.73,94l-.63-1.29C126.71,92.91,127,93.31,126.73,94Z"/><path class="cls-4" d="M126.19,92.77l-1-1.13Z"/><path class="cls-4" d="M124.21,90.75l-1.35-1Z"/><path class="cls-4" d="M63,103.39l1.21-1Z"/><path class="cls-5" d="M64.1,210.4c-1.56-1.32-.86-3.11-.85-4.68q.31-35.67.74-71.34c.07-5.89,3.11-8.9,8.95-9q36.68-.41,73.34-.84c2.64,0,5,.05,6,3l0,0c-2.88,1.64-6.65-.36-9.28,2.27l-65.69,0c-2.93-2-6.33-2.82-8.87-.21-2.27,2.32-1.94,5.6-.31,8.68s4.49,1.92,6.94,2.17c-1.47,2.14-6-.82-6.08,4.06-.33,19.23-.93,38.46-1.43,57.69-.93,2-.34,4.12-.54,6.17Z"/><path class="cls-6" d="M93.28,254.57c-6.72-7.8-6.37-16.13-1.86-24.78,4.94-2.59,9.55-5.84,15-7.47,2-.61,4.05-1.68,6,.17-1.2,5.75-6.14,7.69-10.44,10.34-1.69,1-4.4.93-4.66,3.77.53,3.14,3.21,1.57,4.88,2.23.17,1.15,1.13,1.39,2,1.95,2.65,1.8,6.43,3.3,5.65,7.28s-4.53,5.59-8.19,6.36c-2.41.5-5,.24-7.47.33A1.72,1.72,0,0,0,93.28,254.57Z"/><path class="cls-5" d="M152.26,127.61c1.84,1.11,3.64,2.19,3.65,4.77q.19,38.1.44,76.2l-2.91-1.92c-.1-1.81-.12-3.63-1.35-5.14q-.42-29.15-.8-58.3a5.58,5.58,0,0,0-1.45-3.58,7.88,7.88,0,0,0,3.39-6c.14-2.08-2-3.84-.93-6.07Z"/><path class="cls-7" d="M153.44,206.66l2.91,1.92c-2.4,6.16-5,7.7-10.69,5.77-23.84-8.13-47.72-6.93-71.5,0-4.91,1.42-7.92.53-10.06-3.92l2.94-2c.08.33.15.67.23,1,3.67,4.53,7.46,4.52,11,0,0-2.28,0-4.55.08-6.83,1.52-1.87,3.86-1.34,5.8-2l1.23.24c0,1.94-2.41,2.85-2.21,4.9-.24.58-2.76,1.71.09,1.56,2-.1,4-.82,6.08-.6a7.07,7.07,0,0,0-.06.91,1.19,1.19,0,0,0-.34.16s0,.16-.07.24l.39-.42c5.65.42,11.16-1.1,16.83-1.07,9.8.05,19.44,1.63,29.19,2.07l.39.25-.41-.23a3.27,3.27,0,0,0-3.11-2.15l-2-1.65c.78-.16,2.07-.13,2.22-.53.6-1.6-1.8-1.5-1.91-2.84,1.29-.18,2.8.79,3.82-.76l7.15,3.11c.35,2.78.71,5.56,2.69,7.77,3.9,1.75,7.45,2.33,9.19-2.86C153.35,208,153.39,207.34,153.44,206.66Z"/><path class="cls-8" d="M102.16,238.83c-1.67-.66-4.35.91-4.88-2.23,5.83.69,10.1-2.64,14.06-6,2.28-1.95,4.26-4.94,1-8.08-1.95-1.85-4-.78-6-.17-5.41,1.63-10,4.88-15,7.47,0-1.06-.09-2.13-.14-3.19,2-2.65,5.19-3.46,8-4.78,2.44-.84,4.86-1.71,7.31-2.52,1.71-.56,2-1.43.74-2.76-.36-1-.73-2-1.1-3,.29-1,1.08-1,1.9-1l4.08,6.15c5.84,4.36,6,7.43.74,14.91-1.86.46-2.34,1.5-.49,2.39,2.85,1.38,5.33.84,6.66-2.42,3.11-5.53,4.1-11.22,1.43-17.23l-.42-3.51h2.3c2,2.95,2.13,6.25,2.15,9.7,0,4.15-1.08,8.12-1.46,12.2,1,2.53,2.56,3.59,5.13,1.9l2.1-.78a4.06,4.06,0,0,0,1-.13c.54.88,1.21,1.72,1,2.86-2.39,1.13-5.28,3.27-7.42,1.62-4.2-3.25-7.59-1-11.66.11,2.91,3.66,2.3,7.49,1.86,11.3-2.48,1.83-2.2.72-2.06-1.55C113.53,242.66,109.24,238.42,102.16,238.83Z"/><path class="cls-9" d="M102.16,238.83c7.08-.41,11.37,3.83,10.91,11.17-.14,2.27-.42,3.38,2.06,1.55,2.9,1.81,5.71,3.6,9.47,2.22,1.37-.51,3.07-1.3,4.66-.19l-1.14,1.92c-2.6,1-5.14,2.24-7.81,3-1.36.39-1.57.78-1,1.9-3.08,2.37-6.73,1.46-9.94,1-5-.65-9.52-1.24-13.1,3.16-2.12-1.48-4.9-2.54-4-6,2.79-.36,5.57,2.11,8.78,0-2.44-1.53-5.51-1.29-6.92-3.86,2.5-.09,5.06.17,7.47-.33,3.66-.77,7.4-2.3,8.19-6.36s-3-5.48-5.65-7.28C103.29,240.22,102.33,240,102.16,238.83Z"/><path class="cls-3" d="M129.26,253.58c-1.59-1.11-3.29-.32-4.66.19-3.76,1.38-6.57-.41-9.47-2.22.44-3.81,1.05-7.64-1.86-11.3,4.07-1.11,7.46-3.36,11.66-.11,2.14,1.65,5-.49,7.42-1.62C134.07,244.11,133.22,249.16,129.26,253.58Z"/><path class="cls-10" d="M123.15,234.67c.38-4.08,1.49-8,1.46-12.2,0-3.45-.15-6.75-2.15-9.7,4.08-.23,8.31-.17,10.28,4.12a17.7,17.7,0,0,1-1.25,17.8l-1.11,1.1-2.1.78A5.58,5.58,0,0,0,123.15,234.67Z"/><path class="cls-3" d="M96.25,264.61c3.58-4.4,8.14-3.81,13.1-3.16,3.21.42,6.86,1.33,9.94-1l3,.26c1.43,1.89.93,4.15,1.17,6.26C114.1,269.42,105,269.36,96.25,264.61Z"/><path class="cls-9" d="M99.31,221.82c-2.84,1.32-6,2.13-8,4.78a14.91,14.91,0,0,1,2.65-9.74c3.17-4.34,7.36-5.41,12.33-3.32.37,1,.74,2,1.1,3C103.45,216.43,99.71,216.59,99.31,221.82Z"/><path class="cls-9" d="M112.24,218.64l-4.08-6.15c4-1.92,8-.43,12,.29l.42,3.52C117.53,216.11,114.18,214.86,112.24,218.64Z"/><path class="cls-9" d="M123.44,266.93c-.24-2.11.26-4.37-1.17-6.26,2-1.6,5-.84,6.82-2.91C130.25,263.11,129,265.1,123.44,266.93Z"/><path class="cls-8" d="M129.09,257.76c-1.81,2.07-4.82,1.31-6.82,2.91l-3-.26c-.55-1.12-.34-1.51,1-1.9,2.67-.77,5.21-2,7.81-3C128.44,256.25,128.76,257,129.09,257.76Z"/><path class="cls-8" d="M94.12,254.75c1.41,2.57,4.48,2.33,6.92,3.86-3.21,2.08-6-.39-8.78,0l1-4A1.72,1.72,0,0,1,94.12,254.75Z"/><path class="cls-8" d="M88.32,122.35c.3-.44.6-.47.92,0l-.46.18Z"/><path class="cls-9" d="M130.38,235.79l1.11-1.1a3.54,3.54,0,0,1-.13,1A4.06,4.06,0,0,1,130.38,235.79Z"/><path class="cls-7" d="M4.49,26.77c-.25-4,2.4-6.47,4.73-9.12l1-1.08h0c9.42-3.23,18.05-1.9,26.16,4s12.07,14.17,12.91,24c-2.71,7.62-7.55,12.81-15.9,14C23.27,58.1,16.49,52,10.37,44.76,6,39.54,5.38,33.12,4.49,26.77Z"/><path class="cls-2" d="M49.32,44.62c-.84-9.87-4.68-18-12.91-24s-16.74-7.23-26.16-4c4-6,9.46-6.07,16-5.09C35.66,12.91,49.05,24.43,51,33.73,51.82,37.53,52,41.33,49.32,44.62Z"/><path class="cls-11" d="M4.49,26.77c.89,6.35,1.47,12.77,5.88,18C16.49,52,23.27,58.1,33.42,58.64c-2.53,2.5-5.4,1.17-7.85.26C14,54.6,7,45.85,3.43,34.31,2.73,32,2.28,29,4.49,26.77Z"/><path class="cls-2" d="M10.27,16.57l-1,1.08Z"/><path class="cls-6" d="M208,31a23.35,23.35,0,0,1,10.32-.23l-.12,3.71q-.39,15-.79,30a1.76,1.76,0,0,0,1.37,1.42c-3.14,2.3-6.91,2.65-10.55,3.42-1.1-1.49-.55-3.16-.53-4.77q.18-15.28.37-30.58Z"/><path class="cls-3" d="M208,31c0,1,.05,2,.07,2.95-5.36-.34-7.06,2.16-7,7.47.07,9.13-.67,18.26-1.06,27.39a9.57,9.57,0,0,1-5.91-1.69,256.52,256.52,0,0,0,1.24-27.72l-.15-3.66A27.61,27.61,0,0,1,208,31Z"/><path class="cls-2" d="M194.11,67.08A9.57,9.57,0,0,0,200,68.77c2.68,1.36,5.47.75,8.24.49,3.64-.77,7.41-1.12,10.55-3.43,6.4-2.12,10.16-7.07,13.43-12.54,1.14,7.3-4.38,10.49-8.84,14.33-10.12,4.69-20.52,6.41-31.41,3a3,3,0,0,0-1,0,14.82,14.82,0,0,1-7.11-11.7l.53-.44C186.86,62.24,189.3,66,194.11,67.08Z"/><path class="cls-5" d="M232.24,53.29c-3.27,5.47-7,10.42-13.43,12.54a1.74,1.74,0,0,1-1.37-1.41c5.08-2,8.29-5.88,10.32-10.71,3.54-8.44-1-17.49-9.53-19.27l.12-3.71a15.7,15.7,0,0,1,13.11,13.44C231.9,47.21,232.86,50.17,232.24,53.29Z"/><path class="cls-12" d="M191,70.62a3,3,0,0,1,1,0c10.89,3.45,21.29,1.73,31.41-3-7.94,7.34-17.32,7.61-27.12,5.4C194.44,72.61,192.41,72.18,191,70.62Z"/><path class="cls-5" d="M195.2,35.7l.15,3.66c-6.5,3.44-9.68,9.22-11.31,16.09l-.73-.94C182.47,45.21,187.72,39.75,195.2,35.7Z"/><path class="cls-2" d="M183.31,54.51l.73.94.39,3-.53.44A6.48,6.48,0,0,1,183.31,54.51Z"/><path class="cls-6" d="M160.16,6.33A14.69,14.69,0,0,1,171.3,3.72l-.69,4.14c.59,4.9-1.71,10,.77,14.76-2.68,4.91-7,7.9-11.9,10.28q.39-11.7.8-23.39Z"/><path class="cls-2" d="M159.48,32.9c4.87-2.38,9.22-5.37,11.9-10.28,1.76-1.06,1.74-3.25,3-4.65,3.94-5,4.18-8.4.86-12.3,3.75.7,5.33,3.34,6.06,6.74,0,1.08,0,2.16,0,3.24l0,0c-1.47-.18-2,.86-2.51,1.94-5.77,12.12-15.09,19.62-28.43,21.9a6.08,6.08,0,0,1-3.37-3l4.2-.36a7.8,7.8,0,0,0,4.32-1.25A5.64,5.64,0,0,0,159.48,32.9Z"/><path class="cls-11" d="M151.24,36.11l-4.2.36c-6.95-5.51-6.92-10.55.1-18.53.58-.32,1.37-.5,1-1.46h0c1.63.39,2.46-.6,3.14-1.84,2,1.08,1,2.9.9,4.35C152,24.7,151.57,30.41,151.24,36.11Z"/><path class="cls-3" d="M151.24,36.11c.33-5.7.74-11.41.95-17.11.06-1.45,1.13-3.27-.9-4.35,0-.71,0-1.41-.07-2.12a20.4,20.4,0,0,1,8.94-6.2l.12,3.18c-2.77.09-2.93,2-3.07,4.13-.51,7.08-1.1,14.14-1.65,21.22A7.8,7.8,0,0,1,151.24,36.11Z"/><path class="cls-7" d="M150.41,39.46c13.34-2.28,22.66-9.78,28.43-21.9.51-1.08,1-2.12,2.51-1.94.09,5.19-3,9-6,12.53-5,5.73-10.92,10.27-18.81,11.89C154.13,40.52,152.43,39.58,150.41,39.46Z"/><path class="cls-5" d="M175.21,5.67c3.32,3.9,3.08,7.32-.86,12.3-1.62-2.12.59-4.19.06-6.39s-.71-4.32-3.8-3.72l.69-4.14C173.17,3.24,173.89,5.05,175.21,5.67Z"/><path class="cls-5" d="M151.22,12.53c0,.71.05,1.41.07,2.12-.68,1.24-1.51,2.23-3.14,1.84C148.06,14.3,149.81,13.54,151.22,12.53Z"/><path class="cls-7" d="M181.31,15.65c0-1.08,0-2.16,0-3.24C182.16,13.48,182.62,14.55,181.31,15.65Z"/><path class="cls-5" d="M148.16,16.48c.35,1-.44,1.14-1,1.46-.17-.35-.56-.77-.47-1C146.92,16.2,147.55,16.26,148.16,16.48Z"/><path class="cls-11" d="M118,62.41c1.62,3.68,3,7.37.49,11.23-.88-.15-1.25.22-1.13,1.1l.09-.06c-4.83,3.46-9.93,2.38-15,.89L101,73.69c-.26-2.93,1.78-4.4,3.72-6C108.61,64.45,113.62,64.24,118,62.41Z"/><path class="cls-6" d="M102.41,31c4.27.92,7.71,3.39,11.12,5.92-.37.63-.74,1.26-1.1,1.89q.51,7.33,1,14.67a12.7,12.7,0,0,1-7.24-1C104.71,46,105.57,39,102.09,33Z"/><path class="cls-7" d="M118,62.41c-4.39,1.83-9.4,2-13.26,5.26-1.94,1.62-4,3.09-3.72,6l-.76-.78c.22-1.9-.47-3.1-2.5-3.27-2.12-2.75-2.16-6.09-2.63-9.3,1.08-2.56,2.94-2.08,5-1.34,4.76,1.73,9.63,2.58,14.57,1C117.16,59.16,117.36,61,118,62.41Z"/><path class="cls-3" d="M102.41,31c-.1.69-.21,1.39-.32,2.08-3.28-.35-1.83,2.09-1.72,3.3.44,4.74,1.13,9.47,1.72,14.2a13.85,13.85,0,0,1-5.68-2.81c-.21-2.28-.3-4.58-.64-6.85-1.47-9.72-1.5-9.72-10.39-6.34.58-4,4.06-4.28,6.87-4.86A15.54,15.54,0,0,1,102.41,31Z"/><path class="cls-2" d="M96.41,47.73a13.85,13.85,0,0,0,5.68,2.81l4.13,1.85a12.7,12.7,0,0,0,7.24,1l1.7-.91,2-.06a7.15,7.15,0,0,0,.57.53,4.43,4.43,0,0,1-2.11,2.68c-7.83.7-14.71-1.84-21.57-5.45-4-2.1-6.37-6.18-10.7-7.59C82.59,40,82.22,37.38,85,35.55,85.85,42.39,91.13,45.06,96.41,47.73Z"/><path class="cls-11" d="M96.41,47.73C91.13,45.06,85.85,42.39,85,35.55l.35-1c8.89-3.38,8.92-3.38,10.39,6.34C96.11,43.15,96.2,45.45,96.41,47.73Z"/><path class="cls-12" d="M83.35,42.64c4.33,1.41,6.71,5.49,10.7,7.59,6.86,3.61,13.74,6.15,21.57,5.45-1.63,2.63-4.34,2.23-6.7,2-9.29-.73-17-4.91-23.68-11.22A4.68,4.68,0,0,1,83.35,42.64Z"/><path class="cls-2" d="M100.27,72.91l.76.78,1.38,1.88.71,1.47-1,.73c-2.23-1-2.83-4.21-5.78-4.19-1-2.82-2.2-5.6-2.94-8.49a4.37,4.37,0,0,1,1.75-4.75c.47,3.21.51,6.55,2.63,9.3C98.08,71.12,99.2,72,100.27,72.91Z"/><path class="cls-3" d="M103.12,77l-.71-1.47c5.12,1.49,10.22,2.57,15-.89.12,2.86-2.65,3.09-4.12,4.5A14.61,14.61,0,0,1,103.12,77Z"/><path class="cls-5" d="M112.43,38.77c.36-.63.73-1.26,1.1-1.89,6.72,4.52,8.08,8.28,5,13.94l-.94-.76C119.89,44.46,116.05,41.67,112.43,38.77Z"/><path class="cls-2" d="M103.12,77a14.61,14.61,0,0,0,10.22,2.14c-2.34,3-5.13,3-8.21,1.27-.4-.84-1.12-.91-1.92-.79l0,0-1.12-1.91Z"/><path class="cls-12" d="M102.11,77.77l1.12,1.91c-3.89-.23-5.23-3.35-6.9-6.1C99.28,73.56,99.88,76.79,102.11,77.77Z"/><path class="cls-12" d="M103.21,79.66c.8-.12,1.52,0,1.92.79C104.37,80.48,103.26,81.35,103.21,79.66Z"/><path class="cls-2" d="M118.45,51.45c-.24.52-.48,1-.73,1.55-.19-.17-.38-.34-.56-.53a2.1,2.1,0,0,0,.17-.86l0,0Z"/><path class="cls-5" d="M118.45,51.45l-1.15.19c.1-.52.21-1,.32-1.58l.94.76A.88.88,0,0,1,118.45,51.45Z"/><path class="cls-3" d="M117.37,74.74c-.12-.88.25-1.25,1.13-1.1C118.21,74.1,118.41,75.06,117.37,74.74Z"/><path class="cls-7" d="M67.3,88.64c-.59,3.77-2.48,6.93-4.59,10-1.4,2-3.05,2.91-5.46,2-1.54-13.18,1.33-25.08,10.17-35.26,5.86,1.71,3.72,6.32,3.67,10.17C68.67,79.62,68.3,84.22,67.3,88.64Z"/><path class="cls-2" d="M67.42,65.44C58.58,75.62,55.71,87.52,57.25,100.7c-1.65,0-3.36.22-4-1.91A66.71,66.71,0,0,1,54.9,84.52c1.34-6.36,4.1-12.16,6.4-18.15C62.92,63.36,65.16,64.33,67.42,65.44Z"/><path class="cls-11" d="M61.3,66.37c-2.3,6-5.06,11.79-6.4,18.15a66.71,66.71,0,0,0-1.62,14.27c-2-.8-1.89-2.59-1.85-4.19.2-9.34,3.22-17.93,7.25-26.22A3.27,3.27,0,0,1,61.3,66.37Z"/><path class="cls-11" d="M67.3,88.64c1-4.42,1.37-9,3.79-13C70.73,80.22,70.56,84.88,67.3,88.64Z"/><path class="cls-7" d="M148.31,83.5c-.86-3.71.36-6.39,3.92-7.92,5.53,1.86,8.52,6,10.37,11.28.47,1.37.22,3.58,2.63,3.7l.09,2.07c.77,2.84-1.36,3.91-3.16,5.19l-6.08-1,.14-.08-1.06-1,.06,0-1.06-1-.09.15c.26-1.49-.33-2.24-1.87-2.16h0C152.21,89.06,150.23,86.29,148.31,83.5Z"/><path class="cls-2" d="M165.23,90.56c-2.41-.12-2.16-2.33-2.63-3.7-1.85-5.31-4.84-9.42-10.37-11.28,5.89-3,8.13,1.69,10.92,5.22C162.4,84.36,165.71,87.05,165.23,90.56Z"/><path class="cls-11" d="M165.23,90.56c.48-3.51-2.83-6.2-2.08-9.76,2.83,2.65,3.17,6.34,4,9.8.37,1.48-.37,2.14-1.86,2Z"/><path class="cls-11" d="M148.31,83.5c1.92,2.79,3.9,5.56,3.91,9.16A13,13,0,0,1,148.31,83.5Z"/><path class="cls-11" d="M156.08,96.79l6.08,1C159.8,99.42,157.67,99.65,156.08,96.79Z"/><path class="cls-11" d="M152.2,92.65c1.54-.08,2.13.67,1.87,2.16C152.7,94.73,152.42,93.72,152.2,92.65Z"/><path class="cls-11" d="M154.16,94.66l1.06,1C154.19,96,153.86,95.67,154.16,94.66Z"/><path class="cls-11" d="M155.16,95.66l1.06,1C155.2,97,154.85,96.67,155.16,95.66Z"/><path class="cls-11" d="M119.35,92.47a4.27,4.27,0,0,0,.88.16c2.14,8.49-3,18.28-11.23,21.16-4.54-3.07-5.27-6.83-2.18-11.24,1.52.16,1.47,1.48,1.9,2.49s.55,3,2.27,2.62c1.88-.44,1.52-2.33,1.24-3.71-.57-2.83-1.34-5.62-2-8.43h0c2,.2,2.35,1.71,2.89,3.26.63,1.82.19,5.4,2.91,4.69,2.91-.75,1-3.85.73-6a4.65,4.65,0,0,0-.37-1.42C114.84,92.77,117.06,92.59,119.35,92.47Z"/><path class="cls-2" d="M109,113.79c8.18-2.88,13.37-12.67,11.23-21.16,2.45-.53,2.86,1.12,3.14,2.92-1.25,1,0,2.09,0,3.13l0-.1-5,12.09,0,0c-1.16.25-1.33,1-1,2h0a1.41,1.41,0,0,0-2,1l0,0c-1.51-.29-2.37.54-3,1.73A4,4,0,0,1,109,113.79Z"/><path class="cls-3" d="M119.35,92.47c-2.29.12-4.51.3-3,3.6a4.65,4.65,0,0,1,.37,1.42c.24,2.12,2.18,5.22-.73,6-2.72.71-2.28-2.87-2.91-4.69-.54-1.55-.91-3.06-2.89-3.26C112,90.81,115.36,90.68,119.35,92.47Z"/><path class="cls-3" d="M110.21,95.52c.68,2.81,1.45,5.6,2,8.43.28,1.38.64,3.27-1.24,3.71-1.72.4-1.79-1.51-2.27-2.62s-.38-2.33-1.9-2.49C106.41,99.47,108.06,97.38,110.21,95.52Z"/><path class="cls-12" d="M118.36,110.67l5-12.09C123.51,103.36,122.7,107.75,118.36,110.67Z"/><path class="cls-12" d="M112.33,115.39c.65-1.19,1.51-2,3-1.73C115.18,115.69,113.84,115.69,112.33,115.39Z"/><path class="cls-12" d="M123.33,98.68c.08-1-1.21-2.11,0-3.13C124.71,96.61,124.55,97.65,123.33,98.68Z"/><path class="cls-12" d="M115.32,113.68a1.41,1.41,0,0,1,2-1C116.93,113.51,116.47,114.27,115.32,113.68Z"/><path class="cls-12" d="M117.33,112.65c-.28-1-.11-1.76,1-2C119.13,111.89,118.12,112.21,117.33,112.65Z"/><path class="cls-2" d="M77.12,106.32c.28-1.7,1.08-2.85,3-2.86-1.43,5,1.6,7.69,5.27,10a3.76,3.76,0,0,0,3.78,1.06l1.59-.18a4.41,4.41,0,0,1-3.61,3c-.77-1-1.85-.85-2.91-.76l0,0a1,1,0,0,0-1-1l0,0c-.31-1.07-1.08-1.22-2-1.05l0,0a.92.92,0,0,0-1-1l0,0a.93.93,0,0,0-1-1l0,0c.16-.93,0-1.72-1-2l0,0Z"/><path class="cls-11" d="M85.37,113.5c-3.67-2.35-6.7-5-5.27-10a2.82,2.82,0,0,1,4.3,0C84.72,106.78,85.05,110.14,85.37,113.5Z"/><path class="cls-3" d="M85.37,113.5c-.32-3.36-.65-6.72-1-10.09a5.36,5.36,0,0,1,4.95,3.23c-1.75,2.59.41,5.29-.2,7.92A3.76,3.76,0,0,1,85.37,113.5Z"/><path class="cls-5" d="M89.15,114.56c.61-2.63-1.55-5.33.2-7.92,2.12,2.29,4.12,4.6,1.38,7.74Z"/><path class="cls-12" d="M77.12,106.32l1.1,4.34C76.13,109.65,75.85,108.18,77.12,106.32Z"/><path class="cls-12" d="M84.22,116.63c1.06-.09,2.14-.25,2.91.76C86,117.66,84.93,117.9,84.22,116.63Z"/><path class="cls-12" d="M81.22,114.63c1-.17,1.72,0,2,1.05C82.18,116.1,81.64,115.49,81.22,114.63Z"/><path class="cls-12" d="M78.2,110.62c1.06.31,1.2,1.1,1,2C78.38,112.24,77.78,111.69,78.2,110.62Z"/><path class="cls-12" d="M79.21,112.62a.93.93,0,0,1,1,1C79.91,113.31,79.56,113,79.21,112.62Z"/><path class="cls-12" d="M80.22,113.62a.92.92,0,0,1,1,1Z"/><path class="cls-12" d="M83.2,115.64a1,1,0,0,1,1,1C83.59,116.64,83,116.55,83.2,115.64Z"/><path class="cls-11" d="M84.16,200.59c-1.94.66-4.28.13-5.8,2-3.5-3.41-7.07-4.21-10.78-.31.5-19.23,1.1-38.46,1.43-57.69.08-4.88,4.61-1.92,6.08-4.06,3.17-3,4.85-6.39,2.24-10.64l65.69,0c-1.84,3.29-1.78,6.6.64,9.47,1.72,2.05,4,1.52,6.18.33a5.58,5.58,0,0,1,1.45,3.58q.36,29.16.8,58.3c-4.87-2.91-7-2.47-10.67,2.26l-7.15-3.11c-6.39-3-13.44-3.4-20.17-5.08-.11-1.58-.23-3.17-.34-4.76,1-.23,2.29-.43,2.26-1.54-.16-7,4.3-6.87,9.45-6.93,4.34-.06,9.16-.63,9.91-6.62,4.54-4,5.3-9.17,4.8-14.87-.31-3.46-.1-7-.12-10.46,0-5.69-8.76-14.45-14.45-14.39-9.64.09-19.27.29-28.9.39a8,8,0,0,0-5,1.67c-8.19,6-11.09,14-9.06,23.86-.41,3.26,2,3.4,4.13,3.52,2.81.17,5.63.07,8.44,0,3.52,0,5.85-1.8,5.91-5.28s1.79-4.08,4.39-3.48c5.58,1.3,11.19.64,16.8.69,1.89,5.89,1.64,6.28-4,6.47-3.48.12-7,.2-10.45.41-5.17.31-10.86,6.43-10.73,11.5.12,4.15.31,8.29.46,12.44l.84,2.56c-1.64,1.59-1,3.7-1.27,5.6A20.6,20.6,0,0,0,84.16,200.59Z"/><path class="cls-2" d="M77.33,129.89c2.61,4.25.93,7.6-2.24,10.64-2.45-.25-5.24,1-6.94-2.17s-2-6.36.31-8.68C71,127.07,74.4,127.92,77.33,129.89Zm-4.8,1.82c-1.76,0-2.2,1.11-2.14,2.64a1.82,1.82,0,0,0,2.2,2,2.38,2.38,0,0,0,2.52-2.47C75.17,132.1,74.06,131.64,72.53,131.71Z"/><path class="cls-2" d="M149.84,139.64c-2.14,1.19-4.46,1.72-6.18-.33-2.42-2.87-2.48-6.18-.64-9.47,2.63-2.63,6.4-.63,9.28-2.27-1.05,2.23,1.07,4,.93,6.07A7.88,7.88,0,0,1,149.84,139.64Zm-2.19-7.9c-1.67-.09-2.33.8-2.31,2.37,0,1.3.42,2.23,1.91,2.24s2.62-.49,2.74-2.1S149.14,131.91,147.65,131.74Z"/><path class="cls-2" d="M67.58,202.28c3.71-3.9,7.28-3.1,10.78.31,0,2.28,0,4.55-.08,6.83-3.67,1.94-7.34,2.21-11,0-.08-.33-.15-.67-.23-1C67.24,206.4,66.65,204.27,67.58,202.28Zm5.21.63a2.4,2.4,0,0,0-2.37,2.55c0,1.41.7,2,2.08,2.06s2.65-.18,2.61-2A2.4,2.4,0,0,0,72.79,202.91Z"/><path class="cls-9" d="M112.38,222.49c3.22,3.14,1.24,6.13-1,8.08-4,3.39-8.23,6.72-14.06,6,.26-2.84,3-2.73,4.66-3.77C106.24,230.18,111.18,228.24,112.38,222.49Z"/><path class="cls-2" d="M141.42,203.78c3.72-4.73,5.8-5.17,10.67-2.26,1.23,1.51,1.25,3.33,1.35,5.14-.05.68-.09,1.36-.14,2-2.37,3.17-6.24,1.54-9.19,2.86C142.13,209.34,141.77,206.56,141.42,203.78Zm8.55,1.55c-.46-1-1.15-2.23-2.62-2.21-1.66,0-2.06,1.32-1.95,2.76s1.29,1.64,2.48,1.64S150.11,207.12,150,205.33Z"/><path class="cls-11" d="M83.18,205.73c-.2-2,2.16-3,2.21-4.9l4.4-.83a92,92,0,0,1,38.49.63,1.94,1.94,0,0,0,2.08.82l.09,0c.11,1.34,2.51,1.24,1.91,2.84-.15.4-1.44.37-2.21.53-7.89-2-15.91-2.51-24-2.57C98.22,202.16,90.81,204.47,83.18,205.73Z"/><path class="cls-2" d="M128.28,200.63A92,92,0,0,0,89.79,200l-4.4.83-1.23-.24a20.6,20.6,0,0,1,13-4.17c1.27.39,2.17-.42,3.15-1h10.82l3,.15c6.73,1.68,13.78,2,20.17,5.08-1,1.55-2.53.58-3.82.76l-.09,0A2.16,2.16,0,0,0,128.28,200.63Z"/><path class="cls-2" d="M83.18,205.73c7.63-1.26,15-3.57,22.93-3.5,8.13.06,16.15.57,24,2.57l2,1.65c-2.16.49-4.25,0-6.38-.34-12.17-1.69-24.33-2.27-36.43.58-2.08-.22-4.09.5-6.08.6C80.42,207.44,82.94,206.31,83.18,205.73Z"/><path class="cls-11" d="M89.35,206.69c12.1-2.85,24.26-2.27,36.43-.58,2.13.3,4.22.83,6.38.34a3.27,3.27,0,0,1,3.11,2.15l0,0c-9.75-.44-19.39-2-29.19-2.07-5.67,0-11.18,1.49-16.83,1.07l0,0A7.07,7.07,0,0,1,89.35,206.69Z"/><path class="cls-11" d="M67.27,209.45c3.67,2.18,7.34,1.91,11,0C74.73,214,70.94,214,67.27,209.45Z"/><path class="cls-11" d="M144.11,211.55c2.95-1.32,6.82.31,9.19-2.86C151.56,213.88,148,213.3,144.11,211.55Z"/><path class="cls-11" d="M89.27,207.58l-.39.42c0-.08,0-.2.07-.24a1.19,1.19,0,0,1,.34-.16Z"/><path class="cls-11" d="M135.27,208.6l.41.23-.39-.25Z"/><path class="cls-3" d="M112.24,218.64c1.94-3.78,5.29-2.53,8.34-2.34,2.67,6,1.68,11.69-1.43,17.22l-6.17,0C118.23,226.07,118.08,223,112.24,218.64Z"/><path class="cls-3" d="M99.31,221.82c.4-5.23,4.14-5.39,8-5.28,1.29,1.33,1,2.2-.74,2.76C104.17,220.11,101.75,221,99.31,221.82Z"/><path class="cls-9" d="M113,233.55l6.17,0c-1.33,3.26-3.81,3.8-6.66,2.42C110.64,235.05,111.12,234,113,233.55Z"/><path class="cls-9" d="M123.15,234.67a5.58,5.58,0,0,1,5.13,1.9C125.71,238.26,124.16,237.2,123.15,234.67Z"/><path class="cls-11" d="M208.26,69.26c-2.77.26-5.56.87-8.24-.49.39-9.13,1.13-18.26,1.06-27.39,0-5.31,1.66-7.81,7-7.47q-.18,15.3-.37,30.58C207.71,66.1,207.16,67.77,208.26,69.26Z"/><path class="cls-11" d="M218.23,34.44c8.52,1.78,13.07,10.83,9.53,19.27-2,4.83-5.24,8.72-10.32,10.71Q217.85,49.44,218.23,34.44Z"/><path class="cls-11" d="M184.43,58.48l-.39-3c1.63-6.87,4.81-12.65,11.31-16.09a256.52,256.52,0,0,1-1.24,27.72C189.3,66,186.86,62.24,184.43,58.48Z"/><path class="cls-11" d="M155.56,34.86c.55-7.08,1.14-14.14,1.65-21.22.14-2.11.3-4,3.07-4.13q-.41,11.69-.8,23.39A5.64,5.64,0,0,1,155.56,34.86Z"/><path class="cls-11" d="M170.61,7.86c3.09-.6,3.27,1.52,3.8,3.72s-1.68,4.27-.06,6.39c-1.23,1.4-1.21,3.59-3,4.65C168.9,17.81,171.2,12.76,170.61,7.86Z"/><path class="cls-11" d="M106.22,52.39l-4.13-1.85c-.59-4.73-1.28-9.46-1.72-14.2-.11-1.21-1.56-3.65,1.72-3.3C105.57,39,104.71,46,106.22,52.39Z"/><path class="cls-11" d="M117.62,50.06c-.11.53-.22,1.06-.32,1.58l0,0a1.67,1.67,0,0,0-2.17.92l-1.7.91q-.52-7.34-1-14.67C116.05,41.67,119.89,44.46,117.62,50.06Z"/><path class="cls-11" d="M100.27,72.91c-1.07-.92-2.19-1.79-2.5-3.27C99.8,69.81,100.49,71,100.27,72.91Z"/><path class="cls-5" d="M115.16,52.53a1.67,1.67,0,0,1,2.17-.92,2.1,2.1,0,0,1-.17.86Z"/><path class="cls-1" d="M97.58,188.26c-.15-4.15-.34-8.29-.46-12.44-.13-5.07,5.56-11.19,10.73-11.5,3.48-.21,7-.29,10.45-.41,5.65-.19,5.9-.58,4-6.47.76-2.28,1-3.8-2.47-3.61-5.78.31-11.59.18-17.38.07-2.34,0-4.32.67-4,3.08.7,5.87-2.61,6.08-6.89,5.59-3-.34-5.93-.43-8.9-.63-2-9.87.87-17.81,9.06-23.86a8,8,0,0,1,5-1.67c9.63-.1,19.26-.3,28.9-.39,5.69-.06,14.41,8.7,14.45,14.39,0,3.49-.19,7,.12,10.46.5,5.7-.26,10.85-4.8,14.87-3.19,3.37-7.17,4.3-11.65,3.88-1.64-.15-3.32.2-5,0-4.1-.49-6.38.64-5.56,5.31.31,1.76-.13,3.54-2.36,3.54C106.44,188.46,102,189.53,97.58,188.26Zm14.06-49v.23c-3.66,0-7.32,0-11,0-8.58.07-15,6.38-15.22,15.08-.07,2.36-1.07,5.36,3.27,4.84,3-.36,7.57,2.09,7.2-4.08-.22-3.82,1.63-4.83,5.16-4.63,4.48.25,9,0,13.48.05,14.2.27,11.64-2.66,11.78,12.68,0,2.62-1,3.5-3.55,3.51-4.49,0-9,.34-13.48.39a7,7,0,0,0-5.33,2.07c-3.1,3.08-5.38,11.29-3.36,15,1.61,3,4.79.72,7.22,1.15,1.61.29,2.62-.55,2.31-2.29-1.16-6.54,2.75-7,7.64-6.58a59.87,59.87,0,0,0,6,0c8.52-.09,13.28-4.94,13.21-13.46a57.44,57.44,0,0,1,0-8c.8-5.91-1.59-9.88-6.1-13.58-3-2.47-6-2.42-9.24-2.38S115,139.28,111.64,139.28Z"/><path class="cls-7" d="M82.64,161.94c3,.2,6,.29,8.9.63,4.28.49,7.59.28,6.89-5.59-.29-2.41,1.69-3.12,4-3.08,5.79.11,11.6.24,17.38-.07,3.44-.19,3.23,1.33,2.47,3.61-5.61-.05-11.22.61-16.8-.69-2.6-.6-4.33.09-4.39,3.48s-2.39,5.27-5.91,5.28c-2.81,0-5.63.12-8.44,0C84.63,165.34,82.23,165.2,82.64,161.94Z"/><path class="cls-12" d="M97.58,188.26c4.41,1.27,8.86.2,13.28.21,2.23,0,2.67-1.78,2.36-3.54-.82-4.67,1.46-5.8,5.56-5.31,1.63.2,3.31-.15,5,0,4.48.42,8.46-.51,11.65-3.88-.75,6-5.57,6.56-9.91,6.62-5.15.06-9.61-.05-9.45,6.93,0,1.11-1.3,1.31-2.26,1.54a95.81,95.81,0,0,0-15.34,0Z"/><path class="cls-1" d="M98.42,190.82a95.81,95.81,0,0,1,15.34,0c.11,1.59.23,3.18.34,4.76l-3-.15c-2-2.72-8-2.71-10.82,0-1,.55-1.88,1.36-3.15,1C97.41,194.52,96.78,192.41,98.42,190.82Z"/><path class="cls-12" d="M72.53,131.71c1.53-.07,2.64.39,2.58,2.17a2.38,2.38,0,0,1-2.52,2.47,1.82,1.82,0,0,1-2.2-2C70.33,132.82,70.77,131.74,72.53,131.71Z"/><path class="cls-12" d="M147.65,131.73c1.49.18,2.45.94,2.34,2.52s-1.29,2.11-2.74,2.1-1.9-.94-1.91-2.24C145.32,132.54,146,131.65,147.65,131.73Z"/><path class="cls-12" d="M72.79,202.91a2.4,2.4,0,0,1,2.32,2.6c0,1.83-1.19,2-2.61,2s-2.13-.65-2.08-2.06A2.4,2.4,0,0,1,72.79,202.91Z"/><path class="cls-12" d="M150,205.33c.14,1.79-.79,2.19-2.09,2.19s-2.36-.07-2.48-1.64.29-2.73,1.95-2.76C148.82,203.1,149.51,204.32,150,205.33Z"/><path class="cls-7" d="M128.28,200.63a2.16,2.16,0,0,1,2.08.82A1.94,1.94,0,0,1,128.28,200.63Z"/><path class="cls-10" d="M100.3,195.45c2.79-2.72,8.82-2.73,10.82,0Z"/><path class="cls-3" d="M111.64,139.28c3.33,0,6.66,0,10,0s6.23-.09,9.24,2.38c4.51,3.7,6.9,7.67,6.1,13.58a57.44,57.44,0,0,0,0,8c.07,8.52-4.69,13.37-13.21,13.46a59.87,59.87,0,0,1-6,0c-4.89-.44-8.8,0-7.64,6.58.31,1.74-.7,2.58-2.31,2.29-2.43-.43-5.61,1.8-7.22-1.15-2-3.7.26-11.91,3.36-15a7,7,0,0,1,5.33-2.07c4.5-.05,9-.38,13.48-.39,2.52,0,3.58-.89,3.55-3.51-.14-15.34,2.42-12.41-11.78-12.68-4.49-.08-9,.2-13.48-.05-3.53-.2-5.38.81-5.16,4.63.37,6.17-4.19,3.72-7.2,4.08-4.34.52-3.34-2.48-3.27-4.84.27-8.7,6.64-15,15.22-15.08,3.67,0,7.33,0,11,0Z"/></g></g></svg>