<svg xmlns="http://www.w3.org/2000/svg" viewBox="0 0 64.77 69.23"><defs><style>.cls-1{fill:#dbd1d2;}.cls-2{fill:#fff;}</style></defs><title>Asset 2</title><g id="Layer_2" data-name="Layer 2"><g id="Layer_1-2" data-name="Layer 1"><path class="cls-1" d="M54.45,63.81l-2.32-1.14c10.36-21,9.37-31.27,9.36-31.37v-.14A27.86,27.86,0,0,0,33.62,3.29H31.16A27.86,27.86,0,0,0,3.29,31.16v.14a29.74,29.74,0,0,0,.78,7.75c1.72,8.61,5.62,17.6,8.58,23.62l-2.31,1.14C0,42.87.61,32.19.71,31.09A30.45,30.45,0,0,1,31.16.71h2.46A30.44,30.44,0,0,1,64.06,31.09C64.16,32.19,64.77,42.87,54.45,63.81Z"/><path class="cls-2" d="M8.4,50.36a2.62,2.62,0,0,0-1,3.31l5.43,11.87A2.59,2.59,0,0,0,16,66.94L8.45,50.47Z"/><path class="cls-1" d="M22.7,64.06,15.09,47.43A3.65,3.65,0,0,0,8.4,50.36l0,.11L16,66.94l.07.16a3.66,3.66,0,0,0,6.65-3Z"/><path class="cls-2" d="M56.33,50.36a2.61,2.61,0,0,1,1,3.31L51.92,65.54a2.6,2.6,0,0,1-3.16,1.4l7.53-16.47A.49.49,0,0,0,56.33,50.36Z"/><path class="cls-1" d="M42,64.06l7.6-16.63a3.65,3.65,0,0,1,6.69,2.93.49.49,0,0,1,0,.11L48.76,66.94l-.07.16a3.66,3.66,0,0,1-6.65-3Z"/><path class="cls-2" d="M64.77,31.16h-4A27.18,27.18,0,0,0,33.62,4H31.16A27.19,27.19,0,0,0,4,31.16H0A31.17,31.17,0,0,1,31.16,0h2.46A31.15,31.15,0,0,1,64.77,31.16Z"/></g></g></svg>