<svg xmlns="http://www.w3.org/2000/svg" width="36.376" height="56.4" viewBox="0 0 36.376 56.4">
  <g id="Group_186" data-name="Group 186" transform="translate(-523.439 -156.176)">
    <path id="Path_1149" data-name="Path 1149" d="M542.063,156.176c.884.11,1.772.2,2.652.334a16.936,16.936,0,0,1,11.729,6.949,18.182,18.182,0,0,1,3.19,8.367,17.317,17.317,0,0,1-.333,6.755,14.717,14.717,0,0,1-7.148,9.083,22.756,22.756,0,0,1-7.307,2.715c-.511.1-.673.3-.681.811a11.864,11.864,0,0,1-.264,3.076,4.914,4.914,0,0,1-5,3.461,5.069,5.069,0,0,1-4.964-3.97,6.816,6.816,0,0,1-.114-1.279q-.017-3.029,0-6.059a4.981,4.981,0,0,1,2.082-4.244,5.883,5.883,0,0,1,2.9-1.007,14.968,14.968,0,0,0,8.268-3.317,6.033,6.033,0,0,0,.606-9.06,8.707,8.707,0,0,0-4.53-2.4,8.445,8.445,0,0,0-6.217.752,6.456,6.456,0,0,0-2.864,2.986,4.132,4.132,0,0,0-.3,1.241,5.122,5.122,0,0,1-6.965,4.4,4.529,4.529,0,0,1-3.3-3.959,11.635,11.635,0,0,1,2.221-7.962,17.467,17.467,0,0,1,12.563-7.465c.55-.077,1.1-.142,1.652-.213Z" fill="#fff"/>
    <path id="Path_1150" data-name="Path 1150" d="M552.966,245.214a5.524,5.524,0,1,1-5.539-5.538A5.565,5.565,0,0,1,552.966,245.214Z" transform="translate(-8.369 -38.161)" fill="#fff"/>
  </g>
</svg>
