<svg xmlns="http://www.w3.org/2000/svg" viewBox="0 0 39.37832 39.37832"><defs><style>.cls-1{fill:#8c8c8c;}</style></defs><title>Asset 4</title><g id="Layer_2" data-name="Layer 2"><g id="Layer_1-2" data-name="Layer 1"><path class="cls-1" d="M19.68916,39.37832A19.68916,19.68916,0,1,1,39.37832,19.68916,19.71134,19.71134,0,0,1,19.68916,39.37832Zm0-37.61717a17.928,17.928,0,1,0,17.928,17.928A17.94845,17.94845,0,0,0,19.68916,1.76115Z"/><path class="cls-1" d="M28.79248,20.96738v6.52349h-3.7819v-6.086c0-1.52838-.54609-2.57191-1.91543-2.57191a2.0689,2.0689,0,0,0-1.94,1.38308,2.58983,2.58983,0,0,0-.12526.92184v6.353H17.24745s.05077-10.308,0-11.37521h3.78244v1.6119c-.00758.0129-.01836.02509-.0251.03729h.0251v-.03729a3.75541,3.75541,0,0,1,3.40854-1.87907c2.48851,0,4.35405,1.62572,4.35405,5.11889ZM11.37523,27.49087h3.781V16.11566h-3.781ZM15.26906,12.256A1.94692,1.94692,0,1,1,13.32215,10.309,1.94686,1.94686,0,0,1,15.26906,12.256Z"/></g></g></svg>