<svg xmlns="http://www.w3.org/2000/svg" width="686.684" height="658.706" viewBox="0 0 686.684 658.706">
  <g id="Group_184" data-name="Group 184" transform="translate(-419.005 560.036)">
    <path id="Path_497" data-name="Path 497" d="M649.549,58.12c-7.522-.711-6-4.991-4.636-10.193,4.641-17.712,11.764-34.509,18.3-50.869-14.975-11.078-31.287-2.774-46.853-4.24-5.771-.544-3.413,3.909-3.568,6.587-.913,15.742-6.813,21.976-22.818,22.9-15.969.921-32.014,1.438-44.763-11-1.986-1.937-4.271-1.257-6.644-1.293-18.742-.267-29.684-11.478-28.551-30.123.525-8.652,2.786-17.2,4.417-26.727-20.321,2.821-40.726,4.283-61.09-.153a90.182,90.182,0,0,1-22.324-8.08c-7.961-4.116-13.531-10.567-11.643-20.095,1.934-9.754,9.675-13.322,18.762-13.145,36.249.7,72.167-4.228,108.267-5.852,28.957-1.3,57.584-7.682,86.737-5.461,3.632.277,6.542-1.116,7.7-4.171,1.278-3.365-2.483-4.553-4.4-6.224-24.049-20.979-31.062-46.328-22.532-77.295,7.028-25.511,17.8-49.221,29.961-72.423,8.24-15.726,14.1-33.032,22.439-47.94,15.95-28.5,26.316-61.631,54.546-82.131,5.49-3.988,7.5-5.786.863-11.6-10.739-9.411-7.467-25.165,6.26-35.41,12.377-9.239,26.689-14.135,41.821-15.983,7.193-.878,9.589-3.4,10.515-10.72,5.308-42.112,24.952-74.836,66.305-89.586s79.835-4.856,115.214,19.377c43.1,29.524,66.375,72.671,82.151,120.77a268.576,268.576,0,0,1,7.665,29.989c4.484,21.971,11.8,40.4,31.265,55.765,29.775,23.51,29.546,56.859,4.054,85.577-3.6,4.052-4.109,7.8-4.116,12.752-.043,27.5-21.518,58.894-46.967,69.32-10.255,4.2-21.254,6.027-31.475,2.347-12.127-4.369-14.335,2.924-16.851,11.17-1.469,4.813-.3,9.508,1.44,13.985,4.026,10.355.914,18.89-7.066,25.608-8.28,6.973-17.791,8.345-27.814,3.646-3.15-1.476-5.683-4.262-9.778-3.494-4.188.785-6.852,1.545-3.892,6.718,15.947,27.893,10.221,55.354-5.986,79.868-18.037,27.273-27.042,57.138-33.567,88.325C899.685,74.387,898.35,79.55,891.4,80.5c5.266-25.472,11.075-50.8,20.412-75.168,3.708-6.05,8.569-11.547,9.117-19.909C903.126,11,878.982,21.274,848.781,17.6l-7.591-2.735c-16.782-4.86-27.616-15.382-31.213-32.791-1.242-4-4.474-2.8-7.252-2.776-14.206-1.431-28.06,3.165-42.221,2.459-3.193-.31-6.32-.46-7.865,3.232q-4.554-.544-9.105-1.092c-3.995-3.5-7.989-3.577-11.981.007-13.007,0-26.014.029-39.023-.012-14.924-.045-19.2,3.479-22.813,18.945-2.852,1.772-2.564,4.584-2.423,7.345q-1.406,2.314-2.81,4.631c-2.676,1.615-1.812,4.376-2.185,6.737C654.658,32.559,652.49,45.473,649.549,58.12ZM636.166-120.953l-.174-.16,2.549,2.549-.172-.091c1.135,1.82,2.106,3.968,4.91,2.471l-.122-.062c1.863,7.631,7.417,9.234,14.264,8.729,9.239.374,14.972,10.462,23.4,10.255,22.01-.539,46.366,7.259,63.47-15.1,2.519-3.291,7.148-4.889,10.493-7.641,5.616-4.615,17.366-6.551,16.434-13.028-1.259-8.76-13.346-6.525-20.531-9.585-9.7-8.175-22.513-8.6-33.626-13.312-8.8-3.73-18.683-5.278-17.417-18.294.05-.532-2.506-1.316-3.849-1.982l-2.981-2.154,8.669-30.95c6.813-16.489,6.8-16.465-8.45-22.868a48.42,48.42,0,0,1-13.6-9.141c-8.507-7.662-11.819-18.306-17.049-27.855-3.732-4.665-5.132-.367-6.406,1.953-14.3,26.042-28.239,52.328-35.121,81.48-2.538,10.749-6.906,21.845-1.557,33.149-.327,3.656.42,6.973,3.06,9.692-.837,8.9,6.5,13.319,10.7,19.463ZM744.847-172.67l.1.322a1.956,1.956,0,0,0,2.213,2.132l.06.949.665.582a11.236,11.236,0,0,0,6.992,5.3l.382-.467-.467.379,4.178,3.026.339.205,2.838,1.672-.188-.145,8.965,5.254.079-.055,3.186,4.307c3.029,2.289,1.059,6.327,3.128,8.953a7.729,7.729,0,0,0,4.021,5.311l-.222-.344,2.657,2.879-.406-.363,2.929,2.59-.329-.234,4.5,3.308-.15-.494,3.174,2.154-.269-.26c5.394,5.256,12.473,5.261,19.257,6.174,5.149,1.564,10.737,1.538,14.913-1.262,11.6-7.777,24.149-4.66,36.5-4.512,2.747.033,5.5-.088,8.245-.136,36.757,2.139,70-7.288,97.411-32.307,9.036-8.249,15.187-19.577,29.131-8.621.47.37,1.536-.019,2.325-.055,15.227,10.288,28.971,2.411,41.5-4.982,17.574-10.372,28.192-26.374,30.19-47.284,6.637-10.474,3.408-19.57-4.605-27.3-11.855-11.438-30.843-11.831-45.9-1.536L1019-245.277c-5.588,2.263-7.724,7.512-10.925,12.015-3.091,4.348-4.03,10.24-9.6,12.931-8.986,4.34-17.333,6.554-26.787.117-10.259-6.988-5.3-15.64-3.98-24.724-9.987,1.328-20.223,2.175-26.119-7.021-6.689-10.434-2.03-20.2,3.947-29.829,6.4-10.312,15.807-18.4,20.577-30,2.411-5.869,1.25-7.937-4.147-8.891a96.008,96.008,0,0,1-23.245-6.685c-.985-.448-1.414-.7-2.223,1.536v8.671c-25.353-23.381-50.48-45.891-85.139-53.041,1.331-5.3,7.715-3.925,10.186-9.5-16.994-7.4-33.206-15.954-54.379-15.864,5,3.852,8.581,6.112,11.557,9,8.569,8.311,16.963,18.575,11.03,30.237-5.893,11.581-5.23,26.522-17.192,35.009-4.207,1.014-7.422-.558-10.729-3.205-6.232-4.984-13.57-8.058-21.225-10.147-33.285-9.081-64.235,15.821-60.644,48.7l.1,2.64c-.389,1.936-.372,3.787,1.152,5.309l-.024.124c-.353,9.47,7.527,15.084,10.729,22.89-.828,26.248-.828,26.362,24.488,26.565,4.336.033,7.128.959,9.973,4.605,12.082,15.5,29.872,19.968,47.3,11.266,6.575-3.286,11.278-2.549,17.5.463,18.547,8.974,39.555,6.224,48.992-7.159,5.113-7.25,10.572-9.194,18.792-9.129,14.893.114,21.354-5.349,24.182-19.222-33.008,7.97-65.454,3.16-97.864-2.473-4.987-.866-11.19-1.011-7.4-9.117,3.761,1.192,7.455,2.738,11.545,2.113,34.115,7.476,68.276,8.681,102.51.792.682,9.213-1.164,17.66-7.684,24.592-2.258,2.4-3.935,4.786-2,8.142-.994,23.264-6.191,44.916-23.646,61.91-.41.4-.121,1.519-.157,2.3a8.639,8.639,0,0,0-7.557,4.536l.172-.215q-2.747,1.821-5.492,3.639l-.555.2c-11.235,6.432-23.417,8.635-36.259,9.322-25.363,1.359-49.168-3.918-71.9-14.843q-2.2-1.474-4.39-2.952c-12.434-12.749-18.912-29.012-26.35-44.709,1.894-6.057,3.327-12.752-3.634-15.924-5.867-2.673-11.357-5.354-15.659-10.164-1.786-2-3.487-2.621-6.084-1.023-2.313,1.424-3.577,2.957-2.993,5.669.663,3.067,1.383,6.122,2.077,9.182.207,1.91-.9,4.367,2.122,5.111l-.351-.069c.854,15.4,9.871,26.364,19.973,36.736l.933.184A1.958,1.958,0,0,0,744.847-172.67ZM1074.9-316.679l-6.969-.191.262-.031c-16.053-24.929-21.822-53.649-28.659-81.666-13.994-57.36-40.867-105.538-92.882-136.456-57.482-34.165-137.056-21.423-157.511,58.076l-2.655,21.886q-.222,3.2-.439,6.406c-7.736,2.523-16.7-.191-23.686,5.535-7.467,1.271-15.411,1.147-21.242,7.231-4.233.789-7.433,3.129-12.434,7.271,17.1-.308,31.673-1.3,46.158,1.025,42.45,6.825,76.582,29.829,107.191,57.8,25.532,23.328,55.032,36.483,88.015,43.709,1.793,2.382,4.483,2.177,7.016,2.437,21.354,13.365,40.816,29.028,55.562,49.6,12.215,17.044,35.267,14.2,48.9,28.139l.677-.98c1.994-1.257,3.763-2.619,2.5-5.387l-.062.122c14.579-11.583,17.657-34.389,7.109-52.612l-4.467-7.364c-3.737-8.3-10.488-13.443-18.263-18.5C1067.876-323.852,1075.774-322.29,1074.9-316.679ZM789.265-103.961c11.817-.413,23.643-.778,34.473-6.313-12.022.162-25.761-9.823-35.145,5.638l-.835,1.369Zm-47.575,4.9c10.884-.971,22.01.522,32.62-3.222,6.573-4.09,11.66-9.63,16.594-15.549-13.949-9.768-19.751-8.91-28.36,3.5-9.959.715-15.766,7.66-21.673,14.455l-.785.835c.224.207.487.613.663.577A3.053,3.053,0,0,0,741.69-99.058ZM678.985-317.6c-9.62,11.421-12.167,24.554-9.439,38.966,1.347,18.728,10.085,32.615,27.137,40.84,8.075,3.894,16.036,4.65,22.976-2.585,5.511-1.044,6.742-4.615,5.635-9.561-10.741-18.614-17.846-37.862-10.405-59.649,9.783-16.93,22.243-30.421,42.882-33.423,16.245-.479,31.78,2.1,45.543,11.347,3.453,2.32,6.408,2.564,9.585.141,3.048-2.325,4.347-5.306,3.4-9.253a48.186,48.186,0,0,1-.689-6.847c1.462.119,2.027-.6,1.858-2,9.229-9.337,9.466-18.993.084-28.8-12.95-13.541-28.947-20.133-47.761-19.656-19.6-2.557-35.37,5.49-49.624,17.855-17.331,15.036-26.45,35.122-34.559,55.85C682.162-323.33,679.751-321.272,678.985-317.6ZM645.016-97.686c-2.671.634-3.692,2.611-4.128,5.065a226.087,226.087,0,0,0-41.5.527c-16.93,1.91-33.9,3.6-50.895,4.734-35.975,2.409-71.836,6.825-108.009,6.062-6.453-.138-14.373-.272-13.842,10.1,3.138,11.018,12.73,13.52,21.909,16.121,18.969,5.375,38.226,4.328,57.556,2.154,5.919-.668,11.676-4.343,17.886-1.424l-.9,5.922c-4.35,9.408-5.836,19.548-6.17,29.667-.518,15.575,7.648,22.484,23.529,21.1l7.438.565c9.625,14.283,24.533,12.73,38.708,12.47,17.366-.317,20.607-4.579,18.015-21.721l1.312-8.881c14.323,3.2,28.308,1.347,42.133-2.836.265,1.915,1.359,2.609,3.213,2.182,6.22,6.363,12.776,4.917,19.2.556,12.881-8.736,19.6-33.352,13.465-48.748C683.953-89.456,665.435-105.449,645.016-97.686ZM983.884-162.2c-20.078,23.414-45.893,36.521-79,42.264l20.784,4.753c.484-10.417,4.581-2.964,7.131-1.321,6.864,4.429,11.051,3.952,11.2-5.418a4.448,4.448,0,0,1,3.711-4.541c.269,1.543.458,3.05.8,4.522,2.509,10.717,11.025,16.613,20.7,14.366,11.388-2.645,16.217-10.226,13.613-21.909-2.4-10.777-1.13-21.208,2.227-31.544.742-.706,1.817-1.419.377-2.359C985.25-163.508,984.416-162.625,983.884-162.2ZM873.938-173.868l-5.757.723c-6.515-3.072-13.109-5.807-20.579-4.765-16.775,2.325-30.884,8.793-39.665,25.372,8.874,1.715,16.923,4.483,25.012,4.6,21.34.3,42.767-.322,58.5-18.378,4.858-2.027,8.307-5.178,9.57-11.03C891.026-178.8,882.128-179.167,873.938-173.868ZM865-200.375c-13.188,1.221-26.123.7-38.169-5.678-4.758-2.518-8.976-.916-13.572.935-19.956,8.037-36.865,3.844-50.895-12.363-1.591-1.841-2.819-4.147-5.635-3.184-3.2,1.092-3.708,3.832-3.189,6.813,3.895,22.315,12.68,41.551,33.364,53.425,7.588,4.355,13.019,5.478,20.028-3.045,14.142-17.2,32.508-26.276,55.712-19.756,1.819.7,3.985,2.418,5.406,1.937A85.128,85.128,0,0,1,902.9-185.5c3.949.329,5.475-2.69,6.58-5.69a97.706,97.706,0,0,0,5.328-25.274c.21-2.354.555-7.434-3.143-5.779-7.97,3.565-18.144-.067-24.428,6.649C880.8-208.727,872.72-204.973,865-200.375Zm55.259,93.113c-15.3-9.043-31.678-6.136-47.465-2.983-36.984,7.383-74.061,13.732-111.7,16.684-22.942,1.8-45.839,4.13-68.891,4.028-4.276-.019-10.293-.835-4.576,6.444l6.425,21.378c-.324,11.43-1.18,22.778-5.335,33.6-3.9,10.226,4.984,4.784,7.007,4.844,38.167,1.121,76.16-1.891,114.081-5.8,29.131-3,58.157-6.759,86.15-15.986l6.7-.479c.491.558.975,1.121,1.448,1.7C882.653-29.8,857.478-30.024,833.575-25.314c-5.528,1.087-13.8-.9-15.742,5.177C815.457-12.679,820.539-5.622,825.774,0c2.368,2.545,5.666,4.367,8.8,6.031a57.552,57.552,0,0,0,66.251-9.175c16.723-15.838,28.811-34.835,37.921-55.767,7.066-16.238,2.635-32.076-11.43-43.447C925.4-104.621,923.4-106.765,920.259-107.261ZM994.2-275.717c-1.338,8.867-6.093,13.77-9.811,19.193-2.678,3.9-6.089,7.46-8.006,11.7-2.821,6.241-7.7,13.534.429,19.131,7.374,5.077,13.98,1.96,20.08-3.871,6.847-6.546,9.792-15.213,14.256-23.083.72-1.264-.119-9.5,5.828-1.9,2.313,2.957,9.549-3.692,13.7-6.585,3.236-2.256-1.436-6.146-3.358-8.788-11.993-16.5-27.266-29.6-43.69-41.47-3.37-2.435-7.221-5.3-9.849-.026-6.937,13.932-17.247,25.551-25.463,38.572-3.534,5.6-4.538,12.623.033,17.81,4.41,5,10.856,5.368,17.5,2.955,7.374-2.681,12.99-7.4,17.91-13.191C986.531-268.538,988.422-272.612,994.2-275.717ZM823.9-403.27c-28.611-16.207-56.621-19.785-85.348-18.12-5.161.3-14.812-.665-15.747,7.09-.825,6.835,7.174,9.4,12.551,12.694,3,1.841,5.216.575,7.753-.5,6.365-2.681,13.064-2.85,19.863-2.874C782.192-405.039,801.3-401.309,823.9-403.27Zm-69,250.436c-21.986-15.943-37.125-35.939-43.244-65.3-3.623,11.834-7.209,20.383-8.685,29.281-1.41,8.495,1.779,19.439,7.884,22.561A129.022,129.022,0,0,0,754.9-152.833ZM838.137-110.6c10.381-2.309,18.583-2.108,28.828-7.6C855.559-118.127,846.716-122.21,838.137-110.6Zm85.978,93.521-.525-.785c-.231.212-.62.408-.649.646s.305.518.479.778Z" transform="translate(0)" fill="#150f11"/>
    <path id="Path_498" data-name="Path 498" d="M659.367-248.92C613.679-245.781,569.8-252.974,528-271.974c3.267-10.186,6.771-20.3,9.713-30.581,1.944-6.794,4.946-8.469,11.9-5.764a379.407,379.407,0,0,0,63.885,18.459c4.259.847,9.7.551,12.508,3.088,13.019,11.76,28.637,17.414,45.174,21.409C660.014-265.072,662.367-255.073,659.367-248.92Z" transform="translate(150.941 346.88)" fill="#106bba"/>
    <path id="Path_499" data-name="Path 499" d="M612.018-299.14c30.2,3.673,54.346-6.6,72.151-32.174-.548,8.361-5.409,13.858-9.117,19.909-5.378.587-6.513,5.266-8.328,9.01-10.36,21.387-14.2,44.637-19.031,67.6-12.764,10.324-28.756,10.505-43.738,13.732-4.517.973-9.315.634-13.982.9,3.458-20.188,9.916-39.552,15.981-59.039,1.619-5.206,4.486-6.563,9.513-6.291,7.255.391,14.619.451,22.544-6.747-7.958,0-13.67-.093-19.377.026C613.783-292.117,611.024-293.772,612.018-299.14Z" transform="translate(236.762 316.742)" fill="#114896"/>
    <path id="Path_500" data-name="Path 500" d="M707.5-309.243c-.995,5.368,1.765,7.023,6.616,6.921,5.707-.119,11.418-.026,19.377-.026-7.925,7.2-15.289,7.138-22.544,6.747-5.027-.272-7.894,1.085-9.513,6.291-6.065,19.486-12.523,38.851-15.981,59.039a8.5,8.5,0,0,1-6.749.916q1.066-7.988,2.132-15.971c-16.536-3.995-32.155-9.649-45.174-21.409-2.811-2.538-8.249-2.242-12.508-3.088a379.407,379.407,0,0,1-63.885-18.459c-6.949-2.7-9.952-1.03-11.9,5.764-2.943,10.279-6.446,20.4-9.713,30.581q-2.937-1.2-5.871-2.392c2.2-7.474,4.219-15.01,6.623-22.42,5.3-16.327,5.356-16.26-10.56-24.063a63.058,63.058,0,0,1-6.835-4.481c.372-2.361-.491-5.123,2.185-6.737,4.753,2.657,9.339,5.681,14.283,7.913,27.178,12.279,55.731,20.393,84.614,27.44,17.765,4.336,36.006,5.127,54.117,6.639,4.748.4,12.027.472,12.134-6.12.076-4.824-6.382-2.619-9.871-2.936a463.2,463.2,0,0,1-124.572-28.542c-9.112-3.492-17.35-9.9-27.9-9.027-.141-2.762-.429-5.573,2.423-7.345,4.128-.167,7.66,1.653,11.311,3.236a426.819,426.819,0,0,0,137.61,34.42c5.693.446,13,3.394,16.8-4.61,4.145-8.728-4.362-10.445-8.142-14.786-1.032-1.188-2.056-2.382-3.081-3.575q.637-.6,1.247-1.223c5.216-.778,11.414,9.239,15.73-1.433Zm-53.213,44.565c5.931,6.065,12.563,9.787,20.615,9.983,3.387.081,7.927.847,8.714-3.9.959-5.769-4.863-4.469-7.364-4.844C669.034-264.521,661.627-264.354,654.291-264.678Z" transform="translate(141.277 326.845)" fill="#142846"/>
    <path id="Path_501" data-name="Path 501" d="M528.423-316.167a63.041,63.041,0,0,0,6.835,4.481c15.916,7.8,15.857,7.736,10.56,24.063-2.4,7.41-4.424,14.946-6.623,22.42-8.4-3.892-16.847-7.691-23.517-14.4C518.614-292.245,520.782-305.159,528.423-316.167Z" transform="translate(133.876 337.718)" fill="#106bba"/>
    <path id="Path_502" data-name="Path 502" d="M614.176-246.358c4.832-22.961,8.671-46.211,19.031-67.6,1.815-3.744,2.95-8.423,8.328-9.01-9.337,24.368-15.146,49.7-20.412,75.168C619.16-245.621,616.573-246.446,614.176-246.358Z" transform="translate(270.28 328.302)" fill="#106bba"/>
    <path id="Path_503" data-name="Path 503" d="M594.895-291.022q-1.066,7.984-2.132,15.971l-9.678.472C586.085-280.731,583.731-290.731,594.895-291.022Z" transform="translate(227.224 372.539)" fill="#114896"/>
    <path id="Path_504" data-name="Path 504" d="M637.1-416.829c11.962-8.488,11.3-23.429,17.192-35.009,5.933-11.662-2.461-21.926-11.03-30.237-2.976-2.883-6.556-5.144-11.557-9,21.173-.091,37.385,8.459,54.379,15.864-2.471,5.578-8.855,4.207-10.186,9.5,34.659,7.15,59.786,29.66,85.139,53.041v-8.671c.808-2.232,1.238-1.984,2.223-1.536a96,96,0,0,0,23.245,6.685c5.4.954,6.558,3.022,4.147,8.891-4.77,11.6-14.176,19.692-20.577,30-5.976,9.63-10.636,19.4-3.947,29.83,5.9,9.2,16.131,8.349,26.119,7.021-1.319,9.084-6.279,17.736,3.98,24.724,9.453,6.437,17.8,4.224,26.787-.117,5.568-2.69,6.508-8.583,9.6-12.931,3.2-4.5,5.337-9.752,10.927-12.015,6.6.05,10.321,6.031,16.078,7.818-5.549,4.832-13.512,6.294-17.674,13.2-2.568,4.264-3.608,7.228,2.8,8l2.509,2.015-.055-.1c.148,4.7-1.39,9.785,3.076,13.5-4.269,5.812-11.662,4.813-18.12,7.186,8.287,6.239,17.693,4.72,24.471-3.1,7.016-8.094,5.969-14.359-4.276-25.613,8.69-8.407,15.609-10.82,22.992-8.33,8.755,2.955,7.648,12.17,11.724,18.084,1.562,11.318-4.281,19.9-11.092,27.655-13.339,15.187-31.036,19.384-50.437,18.54-.789.036-1.856.425-2.326.055-13.944-10.956-20.094.372-29.131,8.621-27.409,25.019-60.654,34.447-97.409,32.305,1.295-.825,2.583-2.368,3.875-2.371,50.463-.127,77.586-32.071,98.794-72.189,2.695-5.1,3.5-8.354-4.057-9.847-6.735-1.333-12.287-7.636-11.662-13.546,1.469-13.863-7.834-15.79-16.987-19.315-4.424-1.705-7.123-3.029-8.135,3.408-1.107,7.035-5.64,12.091-11.707,15.726-1.937-3.355-.26-5.74,2-8.142,6.52-6.933,8.366-15.38,7.684-24.59-2.456-4.855-6.644-3.074-10.374-2.58a73.937,73.937,0,0,1-43.879-7.629l-1.908-3.541q4.339-3.245,8.674-6.492c9.408,9.12,21.261,11.924,33.729,12.337,7.846.26,13.839-4.054,16.61-11.264,3.019-7.856-2.592-12.492-8.077-16.67-2.49-1.9-5.211-3.489-7.827-5.218a25.873,25.873,0,0,0,.823-3.475c1.724-17.2-6.613-33.745-20.007-39.786-15.339-6.916-30.631-2.8-43.721,10.684-3.463,3.565-3.3,10.281-9.721,11.092-4.076-3.129-8.437-6.635-13.4-2.349s-10.565,8.376-7.157,16.882c2.678,6.689,2.332,14.378.47,21.02-2.683,9.575-.78,17.838,3.26,26.2-4.092.625-7.786-.921-11.547-2.111-1.731-3.112-4.424-5.957-6.554-1.216-3.282,7.3-9.608,10.515-15.99,13.05-22.36,8.888-43.793,7.436-63.422-7.634-3.2-7.806-11.082-13.419-10.729-22.89,4.674.363,7.677,3.651,11.266,6.108,24.471,16.746,54.317,18.225,74.419-6.895,6.94-8.674,11.609-18.647,8.621-30.45C643.647-409.813,634.955-412.017,637.1-416.829Z" transform="translate(175.468 95.503)" fill="#e4a089"/>
    <path id="Path_505" data-name="Path 505" d="M532.1-293.876c4.154-10.822,5.011-22.169,5.332-33.6,4.071.866,6.053,5.552,11.533,4.65,16.677-2.743,33.476-4.851,50.287-6.658,46.586-5.011,93.207-9.68,139.8-14.617,18.38-1.948,30.473-11.318,31.644-24.027,14.066,11.371,18.5,27.208,11.43,43.447-9.11,20.932-21.2,39.929-37.921,55.767a57.552,57.552,0,0,1-66.251,9.175c-3.134-1.665-6.432-3.487-8.8-6.031-5.235-5.619-10.317-12.675-7.941-20.133,1.939-6.081,10.214-4.09,15.742-5.177,23.9-4.71,49.077-4.486,70.524-18.53,1.018-.739,3.563-.777,2.349-2.638-.9-1.386-2.692-.205-3.792.949q-3.348.24-6.7.482c-1.4-1.731-3.165-2.046-5.283-1.55C667.6-296.792,599.823-295.65,532.1-293.876Z" transform="translate(156.619 265.764)" fill="#a70f10"/>
    <path id="Path_506" data-name="Path 506" d="M515.008-292.335c-4.2-6.141-11.533-10.555-10.7-19.46,3.153-2.1,6.737-1.874,10.31-2.168,9.649-.792,17.409-6.339,19.742-14.91,8.373-30.779,24.149-61.39,5.881-93.96-.913-1.629-.746-3.866-1.083-5.819.847-3.625,2.134-7,5.175-9.422,5.23,9.554,8.542,20.2,17.049,27.86a48.416,48.416,0,0,0,13.6,9.141c15.253,6.4,15.263,6.379,8.45,22.868-9.2,10.193-12.573,22.847-15.161,35.835l.045-.119L565.829-340l.122-.129-2.526,2.5.136-.1c-.975.625-4.133-1.2-2.563,2.282l-9.475,7.25-.544,1.016.546-1.014c9.573.913,16.446-4.808,23.677-9.644,2.845,4,2.225,10.047,8.065,12.363,16,6.336,31.511,14.254,49.373,13.958,7.186,3.06,19.272.825,20.531,9.585.932,6.477-10.818,8.414-16.434,13.028-3.346,2.752-7.975,4.35-10.493,7.641-17.1,22.363-41.46,14.564-63.47,15.1-8.426.208-14.159-9.88-23.4-10.255-2.9-5.933-8.762-7.04-14.264-8.728l.122.062c-.885-2.32-2.788-2.611-4.91-2.471l.169.091-2.547-2.549.174.16Z" transform="translate(118.045 168.895)" fill="#a70f10"/>
    <path id="Path_507" data-name="Path 507" d="M422.224-342.212c-.532-10.372,7.388-10.238,13.842-10.1,36.173.763,72.034-3.654,108.009-6.062,16.994-1.138,33.965-2.824,50.895-4.734a226.09,226.09,0,0,1,41.5-.527c8.092,4.464,14.988,10.45,21.516,16.9l-.093-.162c-.224,2.187-.331,4.317,2.545,4.891l-.043-.012c5.55,17.262-6.94,30.6-23.643,33.323-15.74,2.561-31.487,2.43-47.279,2.27-6.034-.062-12.532-.334-17.268,3.069-8.934,6.418-16.866,4.464-25.143-.458.25-3.668,2.33-7.267.09-12.241-3.057,3.611-5.676,6.706-8.3,9.8-10.61,1.548-15.089-6.286-20.173-13.191q.45-2.962.9-5.922c3.336-1.82-.007-3.942.265-5.4,1.636-8.793,1.91-8.764-6.99-8.764a96.661,96.661,0,0,0-10.62.236C475.41-336.326,448.557-332,422.224-342.212Z" transform="translate(4.422 271.014)" fill="#fdfdfe"/>
    <path id="Path_508" data-name="Path 508" d="M574.21-481.139c20.455-79.494,100.03-92.236,157.511-58.071,52.016,30.917,78.888,79.1,92.882,136.455,6.837,28.017,12.606,56.738,28.659,81.666-7.267.064-9.969-5.6-12.974-10.627-2.647-4.419-4.121-9.692-7.317-13.6-19.565-23.956-31.842-51.9-41.332-80.648-18.647-56.5-59.454-88.425-112.977-107.627-16.174-5.8-32.8-1.109-49.17-2.1-17.195-1.045-36.4,14.462-39.095,32.467-7.88,5.4-10.2,13.794-12.081,22.417Z" transform="translate(214.933 4.188)" fill="#f34f58"/>
    <path id="Path_509" data-name="Path 509" d="M581-515.119c2.692-18,21.9-33.5,39.092-32.458,16.37.994,33-3.7,49.171,2.1,53.523,19.2,94.33,51.126,112.977,107.628C791.728-409.1,804-381.153,823.57-357.2c3.2,3.911,4.67,9.184,7.317,13.6,3,5.025,5.707,10.691,12.974,10.627l-.262.031c3.463,5.521,7.474,9.458,14.4,4.994l4.956-.255q2.236,3.684,4.464,7.364c-1.343,10.3,5.841,21.208-2.187,31.041-16.727-3.243-27.943-15.644-37.437-27.359-23.479-28.971-40.893-62.182-55.018-96.533-10.183-24.769-15.447-51.691-34.5-72.029-10.247-10.939-18.678-25.005-36.6-24.812l.131-.258.1-3.692-1.71.859c-20.5-29.486-65.461-37.07-91.961-4.961-2.611.653-3.2,2.549-3.008,4.915l.079-.062c-5.356,1.285-10.722,2.542-16.071,3.864C584.612-508.718,581.323-509.567,581-515.119Z" transform="translate(224.335 16.067)" fill="#e71b2b"/>
    <path id="Path_510" data-name="Path 510" d="M717.907-407.029c6.067-3.634,10.6-8.69,11.707-15.726,1.011-6.437,3.711-5.113,8.135-3.408,9.153,3.525,18.456,5.452,16.987,19.315-.625,5.91,4.927,12.213,11.662,13.546,7.555,1.493,6.751,4.751,4.057,9.847-21.208,40.118-48.331,72.063-98.794,72.189-1.293,0-2.58,1.545-3.875,2.371-2.75.05-5.5.172-8.247.138-12.349-.148-24.9-3.265-36.5,4.512-4.176,2.8-9.764,2.826-14.91,1.262-4.951-6.637-12.616-4.813-19.26-6.174l.267.26a2.753,2.753,0,0,0-3.172-2.154l.15.489c.055-3.227-2.1-3.429-4.5-3.3l.327.234q-1.467-1.295-2.926-2.59l.4.36-2.654-2.876.222.343c.615-3.253-.7-5.042-4.021-5.311-2.07-2.626-.1-6.663-3.127-8.95.124-2.313-.074-4.391-3.188-4.31l-.079.053q.512-2.837,1.025-5.674l.522-.544q2.2,1.477,4.391,2.953c2.094,5.991,9.907,6.291,12.108,12.172a1.923,1.923,0,0,1-.093,1.781c.377,1.915.572,3.933,2.742,4.832l-.31-.529.522-.322c-.119,1.6-.021,2.828,1.8,1.025,11.058,5.919,22.315,9.544,34.449,2.964,16.31-1.123,33.018-.072,48.216-7.651,3.611-1.8,9.969-1.772,8.719-8.762l.565-.181c4.131,2.244,5.547.408,5.488-3.646l-.169.215c3.916.813,5.96-1.488,7.555-4.536.036-.785-.253-1.9.157-2.3C711.716-362.113,716.912-383.765,717.907-407.029Z" transform="translate(204.353 183.452)" fill="#f5d7b4"/>
    <path id="Path_511" data-name="Path 511" d="M695.606-299.929c-4.317,10.672-10.515.656-15.737,1.44q-1.667-.715-3.327-1.44l-.892-1.233c.031.229-.017.553.117.668a3.626,3.626,0,0,0,.894.436q.983,1.4,1.965,2.788c1.028,1.19,2.051,2.385,3.083,3.573,3.78,4.34,12.287,6.058,8.142,14.786-3.8,8-11.106,5.056-16.8,4.61a426.816,426.816,0,0,1-137.61-34.42c-3.651-1.584-7.183-3.4-11.311-3.236,3.613-15.466,7.889-18.99,22.813-18.945,13.009.041,26.016.012,39.023.012,4,3.3,7.989,3.439,11.982-.007q4.554.547,9.108,1.087c1.467,5.378,5.886,10.9,10.05,10.353,16.272-2.139,33.989-.272,47.287-13.262C667.99-315.311,678.824-304.789,695.606-299.929Z" transform="translate(145.584 314.795)" fill="#106bba"/>
    <path id="Path_512" data-name="Path 512" d="M771.325-365.241c-1.171,12.709-13.265,22.079-31.644,24.027-46.593,4.937-93.214,9.606-139.8,14.617-16.811,1.808-33.609,3.916-50.287,6.658-5.48.9-7.462-3.785-11.533-4.65q-3.209-10.692-6.415-21.378c3.3-.766,4.529-4.863,9.191-4.162,34.821,5.237,69.263-1.049,103.759-4.293,40.07-3.766,78.94-16.82,119.671-15.721C767.409-369.646,769.408-367.5,771.325-365.241Z" transform="translate(155.991 262.881)" fill="#de0716"/>
    <path id="Path_513" data-name="Path 513" d="M550.352-427.527c19.63,15.07,41.062,16.522,63.422,7.634,6.382-2.535,12.709-5.752,15.99-13.05,2.13-4.741,4.822-1.9,6.554,1.216-3.794,8.1,2.409,8.249,7.4,9.115,32.41,5.633,64.856,10.443,97.864,2.473-2.828,13.873-9.289,19.336-24.182,19.222-8.221-.064-13.679,1.879-18.792,9.129-9.437,13.384-30.445,16.133-48.992,7.159-6.224-3.012-10.927-3.749-17.5-.463-17.423,8.7-35.214,4.231-47.3-11.266-2.845-3.646-5.638-4.572-9.973-4.605C549.524-401.165,549.524-401.279,550.352-427.527Z" transform="translate(181.57 172.513)" fill="#6d311a"/>
    <path id="Path_514" data-name="Path 514" d="M477.7-316.758c8.287,4.92,16.219,6.873,25.153.456,4.736-3.4,11.235-3.131,17.269-3.069,15.792.16,31.54.291,47.279-2.27,16.7-2.719,29.193-16.062,23.643-33.323,3.611-.243,5.321,2.134,7.491,4.591,3,3.4,6.663,7.181,11.643,2.339,6.136,15.4-.584,40.013-13.465,48.748-6.429,4.362-12.985,5.807-19.2-.556,15.8-6.9,24.294-25.3,16.582-37.862-1.567,15.179-9.2,26.293-19.8,35.679-13.825,4.183-27.809,6.036-42.133,2.836-4.335-.4-8.666-.933-13.012-1.178-18.44-1.047-18.742-.742-20.04,18.361,11.957-11.929,11.957-11.929,21.983.906,3.008-3.732-1.82-8.089.179-11.729,4.266-1.195,6.418,2.313,9.577,2.521,2.592,17.142-.649,21.4-18.015,21.721-14.176.26-29.083,1.813-38.708-12.47C470.181-293.47,473.1-305.2,477.7-316.758Z" transform="translate(73.771 283.965)" fill="#cac7de"/>
    <path id="Path_515" data-name="Path 515" d="M530.915-418.148c8.106-20.727,17.226-40.812,34.556-55.848,14.254-12.365,30.02-20.412,49.624-17.855,6.129,9.6-5.213,12.537-7.257,19.019-8.473,1.359-17.323,1.44-27.189,8.056,13.248-.289,23.9-.985,34.127,2.43,4.715,8.943,2.526,15.487-6.742,19.67-2.535,1.145-4.657,2.793-4.958,5.891-20.638,3-33.1,16.493-42.882,33.423-9.809,4.643-19.589,15.955-29.481.124Q530.816-410.693,530.915-418.148Z" transform="translate(154.696 93.768)" fill="#fdfdfe"/>
    <path id="Path_516" data-name="Path 516" d="M637.967-451.091c-2.142,4.813,6.551,7.016,2.931,12.184-2.633.262-5.361-9.139-8.092,1.507-9.446,36.791-47.492,43.3-73.908,22.644-3.539-2.766-5.5-7.536-10.744-8.731-1.233,2.654-.078,5.976-2.785,7.746-3.591-32.882,27.359-57.784,60.644-48.7,7.655,2.089,14.993,5.163,21.225,10.147C630.545-451.649,633.76-450.078,637.967-451.091Z" transform="translate(174.598 129.765)" fill="#fbf2ee"/>
    <path id="Path_517" data-name="Path 517" d="M688.6-418.356c-5.774,3.105-7.665,7.178-10.441,10.443-4.92,5.786-10.536,10.51-17.91,13.19-6.639,2.413-13.086,2.049-17.5-2.955-4.572-5.187-3.568-12.206-.033-17.81,8.216-13.021,18.525-24.64,25.463-38.572,2.628-5.278,6.48-2.409,9.849.026,16.424,11.869,31.7,24.967,43.69,41.47,1.922,2.642,6.594,6.532,3.358,8.788-4.154,2.893-11.39,9.542-13.7,6.584-5.948-7.6-5.108.639-5.828,1.9-4.464,7.87-7.409,16.536-14.256,23.083-6.1,5.831-12.706,8.948-20.08,3.871-8.13-5.6-3.25-12.89-.429-19.131,1.917-4.238,5.328-7.794,8.006-11.7C682.5-404.586,687.257-409.489,688.6-418.356Zm-17.486-17.3a11.882,11.882,0,0,0-10.7,10.541c-.787,5.526,3.377,8.774,8.852,8.518,7.169-.332,10.233-5.716,10.81-11.855C680.468-432.639,677.642-435.8,671.11-435.656Zm33.748,26.975c-.286-4.431-1.571-8.614-5.969-7.548-7.095,1.724-8.571,8.712-10.066,14.71a4.836,4.836,0,0,0,5.342,6.181C701.738-396.485,703.233-403.058,704.857-408.681Z" transform="translate(305.601 142.64)" fill="#6d311a"/>
    <path id="Path_518" data-name="Path 518" d="M554.074-496.846c5.831-6.084,13.775-5.96,21.244-7.228,13.074,2.869,26.372,4.977,39.178,8.75,36.734,10.82,65.991,34.063,93.991,58.87,18.886,16.732,40.206,27.881,64.93,32.632l1.073.913-.947-1.042c-3.222-11.194-11.352-19.031-18.745-27.368-12.816-18.95-31.318-31.511-49.676-44.236-1.3-2.068-3.079-3.012-5.538-2.375l.05.012c-.036-2.526-2.123-2.724-3.82-3.356q-1.463-.933-2.921-1.879l-6.451-3.2c-27.464-14.09-56.421-22.563-87.445-23.259q.222-3.2.441-6.406a211.545,211.545,0,0,1,62.518,11.385l27.862,8.564c.372,3.663,2.953,5.347,5.941,6.73,25.325,11.709,45.014,30.676,63.127,51.057,13.851,15.585,26.271,32.6,31.134,53.678-2.533-.26-5.223-.055-7.016-2.437-1.908-5.921-6.184-8.4-12.12-9.866-18.537-4.581-36.493-11.044-51.87-22.634-14.168-10.677-27.318-22.7-41.358-33.552-29.155-22.544-60.329-39.924-98.6-42.181C570.844-495.759,562.059-492.368,554.074-496.846Z" transform="translate(187.048 60.957)" fill="#720b10"/>
    <path id="Path_519" data-name="Path 519" d="M668.487-380.163c-23.2-6.52-41.57,2.554-55.712,19.756-7.009,8.523-12.439,7.4-20.028,3.045-20.684-11.874-29.469-31.11-33.364-53.425-.52-2.981-.007-5.721,3.189-6.813,2.817-.964,4.045,1.343,5.635,3.184,14.03,16.207,30.938,20.4,50.895,12.363,4.6-1.851,8.814-3.453,13.572-.935,12.046,6.382,24.981,6.9,38.169,5.683C668.022-391.868,668.62-385.966,668.487-380.163Z" transform="translate(194.157 196.935)" fill="#6d311a"/>
    <path id="Path_520" data-name="Path 520" d="M711.194-396.188c-4.863-21.082-17.283-38.093-31.134-53.678-18.113-20.381-37.8-39.347-63.127-51.057-2.988-1.383-5.569-3.067-5.938-6.73l12.12.36c22.761,14.39,45.037,29.691,63.279,49.531,20.288,22.064,39.216,45.407,58.223,68.612,16.1,19.656,33.729,37.614,54.193,52.681,5.764,4.243,12.093,7.643,19.722,6.971l.239,4.8.062-.122c-2.7.93-2.771,3.079-2.5,5.387l-.677.98c-13.634-13.942-36.686-11.094-48.9-28.139C752.01-367.16,732.548-382.824,711.194-396.188Z" transform="translate(265.874 72.541)" fill="#a70f10"/>
    <path id="Path_521" data-name="Path 521" d="M540.941-434.124c.336,1.953.169,4.19,1.083,5.819,18.268,32.57,2.492,63.181-5.881,93.96-2.332,8.571-10.093,14.118-19.742,14.91-3.572.293-7.157.064-10.31,2.168-2.64-2.719-3.386-6.036-3.057-9.692C506.366-365.97,523.844-399.98,540.941-434.124Z" transform="translate(116.266 174.367)" fill="#de0716"/>
    <path id="Path_522" data-name="Path 522" d="M648.9-414.083q-4.336,3.248-8.674,6.492c-6.933-2.32-13.851-4.8-21.316-2.476,7.846,1.836,12.928,14.493,23.223,6.017a73.937,73.937,0,0,0,43.879,7.629c3.73-.494,7.918-2.275,10.374,2.58-34.234,7.887-68.395,6.682-102.507-.794-4.04-8.356-5.943-16.62-3.26-26.2,1.863-6.642,2.208-14.33-.47-21.02-3.408-8.507,2.206-12.606,7.157-16.882s9.327-.78,13.4,2.349c.785,4.15-6.84,8.142-.234,12.4q-1.127,4.822-2.256,9.644c-2.564,2.33-5.469,4.565-2.413,8.49a3.574,3.574,0,0,0-.425,1.1c-.012.324.222.935.391.952,10.51,1.023,21.01,2.325,31.547,2.762,2.847.119,7.007,3.9,9.122-1.531C650.3-420.622,647.421-416.721,648.9-414.083Z" transform="translate(235.558 137.532)" fill="#f5d7b4"/>
    <path id="Path_523" data-name="Path 523" d="M539.92-454.9c9.895,15.831,19.675,4.519,29.484-.124-7.441,21.788-.336,41.036,10.405,59.649-13.4,5.75-22.138-2.688-31.179-10.226q-1.148-1.241-2.294-2.487c-.658-.966-.734-3.313-2.44-2.125-1.214.844-.124,2.554,1.03,3.546q.941,1.391,1.875,2.79c5.428,11.619,14.171,18.22,27.373,18.063-6.94,7.236-14.9,6.48-22.975,2.585-17.052-8.225-25.79-22.112-27.137-40.84,5.29-1.858,9.461-4.855,10.861-10.672C542.465-440,535.074-448.966,539.92-454.9Z" transform="translate(145.485 145.428)" fill="#cac7de"/>
    <path id="Path_524" data-name="Path 524" d="M742.462-435.04c7.393,8.337,15.523,16.174,18.745,27.368l-.129.131c-24.721-4.753-46.041-15.9-64.927-32.634-28-24.807-57.258-48.05-93.991-58.87-12.806-3.773-26.1-5.881-39.178-8.75,6.988-5.728,15.948-3.014,23.681-5.537,31.022.7,59.979,9.17,87.442,23.259l-1.77,2.154c-23.223-8.087-46.1-17.574-71.466-17.793,24.619,7.1,46.7,19,67.131,34.1,5.578,4.97,11.221,9.869,16.72,14.924,13.949,12.816,28.26,24.726,48.317,26.762C738.031-429.419,741.692-428.887,742.462-435.04Z" transform="translate(199.384 64.677)" fill="#f34f58"/>
    <path id="Path_525" data-name="Path 525" d="M561.294-507.979c7.985,4.479,16.77,1.087,24.979,1.572,38.274,2.256,69.449,19.637,98.6,42.181,14.04,10.856,27.189,22.875,41.358,33.552,15.377,11.59,33.333,18.053,51.87,22.634,5.936,1.467,10.212,3.945,12.12,9.866-32.982-7.226-62.483-20.381-88.015-43.709-30.609-27.969-64.741-50.973-107.191-57.8-14.485-2.33-29.059-1.333-46.159-1.026C553.861-504.85,557.062-507.19,561.294-507.979Z" transform="translate(179.828 72.09)" fill="#a70f10"/>
    <path id="Path_526" data-name="Path 526" d="M524.747-320.887c10.546-.878,18.783,5.535,27.9,9.027a463.2,463.2,0,0,0,124.572,28.542c3.489.317,9.947-1.889,9.871,2.936-.107,6.592-7.386,6.515-12.134,6.12-18.11-1.512-36.352-2.3-54.117-6.639-28.883-7.047-57.436-15.16-84.614-27.44-4.944-2.232-9.53-5.256-14.283-7.913Q523.344-318.57,524.747-320.887Z" transform="translate(142.545 331.069)" fill="#106bba"/>
    <path id="Path_527" data-name="Path 527" d="M642.334-395.039l5.764-.725c4.882,4.734,12.711,2.623,17.5,7.55-15.73,18.056-37.158,18.678-58.5,18.377-8.089-.112-16.138-2.881-25.012-4.6,8.781-16.579,22.89-23.047,39.669-25.372,5.919,4.307,5.075,8.857.484,13.539-.494.513-1.486,1.367-1.4,1.491.887,1.309,1.843.766,2.731-.112Z" transform="translate(225.847 221.894)" fill="#e4a089"/>
    <path id="Path_528" data-name="Path 528" d="M702.92-392.035c-3.37,10.324-4.641,20.755-2.239,31.532,2.6,11.683-2.225,19.265-13.613,21.909-9.673,2.247-18.189-3.649-20.7-14.366-.346-1.472-.534-2.979-.8-4.522a4.448,4.448,0,0,0-3.711,4.541c-.146,9.37-4.333,9.847-11.2,5.418-2.549-1.643-6.647-9.1-7.131,1.321l-20.784-4.753c33.1-5.743,58.917-18.85,79-42.264C702.123-392.817,702.517-392.422,702.92-392.035Z" transform="translate(282.145 231.015)" fill="#6d311a"/>
    <path id="Path_529" data-name="Path 529" d="M545.2-429.585c2.707-1.77,1.553-5.092,2.785-7.746,5.247,1.195,7.2,5.965,10.744,8.731,26.417,20.653,64.462,14.147,73.908-22.644,2.731-10.646,5.459-1.245,8.092-1.507,2.991,11.8-1.679,21.778-8.619,30.452-20.1,25.119-49.948,23.641-74.419,6.895-3.589-2.456-6.592-5.745-11.266-6.108l.026-.124a3.759,3.759,0,0,0-1.154-5.309Z" transform="translate(174.763 143.609)" fill="#f5d7b4"/>
    <path id="Path_530" data-name="Path 530" d="M605.03-379.188c.133-5.8-.465-11.7,2.356-17.142,7.72-4.6,15.8-8.356,22.232-15.227,6.284-6.716,16.458-3.084,24.428-6.649,3.7-1.655,3.353,3.425,3.143,5.779a97.7,97.7,0,0,1-5.328,25.274c-1.1,3-2.63,6.019-6.58,5.69a85.127,85.127,0,0,0-34.845,4.212C609.015-376.77,606.85-378.489,605.03-379.188Z" transform="translate(257.614 195.96)" fill="#720b10"/>
    <path id="Path_531" data-name="Path 531" d="M765.631-366.658c-40.731-1.1-79.6,11.955-119.671,15.721-34.5,3.243-68.938,9.53-103.759,4.293-4.662-.7-5.888,3.4-9.191,4.162-5.723-7.281.294-6.465,4.57-6.446,23.052.1,45.949-2.23,68.891-4.028,37.635-2.952,74.712-9.3,111.7-16.684C733.953-372.794,750.33-375.7,765.631-366.658Z" transform="translate(154.628 259.397)" fill="#f34f58"/>
    <path id="Path_532" data-name="Path 532" d="M647.525-483.564c-22.6,1.96-41.713-1.77-60.928-1.705-6.8.024-13.5.193-19.863,2.874-2.538,1.071-4.748,2.337-7.753.5-5.378-3.293-13.376-5.86-12.551-12.694.935-7.756,10.586-6.79,15.747-7.09C590.9-503.348,618.914-499.771,647.525-483.564Z" transform="translate(176.38 80.294)" fill="#a70f10"/>
    <path id="Path_533" data-name="Path 533" d="M563.052-473.093c2.044-6.482,13.386-9.418,7.257-19.019,18.814-.477,34.811,6.115,47.761,19.656,9.382,9.809,9.146,19.465-.084,28.8-.119-6.785-5.886-8.912-10.183-12.127C594.522-465.717,578.353-468.309,563.052-473.093Z" transform="translate(199.481 94.03)" fill="#cac7de"/>
    <path id="Path_534" data-name="Path 534" d="M422.209-355.058c26.333,10.212,53.187,5.886,80.006,2.921a96.668,96.668,0,0,1,10.62-.236c8.9,0,8.626-.029,6.99,8.764-.272,1.46,3.072,3.582-.265,5.4-6.21-2.919-11.967.756-17.886,1.424-19.329,2.175-38.587,3.222-57.556-2.154C434.939-341.538,425.347-344.04,422.209-355.058Z" transform="translate(4.437 283.86)" fill="#cac7de"/>
    <path id="Path_535" data-name="Path 535" d="M561.055-454.192c.3-3.1,2.423-4.746,4.958-5.891,9.268-4.183,11.457-10.727,6.742-19.673,18.394.343,32.224,10.744,46.139,20.951a48.2,48.2,0,0,0,.689,6.847c.947,3.947-.353,6.928-3.4,9.253-3.177,2.423-6.131,2.18-9.585-.141C592.835-452.1,577.3-454.671,561.055-454.192Z" transform="translate(196.716 111.175)" fill="#cac7de"/>
    <path id="Path_536" data-name="Path 536" d="M697.128-417.7c-5.757-1.786-9.475-7.767-16.078-7.818q1.588-1.123,3.186-2.249a92.2,92.2,0,0,0,9.351-1.025c23.014-4.858,38.994,6.692,41.153,29.86-2,20.91-12.616,36.913-30.19,47.284-12.532,7.393-26.276,15.27-41.5,4.982,19.4.844,37.1-3.353,50.437-18.54,6.811-7.758,12.654-16.336,11.092-27.655C727.4-412.9,718.925-420.564,697.128-417.7Z" transform="translate(337.956 180.238)" fill="#f5d7b4"/>
    <path id="Path_537" data-name="Path 537" d="M532.669-326.131c67.722-1.774,135.5-2.917,201.957-18.49,2.118-.5,3.878-.181,5.283,1.55-28,9.224-57.021,12.981-86.152,15.983-37.921,3.909-75.914,6.921-114.081,5.8C537.654-321.347,528.768-315.9,532.669-326.131Z" transform="translate(156.051 298.02)" fill="#de0716"/>
    <path id="Path_538" data-name="Path 538" d="M466.249-345.509c5.084,6.9,9.563,14.738,20.173,13.191a139.329,139.329,0,0,0-2.814,37.578c-15.881,1.383-24.046-5.526-23.529-21.1C460.413-325.961,461.9-336.1,466.249-345.509Z" transform="translate(56.849 297.084)" fill="#cac7de"/>
    <path id="Path_539" data-name="Path 539" d="M567.744-407.228c7.438,15.7,13.916,31.959,26.35,44.708l-.52.544-9.992.422.186.143c-.353-1.565-1.235-2.225-2.836-1.669l-.341-.207c.279-3.322-1.848-3.31-4.176-3.024l.468-.379-.382.465c.565-3.026-.594-4.877-3.689-5.406-1.18-1.367-2.463-1.891-3.973-.472,0,0-.055-.954-.038-.966.468-2-.186-2.8-2.23-2.12a2.074,2.074,0,0,1-.084-.334c.377-2.051-.389-2.745-2.359-2l-.928-.186c3.565-4.684-1.04-6.868-3.007-9.866-5.309-8.089-11.841-15.6-12.382-25.961C555.207-413.811,561.761-411.416,567.744-407.228Z" transform="translate(178.376 202.842)" fill="#f5d7b4"/>
    <path id="Path_540" data-name="Path 540" d="M635.614-491.925A211.625,211.625,0,0,0,573.1-503.308q1.331-10.943,2.657-21.888,2.053.161,4.109.324c11.884,12.664,27.821,16.081,43.869,19.236C627.3-500.727,634.16-498.669,635.614-491.925Z" transform="translate(213.391 48.247)" fill="#a70f10"/>
    <path id="Path_541" data-name="Path 541" d="M581.168-378.749c-2.2-5.881-10.014-6.182-12.108-12.172,22.735,10.925,46.54,16.2,71.9,14.843,12.842-.687,25.024-2.89,36.257-9.327,1.247,6.985-5.111,6.957-8.721,8.757-15.2,7.579-31.907,6.527-48.217,7.651-12.7-.923-24.626-5.466-36.989-7.968l.229.286C583.813-378.591,582.425-378.594,581.168-378.749Z" transform="translate(207.801 234.196)" fill="#fbf2ee"/>
    <path id="Path_542" data-name="Path 542" d="M552.705-331.4c-4.98,4.841-8.643,1.056-11.643-2.34-2.17-2.456-3.88-4.834-7.491-4.591l.043.012c-.548-1.789,1.157-4.746-2.545-4.891l.1.162c1.111-12.792-8.075-17.433-17.39-21.969C534.194-372.784,552.712-356.791,552.705-331.4Z" transform="translate(131.241 267.335)" fill="#fbf2ee"/>
    <path id="Path_543" data-name="Path 543" d="M542.375-427.445c-17.1,34.144-34.575,68.154-37.907,107.165-5.352-11.3-.983-22.4,1.555-33.149,6.883-29.152,20.824-55.438,35.121-81.48,1.274-2.32,2.674-6.618,6.406-1.956C544.51-434.449,543.222-431.07,542.375-427.445Z" transform="translate(114.832 167.688)" fill="#f34f58"/>
    <path id="Path_544" data-name="Path 544" d="M631.917-452.717c-13.915-10.207-27.745-20.607-46.139-20.951-10.228-3.413-20.879-2.716-34.127-2.428,9.866-6.615,18.716-6.7,27.189-8.056,15.3,4.784,31.47,7.376,44.752,17.312,4.3,3.215,10.064,5.342,10.183,12.127C633.945-453.315,633.379-452.6,631.917-452.717Z" transform="translate(183.693 105.088)" fill="#77738f"/>
    <path id="Path_545" data-name="Path 545" d="M572.726-394.637c-5.984-4.188-12.537-6.582-19.928-6.322-1.529-.305-3.06-.6-4.593-.9l.348.069q-1.059-2.558-2.12-5.111c-.694-3.06-1.414-6.115-2.077-9.182-.584-2.711.68-4.245,2.993-5.669,2.6-1.6,4.3-.973,6.084,1.023,4.3,4.81,9.792,7.491,15.659,10.164C576.053-407.389,574.62-400.695,572.726-394.637Z" transform="translate(173.394 190.251)" fill="#e4a089"/>
    <path id="Path_546" data-name="Path 546" d="M616.24-331c-13.3,12.99-31.015,11.123-47.286,13.262-4.164.546-8.583-4.975-10.05-10.353,1.543-3.687,4.67-3.537,7.861-3.229-.5,4.636,2.354,7.362,6.2,6.6,12.136-2.409,25.107-1.758,36.02-9.053C611.766-333.8,615-335,616.24-331Z" transform="translate(193.737 313.075)" fill="#142846"/>
    <path id="Path_547" data-name="Path 547" d="M563.24-367.248c8.609-12.413,14.412-13.272,28.36-3.5-4.934,5.919-10.021,11.459-16.594,15.549C571.713-359.831,560.953-357.167,563.24-367.248Z" transform="translate(199.303 252.923)" fill="#114896"/>
    <path id="Path_548" data-name="Path 548" d="M591.438-365.5c-17.862.3-33.376-7.622-49.373-13.958-5.841-2.316-5.22-8.361-8.066-12.363q1.277-3.634,2.547-7.269c1.343.668,3.9,1.452,3.849,1.984-1.266,13.017,8.614,14.564,17.416,18.294C568.925-374.1,581.736-373.676,591.438-365.5Z" transform="translate(159.248 222.882)" fill="#de0716"/>
    <path id="Path_549" data-name="Path 549" d="M515.267-321.829c-3.16-.208-5.311-3.716-9.577-2.521-2,3.639,2.828,8-.179,11.729-10.026-12.835-10.026-12.835-21.983-.906,1.3-19.1,1.6-19.408,20.04-18.361,4.345.246,8.676.777,13.012,1.178Q515.924-326.267,515.267-321.829Z" transform="translate(89.352 315.487)" fill="#77738f"/>
    <path id="Path_550" data-name="Path 550" d="M722.435-395.864c-2.158-23.169-18.139-34.718-41.153-29.861a92.2,92.2,0,0,1-9.351,1.025c15.055-10.3,34.043-9.9,45.9,1.536C725.843-415.434,729.072-406.338,722.435-395.864Z" transform="translate(350.261 177.174)" fill="#fbf2ee"/>
    <path id="Path_551" data-name="Path 551" d="M535.519-430.085c-1.4,5.817-5.571,8.814-10.86,10.672-2.728-14.412-.181-27.545,9.439-38.968A82.294,82.294,0,0,0,535.519-430.085Z" transform="translate(144.888 140.775)" fill="#fbf2ee"/>
    <path id="Path_552" data-name="Path 552" d="M470.094-296.709a139.33,139.33,0,0,1,2.814-37.578c2.621-3.1,5.239-6.191,8.3-9.8,2.239,4.975.16,8.573-.091,12.241-4.612,11.562-7.527,23.29-3.582,35.7Z" transform="translate(70.364 299.052)" fill="#77738f"/>
    <path id="Path_553" data-name="Path 553" d="M698.258-400.385q-.118-2.4-.239-4.8a46.055,46.055,0,0,0,5.158-16.768c8.027-9.833.844-20.739,2.187-31.041C715.915-434.775,712.836-411.968,698.258-400.385Z" transform="translate(386.388 148.231)" fill="#f34f58"/>
    <path id="Path_554" data-name="Path 554" d="M575.643-373.142c-2.287,10.081,8.473,7.417,11.767,12.046-10.61,3.744-21.735,2.251-32.62,3.222l-.823-.816C559.877-365.482,565.684-372.427,575.643-373.142Z" transform="translate(186.9 258.817)" fill="#106bba"/>
    <path id="Path_555" data-name="Path 555" d="M515.053-312.058c10.6-9.387,18.23-20.5,19.8-35.679,7.712,12.563-.78,30.965-16.582,37.862C516.412-309.449,515.318-310.142,515.053-312.058Z" transform="translate(133.011 293.998)" fill="#77738f"/>
    <path id="Path_556" data-name="Path 556" d="M560.969-414.509c-13.2.157-21.945-6.444-27.373-18.063l1.832-1.727c9.038,7.541,17.779,15.978,31.177,10.229C567.711-419.123,566.481-415.553,560.969-414.509Z" transform="translate(158.689 174.126)" fill="#77738f"/>
    <path id="Path_557" data-name="Path 557" d="M604.457-333.723c-10.913,7.3-23.884,6.644-36.021,9.053-3.849.766-6.706-1.96-6.2-6.6C576.4-330.558,590.25-335.154,604.457-333.723Z" transform="translate(198.268 313.021)" fill="#114896"/>
    <path id="Path_558" data-name="Path 558" d="M573.977-364.054c9.389-15.456,23.128-5.471,35.15-5.633-10.829,5.535-22.656,5.9-34.473,6.313Z" transform="translate(214.611 259.413)" fill="#a70f10"/>
    <path id="Path_559" data-name="Path 559" d="M627.271-388c-4.791-4.927-12.621-2.817-17.5-7.55,8.182-5.3,17.08-4.934,27.073-3.479C635.578-393.174,632.129-390.023,627.271-388Z" transform="translate(264.176 221.677)" fill="#f34f58"/>
    <path id="Path_560" data-name="Path 560" d="M529.8-426.153a82.3,82.3,0,0,1-1.421-28.3c.766-3.665,3.177-5.724,6.625-6.771q-.1,7.451-.2,14.908C529.952-440.381,537.343-431.417,529.8-426.153Z" transform="translate(150.607 136.843)" fill="#77738f"/>
    <path id="Path_561" data-name="Path 561" d="M545.888-413.933c1.534.3,3.064.591,4.593.9.537,10.374,7.069,17.882,12.377,25.971,1.967,3,6.573,5.182,3.007,9.866C555.759-387.569,546.742-398.532,545.888-413.933Z" transform="translate(175.712 202.328)" fill="#fbf2ee"/>
    <path id="Path_562" data-name="Path 562" d="M516.172-366.165c9.315,4.536,18.5,9.177,17.39,21.969-6.53-6.453-13.427-12.439-21.518-16.9C512.48-363.554,513.5-365.531,516.172-366.165Z" transform="translate(128.844 268.479)" fill="#77738f"/>
    <path id="Path_563" data-name="Path 563" d="M531.1-377.137c2.588-12.988,5.96-25.642,15.16-35.834q-4.332,15.475-8.664,30.948Z" transform="translate(155.226 203.66)" fill="#de0716"/>
    <path id="Path_564" data-name="Path 564" d="M540.824-395.108l6.5-4.886q1.485,1.08,2.976,2.156-1.274,3.631-2.547,7.267c-7.231,4.836-14.1,10.558-23.677,9.644l0,0,9.475-7.25q1.284-1.141,2.564-2.282l-.136.1q1.266-1.249,2.526-2.5l-.122.129q1.249-1.249,2.492-2.494Z" transform="translate(145.497 221.631)" fill="#720b10"/>
    <path id="Path_565" data-name="Path 565" d="M619.3-394.908l-18.762,10.152a14.828,14.828,0,0,0-1.328-1.381c4.591-4.679,5.435-9.229-.484-13.536C606.19-400.715,612.784-397.98,619.3-394.908Z" transform="translate(248.882 221.763)" fill="#6d311a"/>
    <path id="Path_566" data-name="Path 566" d="M594.754-366.8c8.578-11.609,17.421-7.526,28.828-7.6C613.337-368.905,605.135-369.106,594.754-366.8Z" transform="translate(243.383 256.197)" fill="#114896"/>
    <path id="Path_567" data-name="Path 567" d="M709.9-445.341l-4.961.255q-3.713-2.4-7.426-4.8c.873-5.611-7.026-7.174-5.876-13.954C699.41-458.785,706.161-453.645,709.9-445.341Z" transform="translate(377.389 133.211)" fill="#a70f10"/>
    <path id="Path_568" data-name="Path 568" d="M513-373.947c5.5,1.689,11.361,2.8,14.264,8.728C520.413-364.713,514.859-366.316,513-373.947Z" transform="translate(130.162 257.702)" fill="#de0716"/>
    <path id="Path_569" data-name="Path 569" d="M698.08-457.881q3.713,2.4,7.426,4.8c-6.921,4.464-10.932.527-14.395-4.994Z" transform="translate(376.822 141.203)" fill="#f34f58"/>
    <path id="Path_570" data-name="Path 570" d="M575.921-377.914c6.644,1.362,14.309-.463,19.26,6.174C588.394-372.653,581.315-372.658,575.921-377.914Z" transform="translate(217.303 252.208)" fill="#fbf2ee"/>
    <path id="Path_571" data-name="Path 571" d="M562.042-330.415c-3.992,3.446-7.984,3.305-11.981.007C554.053-333.992,558.048-333.918,562.042-330.415Z" transform="translate(181.491 314.311)" fill="#142846"/>
    <path id="Path_572" data-name="Path 572" d="M562.811-391.509l9.992-.422q-.515,2.837-1.028,5.674Q567.293-388.88,562.811-391.509Z" transform="translate(199.147 232.797)" fill="#cac7de"/>
    <path id="Path_573" data-name="Path 573" d="M560.213-395.98c3.1.529,4.254,2.38,3.689,5.406a11.223,11.223,0,0,1-6.992-5.3Z" transform="translate(190.975 227.19)" fill="#cac7de"/>
    <path id="Path_574" data-name="Path 574" d="M624.434-392.027c-1.6,3.048-3.639,5.349-7.555,4.536A8.633,8.633,0,0,1,624.434-392.027Z" transform="translate(274.023 232.664)" fill="#fbf2ee"/>
    <path id="Path_575" data-name="Path 575" d="M620.137-390.215c.06,4.054-1.357,5.891-5.488,3.646Q617.389-388.4,620.137-390.215Z" transform="translate(270.935 235.174)" fill="#fbf2ee"/>
    <path id="Path_576" data-name="Path 576" d="M569.251-384.014c3.32.269,4.636,2.058,4.021,5.311A7.728,7.728,0,0,1,569.251-384.014Z" transform="translate(208.066 243.761)" fill="#fbf2ee"/>
    <path id="Path_577" data-name="Path 577" d="M545.368-444.011a3.759,3.759,0,0,1,1.154,5.309C545-440.224,544.979-442.075,545.368-444.011Z" transform="translate(174.696 160.675)" fill="#e4a089"/>
    <path id="Path_578" data-name="Path 578" d="M545.165-416.047q1.059,2.554,2.12,5.111C544.268-411.68,545.372-414.137,545.165-416.047Z" transform="translate(174.664 199.4)" fill="#fbf2ee"/>
    <path id="Path_579" data-name="Path 579" d="M559.806-393.681c2.327-.286,4.455-.3,4.176,3.024Z" transform="translate(194.986 230.212)" fill="#cac7de"/>
    <path id="Path_580" data-name="Path 580" d="M566.6-389.573c3.115-.081,3.313,2,3.188,4.309Q568.2-387.42,566.6-389.573Z" transform="translate(204.399 236.06)" fill="#cac7de"/>
    <path id="Path_581" data-name="Path 581" d="M572.878-379.873c2.4-.126,4.557.076,4.5,3.3Q575.131-378.215,572.878-379.873Z" transform="translate(213.089 249.459)" fill="#fbf2ee"/>
    <path id="Path_582" data-name="Path 582" d="M510.988-374.94c2.122-.141,4.026.15,4.91,2.471C513.094-370.972,512.123-373.12,510.988-374.94Z" transform="translate(127.381 256.286)" fill="#de0716"/>
    <path id="Path_583" data-name="Path 583" d="M697.158-425.6c-.272-2.309-.2-4.457,2.5-5.387C700.922-428.218,699.152-426.856,697.158-425.6Z" transform="translate(385.05 178.711)" fill="#f34f58"/>
    <path id="Path_584" data-name="Path 584" d="M560.6-395.217l-3.3.105-.668-.58C558.137-397.108,559.42-396.584,560.6-395.217Z" transform="translate(190.588 226.427)" fill="#fbf2ee"/>
    <path id="Path_585" data-name="Path 585" d="M571.788-380.876q1.463,1.295,2.926,2.59Q573.254-379.581,571.788-380.876Z" transform="translate(211.579 248.106)" fill="#fbf2ee"/>
    <path id="Path_586" data-name="Path 586" d="M570.844-381.931l2.654,2.876Q572.175-380.489,570.844-381.931Z" transform="translate(210.272 246.645)" fill="#fbf2ee"/>
    <path id="Path_587" data-name="Path 587" d="M555.678-397.334c2.044-.682,2.7.124,2.23,2.12A1.948,1.948,0,0,1,555.678-397.334Z" transform="translate(189.269 224.985)" fill="#fbf2ee"/>
    <path id="Path_588" data-name="Path 588" d="M554.654-398.284c1.97-.742,2.735-.048,2.359,2A1.951,1.951,0,0,1,554.654-398.284Z" transform="translate(187.851 223.599)" fill="#fbf2ee"/>
    <path id="Path_589" data-name="Path 589" d="M631.488-331.909l-.694.639c-.174-.26-.508-.541-.479-.777s.417-.434.648-.646Z" transform="translate(292.627 314.831)" fill="#114896"/>
    <path id="Path_590" data-name="Path 590" d="M575.136-368.4l-1.507.694c.277-.458.556-.913.832-1.371Z" transform="translate(214.129 264.442)" fill="#a70f10"/>
    <path id="Path_591" data-name="Path 591" d="M509.991-375.988l2.547,2.549Z" transform="translate(126.001 254.876)" fill="#de0716"/>
    <path id="Path_592" data-name="Path 592" d="M555.244-366.266a3.053,3.053,0,0,1-.942.6c-.177.036-.439-.37-.663-.577l.785-.837Z" transform="translate(186.446 267.209)" fill="#106bba"/>
    <path id="Path_593" data-name="Path 593" d="M561.7-392.281c1.6-.556,2.483.1,2.835,1.669Q563.119-391.445,561.7-392.281Z" transform="translate(197.609 232.043)" fill="#cac7de"/>
    <path id="Path_594" data-name="Path 594" d="M508.759-376.964l3.112,2.487Z" transform="translate(124.295 253.524)" fill="#de0716"/>
    <path id="Path_595" data-name="Path 595" d="M574.7-378.7a2.753,2.753,0,0,1,3.172,2.154Q576.294-377.619,574.7-378.7Z" transform="translate(215.616 251.097)" fill="#fbf2ee"/>
    <path id="Path_596" data-name="Path 596" d="M655.868-392.522c.532-.422,1.367-1.3,1.546-1.188,1.44.94.365,1.653-.372,2.363C656.645-391.726,656.252-392.122,655.868-392.522Z" transform="translate(328.016 230.319)" fill="#6d311a"/>
    <path id="Path_597" data-name="Path 597" d="M576.9-299.136c7.336.324,14.743.157,21.964,1.238,2.5.374,8.323-.925,7.364,4.844-.787,4.748-5.328,3.983-8.714,3.9C589.467-289.349,582.835-293.071,576.9-299.136Z" transform="translate(218.664 361.303)" fill="#106bba"/>
    <path id="Path_598" data-name="Path 598" d="M639.961-427.9c-1.476-2.638,1.4-6.539-2.461-8.485-13.377-3.2-26.889-4.684-40.633-3.279-3.055-3.925-.15-6.16,2.416-8.49l11.9-2.59c10.4.661,21,.119,30.948,3.914,4.014,1.529,6.561-.429,9.368-2.421q9.683.089,19.365.181l3.534.355c2.616,1.729,5.337,3.32,7.827,5.218,5.485,4.178,11.1,8.814,8.078,16.67-2.771,7.209-8.764,11.523-16.61,11.264C661.222-415.977,649.369-418.781,639.961-427.9Zm8.483-1.791c10.429,5.638,21,10.274,33.037,4.753,5.8-4.689,3.429-8.647-1.1-12.415-6.291-8.194-16.043-3.53-23.767-6.4C648.9-441.964,642.129-439.629,648.444-429.692Z" transform="translate(244.495 151.349)" fill="#150f11"/>
    <path id="Path_599" data-name="Path 599" d="M693.285-424.437c21.8-2.867,30.268,4.8,27.447,24.84-4.076-5.914-2.969-15.129-11.724-18.084-7.383-2.49-14.3-.076-22.992,8.33,10.245,11.254,11.292,17.519,4.276,25.613-6.778,7.822-16.184,9.341-24.471,3.1,6.458-2.373,13.851-1.374,18.122-7.188,5.635-6.022,6.208-10.884-3.079-13.5l.055.1c.365-2.165-1.154-1.989-2.509-2.015-6.408-.77-5.368-3.735-2.8-8C679.772-418.143,687.735-419.605,693.285-424.437Z" transform="translate(341.799 186.978)" fill="#6d311a"/>
    <path id="Path_600" data-name="Path 600" d="M672.5-422.855l-3.537-.355c.856-15.766-3.074-28.988-19.04-35.811-3.184-4.092-7.617-4.281-12.227-3.911-9.74-.017-17.013,5-23.028,11.927-5.3,6.105-10.038,12.692-15.027,19.067-6.606-4.259,1.018-8.251.234-12.4,6.422-.811,6.258-7.526,9.72-11.092,13.09-13.479,28.382-17.6,43.721-10.684,13.393,6.041,21.731,22.582,20.006,39.786A25.833,25.833,0,0,1,672.5-422.855Z" transform="translate(246.39 125.488)" fill="#6d311a"/>
    <path id="Path_601" data-name="Path 601" d="M624.825-432.924c-10.3,8.476-15.377-4.181-23.224-6.017,7.464-2.325,14.383.155,21.316,2.475Q623.872-434.695,624.825-432.924Z" transform="translate(252.865 166.406)" fill="#6d311a"/>
    <path id="Path_602" data-name="Path 602" d="M672.21-415.081c9.287,2.614,8.714,7.476,3.079,13.5C670.82-405.3,672.358-410.38,672.21-415.081Z" transform="translate(350.454 200.738)" fill="#f5d7b4"/>
    <path id="Path_603" data-name="Path 603" d="M671.1-415.886c1.355.026,2.874-.15,2.509,2.015Q672.357-414.88,671.1-415.886Z" transform="translate(349.11 199.623)" fill="#f5d7b4"/>
    <path id="Path_604" data-name="Path 604" d="M621.808-343.381c1.1-1.154,2.891-2.335,3.792-.949,1.214,1.86-1.331,1.9-2.349,2.637C622.783-342.26,622.3-342.823,621.808-343.381Z" transform="translate(280.849 297.848)" fill="#150f11"/>
    <path id="Path_605" data-name="Path 605" d="M530.856-396q-1.28,1.141-2.564,2.282C526.724-397.2,529.881-395.372,530.856-396Z" transform="translate(150.75 227.166)" fill="#de0716"/>
    <path id="Path_606" data-name="Path 606" d="M531.587-397q-1.263,1.248-2.526,2.5Q530.324-395.751,531.587-397Z" transform="translate(152.409 225.773)" fill="#de0716"/>
    <path id="Path_607" data-name="Path 607" d="M532.561-398q-1.245,1.249-2.492,2.495Q531.318-396.749,532.561-398Z" transform="translate(153.805 224.4)" fill="#de0716"/>
    <path id="Path_608" data-name="Path 608" d="M524.388-392l-.546,1.014.544-1.016Z" transform="translate(145.182 232.702)" fill="#720b10"/>
    <path id="Path_609" data-name="Path 609" d="M521.086-357.021c3.7.145,2,3.1,2.545,4.891C520.755-352.7,520.862-354.834,521.086-357.021Z" transform="translate(141.225 281.142)" fill="#77738f"/>
    <path id="Path_610" data-name="Path 610" d="M619.8-492.8c-16.05-3.158-31.988-6.575-43.871-19.236,1.882-8.626,4.2-17.018,12.079-22.42.327,5.542,3.616,6.392,8.242,5.249,5.349-1.321,10.715-2.578,16.072-3.864C610.437-518.837,611.481-505.143,619.8-492.8Z" transform="translate(217.319 35.418)" fill="#de0716"/>
    <path id="Path_611" data-name="Path 611" d="M816.654-311.8a46.059,46.059,0,0,1-5.159,16.768c-7.629.672-13.958-2.728-19.722-6.971-20.464-15.067-38.1-33.025-54.193-52.681-19.007-23.2-37.936-46.547-58.224-68.612-18.242-19.839-40.518-35.141-63.279-49.531,35.57-7.655,48.617-28.692,37.027-59.707,17.917-.193,26.348,13.873,36.6,24.812,19.052,20.338,24.316,47.26,34.5,72.029,14.125,34.351,31.539,67.562,55.018,96.533C788.711-327.448,799.926-315.047,816.654-311.8Z" transform="translate(272.912 38.079)" fill="#de0716"/>
    <path id="Path_612" data-name="Path 612" d="M688.031-515.753c11.59,31.015-1.457,52.052-37.027,59.707l-12.12-.36-27.864-8.564c-1.455-6.747-8.316-8.8-11.884-13.713-8.321-12.337-9.365-26.031-7.476-40.268l-.079.062c2.776-.553,2.731-2.833,3.008-4.915,26.5-32.109,71.464-24.526,91.961,4.961l1.612,2.833Zm-55.2.251c4.133,10.357,7.238,20.588,20.569,11.185,4.5-3.174,4.491,2.013,4.553,5.032.16,7.937-.088,15.9.532,23.8.2,2.554-3.036,8.652,3.706,7.271,4.321-.887,11.4-.115,10.82-8.116-1.133-15.609-2.4-31.208-3.677-47.647-8.161,3.492-15.809,9.816-21.65,8.447-6.529-1.531-5.993-12.735-10.088-18.945-.367-.556-1.285-.744-2.192-1.235-9.125,8.707-17.877,17.965-27.6,26.061-8.521,7.1-9.427,13.429-.587,21.39Z" transform="translate(237.986 21.294)" fill="#fbf2ee"/>
    <path id="Path_613" data-name="Path 613" d="M632.594-530.5l-1.612-2.833,1.71-.859Z" transform="translate(293.553 35.787)" fill="#de0716"/>
    <path id="Path_614" data-name="Path 614" d="M594.186-535.914c-.277,2.082-.231,4.362-3.008,4.915C590.99-533.365,591.575-535.261,594.186-535.914Z" transform="translate(238.387 33.404)" fill="#de0716"/>
    <path id="Path_615" data-name="Path 615" d="M575.028-385.069c12.363,2.5,24.287,7.045,36.989,7.968-12.134,6.58-23.391,2.955-34.451-2.964a1.436,1.436,0,0,0-1.8-1.025l-.522.322.315.525Q575.3-382.663,575.028-385.069Z" transform="translate(216.066 242.3)" fill="#6d311a"/>
    <path id="Path_616" data-name="Path 616" d="M576.316-385.068q.265,2.408.529,4.825c-2.175-.894-2.371-2.912-2.747-4.827l2.447.289Z" transform="translate(214.778 242.299)" fill="#fbf2ee"/>
    <path id="Path_617" data-name="Path 617" d="M575.357-383.377a1.436,1.436,0,0,1,1.8,1.025C575.336-380.548,575.238-381.772,575.357-383.377Z" transform="translate(216.474 244.585)" fill="#fbf2ee"/>
    <path id="Path_618" data-name="Path 618" d="M576.545-383.747l-2.447-.289a1.923,1.923,0,0,0,.093-1.781C575.448-385.662,576.836-385.66,576.545-383.747Z" transform="translate(214.778 241.264)" fill="#6d311a"/>
    <path id="Path_619" data-name="Path 619" d="M588.68-318.383a3.6,3.6,0,0,1-.9-.436c-.133-.114-.086-.439-.117-.668l.892,1.233Z" transform="translate(233.568 333.12)" fill="#142846"/>
    <path id="Path_620" data-name="Path 620" d="M588.04-318.9q1.66.723,3.327,1.44c-.4.408-.816.816-1.24,1.216q-.984-1.392-1.967-2.785Z" transform="translate(234.086 333.761)" fill="#142846"/>
    <path id="Path_621" data-name="Path 621" d="M659.128-448.067c6.532-.146,9.358,3.017,8.965,7.2-.577,6.139-3.642,11.524-10.81,11.855-5.476.255-9.639-2.993-8.853-8.519A11.882,11.882,0,0,1,659.128-448.067Z" transform="translate(317.582 155.051)" fill="#f34f58"/>
    <path id="Path_622" data-name="Path 622" d="M676.418-432.279c-1.624,5.623-3.119,12.2-10.694,13.343a4.836,4.836,0,0,1-5.342-6.181c1.5-6,2.971-12.985,10.066-14.71C674.847-440.893,676.132-436.71,676.418-432.279Z" transform="translate(334.04 166.237)" fill="#f34f58"/>
    <path id="Path_623" data-name="Path 623" d="M681.48-453.436c-.77,6.153-4.431,5.621-9.425,5.115-20.056-2.037-34.368-13.946-48.317-26.762-5.5-5.056-11.142-9.954-16.72-14.927,2.4-6.861,9.236-7.255,14.5-9.945l4.8-.081-.05-.012c1.08,2.573,3.246,2.623,5.538,2.375C650.162-484.947,668.664-472.386,681.48-453.436Z" transform="translate(260.367 83.073)" fill="#e71b2b"/>
    <path id="Path_624" data-name="Path 624" d="M610.608-503.579l6.451,3.2q-.708.855-1.4,1.717l-6.825-2.757Z" transform="translate(262.882 78.183)" fill="#f34f58"/>
    <path id="Path_625" data-name="Path 625" d="M618.308-498.09l-4.8.081c-.217-.606-.453-1.207-.706-1.8q.884-.783,1.688-1.645C616.185-500.814,618.272-500.616,618.308-498.09Z" transform="translate(268.375 81.127)" fill="#f34f58"/>
    <path id="Path_626" data-name="Path 626" d="M620.627-497.559c-2.292.248-4.457.2-5.538-2.375C617.548-500.571,619.329-499.627,620.627-497.559Z" transform="translate(271.544 82.959)" fill="#f34f58"/>
    <path id="Path_627" data-name="Path 627" d="M646.174-469.027l.947,1.042c-.357-.305-.715-.608-1.073-.913Z" transform="translate(314.417 126.032)" fill="#f34f58"/>
    <path id="Path_628" data-name="Path 628" d="M613.1-502.238q1.459.944,2.921,1.879c-.534.568-1.1,1.116-1.681,1.634q-1.316-.9-2.64-1.8Q612.39-501.383,613.1-502.238Z" transform="translate(266.845 80.04)" fill="#f34f58"/>
    <path id="Path_629" data-name="Path 629" d="M599.373-435.706c4.989-6.375,9.73-12.962,15.027-19.067,6.015-6.93,13.288-11.943,23.026-11.927-1.746,2.9-4.855,3.88-7.55,5.5-12.291,7.4-19.217,18.292-20.858,32.546l-11.9,2.59Z" transform="translate(246.658 129.256)" fill="#fbf2ee"/>
    <path id="Path_630" data-name="Path 630" d="M596.353-445.791c13.744-1.4,27.256.081,40.633,3.279-2.113,5.428-6.272,1.65-9.12,1.531-10.536-.436-21.037-1.739-31.547-2.762-.169-.017-.4-.627-.391-.952A3.577,3.577,0,0,1,596.353-445.791Z" transform="translate(245.009 157.475)" fill="#fbf2ee"/>
    <path id="Path_631" data-name="Path 631" d="M533.712-432.492c-1.15-.994-2.239-2.7-1.026-3.549,1.705-1.188,1.782,1.159,2.435,2.132Q534.424-433.186,533.712-432.492Z" transform="translate(156.694 171.259)" fill="#77738f"/>
    <path id="Path_632" data-name="Path 632" d="M534.684-431.133q-.937-1.4-1.874-2.79c.47-.46.94-.932,1.4-1.414.77.823,1.533,1.653,2.3,2.48Z" transform="translate(157.601 172.687)" fill="#77738f"/>
    <path id="Path_633" data-name="Path 633" d="M657.156-489.582q1.324.9,2.64,1.8c.248.6.484,1.2.7,1.8-5.261,2.69-12.1,3.084-14.5,9.945-20.431-15.1-42.512-26.994-67.131-34.1,25.37.219,48.243,9.706,71.466,17.793Q653.741-490.956,657.156-489.582Z" transform="translate(221.385 69.101)" fill="#de0716"/>
    <path id="Path_634" data-name="Path 634" d="M601.074-392.749c-.887.878-1.844,1.421-2.731.112-.084-.124.909-.978,1.4-1.491A14.515,14.515,0,0,1,601.074-392.749Z" transform="translate(248.346 229.756)" fill="#6d311a"/>
    <path id="Path_635" data-name="Path 635" d="M602.108-428.577c1.641-14.254,8.566-25.15,20.858-32.546,2.7-1.622,5.8-2.6,7.551-5.5,4.612-.37,9.046-.181,12.229,3.911,4.808,11.919-.761,23.748-.322,35.629-2.807,1.991-5.354,3.949-9.368,2.421C623.107-428.458,612.511-427.916,602.108-428.577Z" transform="translate(253.567 129.181)" fill="#f5d7b4"/>
    <path id="Path_636" data-name="Path 636" d="M619.028-429.43c-.439-11.881,5.13-23.71.322-35.629,15.966,6.823,19.9,20.045,19.04,35.811Q628.71-429.341,619.028-429.43Z" transform="translate(276.963 131.527)" fill="#e4a089"/>
    <path id="Path_637" data-name="Path 637" d="M651.116-441.413c4.531,3.768,6.9,7.727,1.1,12.415-11.12-.832-21.719-5.294-33.037-4.753-6.315-9.938.458-12.272,8.168-14.063C633.938-436.14,636.64-435.413,651.116-441.413Z" transform="translate(273.758 155.408)" fill="#cac7de"/>
    <path id="Path_638" data-name="Path 638" d="M644.925-441.413c-14.476,6-17.178,5.273-23.767-6.4C628.883-444.943,638.634-449.607,644.925-441.413Z" transform="translate(279.948 155.408)" fill="#fbf2ee"/>
    <path id="Path_639" data-name="Path 639" d="M617.733-441.891c11.318-.541,21.917,3.921,33.037,4.753C638.736-431.617,628.162-436.253,617.733-441.891Z" transform="translate(275.205 163.548)" fill="#fbf2ee"/>
    <path id="Path_640" data-name="Path 640" d="M626.945-520.7l-25.608,27.244c-8.841-7.96-7.934-14.295.587-21.39,9.718-8.1,18.471-17.354,27.6-26.061.906.491,1.824.68,2.192,1.235,4.095,6.21,3.558,17.414,10.088,18.945,5.84,1.369,13.489-4.956,21.65-8.447,1.276,16.439,2.544,32.038,3.677,47.647.582,8-6.5,7.228-10.82,8.116-6.742,1.381-3.506-4.717-3.706-7.271-.62-7.9-.372-15.864-.532-23.8-.062-3.019-.055-8.206-4.553-5.032C634.183-500.111,631.078-510.342,626.945-520.7Z" transform="translate(243.872 26.491)" fill="#de0716"/>
  </g>
</svg>
