<svg xmlns="http://www.w3.org/2000/svg" viewBox="0 0 269.26 281.45"><defs><style>.cls-1{fill:#16100d;}.cls-2{fill:#1069b8;}.cls-3{fill:#142846;}.cls-4{fill:#f7d6b4;}.cls-5{fill:#f64751;}.cls-6{fill:#e5a089;}.cls-7{fill:#fdfdfd;}.cls-8{fill:#de0515;}.cls-9{fill:#cac7dd;}.cls-10{fill:#7f3e20;}.cls-11{fill:#710c10;}.cls-12{fill:#593026;}.cls-13{fill:#a80f10;}.cls-14{fill:#eaa614;}.cls-15{fill:#fdd710;}.cls-16{fill:#fcecd7;}</style></defs><title>Asset 11</title><g id="Layer_2" data-name="Layer 2"><g id="Layer_1-2" data-name="Layer 1"><path class="cls-1" d="M43.06,250.35c-3.47-1.2-1.66-3.47-.9-5.26C48,231.27,56.64,219.31,66.68,208.3A18.07,18.07,0,0,0,70.23,203c2.81-6.73,7.61-11.2,15.14-12.18,3.21-.42,4.62-1.27,2-4.6a95.91,95.91,0,0,0-15.71-16c-2.36-1.86-3.43-2.79-4.51,1.67C64.69,182,61.34,192,54.09,200a24.47,24.47,0,0,1-5.52,4.25c-10,6-32.39-4.61-34.42-16.09-.59-3.3-2-6.27-6.3-7-5.43-.91-9.35-7.56-7.3-13.28,4.2-11.67,10.67-20.64,24.17-24.09,7.72-2,15.9-2.87,23.31-7.85,10.63-7.14,22.57-5.35,33.5,1.36,1.4.86,2.73,1.81,4,2.68,2.87-4,2.73-7.31,0-11.61-6.39-10-.23-24.51,12.3-30.46,1.35-.65,2.85-1.62,4.19-1.5,6.61.58,9.13-3.38,10.89-8.81.9-2.79,3.86-5.51,3.53-7.94-.27-2-4.06-3.48-6.22-5.29A60.35,60.35,0,0,1,99.78,63C94,54.73,96.9,45.27,106.44,41.61a50,50,0,0,1,21.63-2.77c2.21.15,3.49,0,4.33-2.63C146.19-6.66,189-6.65,214.54,11.46c21.61,15.35,31.73,37.44,34.67,63.21,1.15,10.09,2.12,20.21,3,30.32a16.16,16.16,0,0,0,3.8,9.51,84.84,84.84,0,0,1,9.56,13.39c7.46,13.32,3.35,27.94-10,34.74-2.19,1.11-2.62,2.41-2.93,4.5-2.71,18.8-23.19,32.57-41.48,27.92-1.4-.35-2.4-.85-3,1.14a34.32,34.32,0,0,1-2.55,5.14c6.38,1.12,12.44,2.52,18,5.74,10.5,6.12,14.16,16.42,9.52,27.82-5.15,12.66-15.48,20.1-26.88,26.35a88.36,88.36,0,0,1-11.41,5c-3.25,1.23-6.34,2.23-8.65,5.3a6.21,6.21,0,0,1-8.59,1.56c-5.26-3.67-10.64,1.43-15.79-.78-.64-.28-.86.75-1.18,1.31-4.29,7.49-7.25,8.93-15.78,7.13-2.89-.61-5.64-1.92-8.45-2.91a36.71,36.71,0,0,1-8.06-7.06l-.15-4c-.11-.49,0-1.2-.89-.94l0,0c.67-.67.14-1.32,0-2,1-.55,1-1.54,1-2.48a1.29,1.29,0,0,0-.12-1.77c-4.82-3.75-4.75-8.56-3.14-13.76a1.8,1.8,0,0,0-.72-2.15l-1-2.61c-.15-2.6.68-5.94-.62-7.68-3.73-5-2.74-9.58-.47-14.47l.13,0a7.6,7.6,0,0,0,1.65-1c8-8.14,11.52-8.43,21.1-2.48,2,1.23,4.67,2.52,7.2-.15,7.25-7.67,14.87-14.86,26.7-15-1-1.36-1.87-1.33-2.66-1.15a68.14,68.14,0,0,1-31.53.19c-1.91-.44-3.11.56-4.59,1.26-4.24,2-6.46,6.64-10.92,8.32l-3.88-.17c-8.17-.93-15.62-4.22-23.23-7l-1.14-2.05,7-6.31c.91-.81,2.26-1.09,1-3-4.38-6.83-4.27-6.91-11.51-3.15-1.47.77-2.89,1.64-4.33,2.47s-2.94,1.56-.67,3.49c3.54,3,3.21,6.66.91,10.32A24.55,24.55,0,0,1,83,213.21c-5.21,2.4-9,1.41-12.64-3.17-2.5-.36-2.59,2.3-4.06,3.23-4.86,4.48-8.57,9.85-12,15.47-1.39,2.39-4.09,4-4.13,7.2C46.64,240.14,45.12,245.38,43.06,250.35Zm83.08-29.61c-.83-.08-1,.44-1.08,1.11l.08-.07c-1,.38-1,1.23-1,2.09-1.53,2-1.49,4.45.28,5.74,2.22,1.6,2.41-1.69,3.7-2.55a16.83,16.83,0,0,0,2.9-3.25,54.37,54.37,0,0,1,10.87-7.52c-4.95-4-10.52-2.71-14.92,3.29l.11.13c-.93-.21-1.1.35-1.08,1.08Zm84.15,34.17-.06.08,1-.16c6.17-3.62,11.72-8.08,15.5-14.16,2.75-4.42,5.84-9,4.64-14.8l-.3-1.18c1.1-5.58-1.42-9.59-5.59-12.87a29.43,29.43,0,0,0-11.49-5.68,120.51,120.51,0,0,0-34.45-2.93c-11.25,0-18.26,7.07-25.85,14.75,7.86,2.57,14.59,5.36,20.47,9.86.77.59,1.69,1.32,2.73.91,3.16-1.23,5.89-.2,8.45,1.55a3.58,3.58,0,0,0,3.76.3c7-3,13.33-6.78,17.35-13.56,1.62-.64,1.51-3.43,3.89-3.13l-.13,3,0,0c-1,.36-1.12,1.13-1,2v0a3,3,0,0,0-2,3h0c-.75-.07-1,.32-1,1h0c-4.77,4-9.59,7.87-15.44,10.22-1.57.63-2.06,1.57-.65,2.9q1.27,5.9,2.54,11.78-.53,6.63-1.06,13.24c-.31.92-1.13,2.09-.83,2.72.75,1.57,2.08.25,2.93-.09,4.71-1.88,9.73-3.17,13.64-6.69l-.07,0a2.38,2.38,0,0,0,2.07-1.06l-.07.05ZM143.73,20.34c-.6.52-2.21.74-.56,1.91-5,4.82-7,11.08-8.38,17.6l-.63,2c-5.61.2-11.22-.92-16.81.1l-4.23,1.1c-2.93.75-6.2.63-9.06,3.55,13.27.3,24.3,5.2,34.92,11.61s18.78,15.36,27.21,24.09c11.48,11.88,24.31,21.71,40,27.47l3.09,1A113.89,113.89,0,0,1,236.12,144c2,3.73,4,7.09,8.37,8.6a9.21,9.21,0,0,1,5.42,5c1.77,4.17,4.06,3.56,6.85,1.32l3.46-2.77c9.53-9.53,6.69-29.26-6.08-37.27,1.32,2,1.58,3.44.41,5.25a17.86,17.86,0,0,1-3.29-7.57,136,136,0,0,1-3-21.74c-1.31-19.85-3.38-39.45-13.89-57.14C223,18.4,207.18,5.72,184.53,3.47,169.65,2,156.05,5.41,146,17.66l-1.4,1.76Zm101,158,.85-1.14-.28-.14.25.18,1.23-1.67.08-.32c3.9-6.85,3.85-12.83-.15-17.46-4.35-5-11.3-6.46-18.61-3.87-.8,0-1.59-.07-2,.85-3.38.62-5.51,2.68-7.09,5.67-1.79,3.4-4,6.57-7.54,8.43-3,1.58-6,1.75-9-.24s-3.95-4.77-3.74-8.19c.17-2.68,1.59-4.95,2.57-7.52a43.51,43.51,0,0,1-4.86-1.56c-7.57-3.49-8.22-10.52-1.37-15.29a32.57,32.57,0,0,1,5.73-3c4.25-1.83,7.35-4.13,6.33-9.6a9.31,9.31,0,0,1,1.26-5.75c1.6-2.8.4-3.79-2-4.67a93.07,93.07,0,0,1-24.13-12.88c-5.38-4-11.3-4.54-17.54-3.46-2.92.51-5.77,1.49-8.64,2.26-.58-2.68,2.53-3.08,3.11-5a26.09,26.09,0,0,1,10.26-4.53c-8.84-7.59-14.32-18.45-27.12-19.07,3,6.41,3.29,8.45,1.55,13.9-1.21-5.31-5.34-7.86-8.55-11-4.6-4.43-9.83-2.88-12.37,3a7.77,7.77,0,0,0-2.89,4.21l-1.29,2.33.08-.13c-.39.68-.77,1.36-1.15,2l.13,0c-2.45,3.72-4.55,7.59-5.25,12.07a2.53,2.53,0,0,0-1.53,2.08c-5.31-.47-10.4,0-14.79,3.47l-2.81,2.14-.81.79a8.35,8.35,0,0,0-3.09,3.71l-.63.91c-5,8.53-4.1,14.66,3.29,23l-.1,3.08c-1.23-.63-1.73,0-2.12,1.11-3.67,10.7-3,20.83,3.91,30.15l0-.09,1,1.21-.14-.08a4.75,4.75,0,0,0,2.39,2.67,12.56,12.56,0,0,0,4.84,4.1,8,8,0,0,0,4.08,3.06l-.05,0,.86,1.2,0-.07c1.82,10.48,12.06,17.95,22.23,15.6,3.83-.89,7.11-.38,10.68.51,19.23,4.82,38,4.26,55.46-6.15,4.86-2.91,8.56-5.78,12.22.93a2,2,0,0,0,2.14,1,2.26,2.26,0,0,0,2.57,1.06l-.06,0c4,2.8,8.46,2.51,12.82,1.3,7.64-2.14,13.49-6.92,18.29-13.1l1.48-1.75ZM83.28,142.85c.19-.88-.32-1-1-1h0c-10.41-10.12-27.43-8.43-37.7-.88-1.81,1.33-1.38,1.95.53,2.33a50.85,50.85,0,0,1,16.2,12.58c2.63,2.69,2.82,7.27,6.86,8.87l1.62.28c2.19,3.13,7,3,8.57,6.91a6.48,6.48,0,0,0,3.83,3h0l8.61,11.12c.89,1.15,1.82,1.26,2.8.12,2.39-1.16,4.72-2.45,7.18-3.43,3.61-1.43,2.77-2.93.28-4.63-10.65-7.32-15.69-17.65-16.28-30.37.09-.62.17-1.24.25-1.86l.15-1.93c-.26-1-.79-1.53-1.88-1.15ZM74,202.74c-1.82,1.48-2.34,3.21-1,5.29a5.05,5.05,0,0,0,5,3.42c7.37.12,14.14-8.64,12.07-15.56-.33-2.83-2.62-2.24-4.23-2.11-5.75.48-9.92,3.31-12,8.91Zm54,39.83,0-.1a4.1,4.1,0,0,1-.05,4.21c-2.27,4.92-1.29,9,3.45,11.88l.19.15c-.14,14.1-.09,14,10.8,18.47,4.47,1.84,8.65.79,12.82-.48a4.27,4.27,0,0,0,2.64-4c.1-1.78-1.53-1.92-2.75-2.31-1.73-.56-3.48-1.05-5.22-1.56-.33-.89-1.05-1-1.85-.88l-3.53-2.59c10,1.59,19.65,6.82,30.13,2.6.22.76.81.84,1.47.83,4.93,3.32,7.59,2.73,10-2.31a27.29,27.29,0,0,0,3-14.67c.61-5.67,0-11.2-2.88-16.16-1.85-3.19-4.43-5.76-8.72-3.67a1.61,1.61,0,0,0-2,.23,75.39,75.39,0,0,0-25.18-12.33c-4.48-1.28-8.46-1-12.11,2-4.81,2.64-7.82,7.08-10.73,11.42C125.57,236.21,124.63,239.7,128.06,242.57ZM12.55,178.74c2.41,4,4,9,10.28,8l1.69,0c4.24,9.4,11.3,10.55,18.35,2.95,2.49-2.67,5-5.32,6.5-8.75.73-.33,1.37-1.83,2.26-.18-1.56,5.69-5.28,9.88-9.6,13.6-6.32,5.45-12.47,4.85-17.7-1.6-2.52-3.12-2.52-3.12-6.94-3,4.05,7.32,17.58,14.28,25.84,13.34a6.71,6.71,0,0,0,4.07-1.68,13.34,13.34,0,0,0,5-3.92,46.31,46.31,0,0,0,10-21.19,3.86,3.86,0,0,0,1.55-4.16,5.69,5.69,0,0,0,.48-1.86c-1.42-13.68-19.69-29-32.34-25-2.12-1-3.69.05-5.2,1.38-6.8.61-12.37,3.42-16.31,9.15a26.48,26.48,0,0,0-7.09,12.32c-1.66,6.14,1.76,10.38,8.05,10.38ZM143.83,66.31c.36.34.76.7,1.12.07.08-.12-.29-.5-.46-.75a69.63,69.63,0,0,0-19.16-11.44c-6.13-2.48-12.43-4.84-19.28-4.35-6.27.44-8.36,4.08-5.14,9.39a56.46,56.46,0,0,0,15.28,16.21c1.79,1.31,2.68,1.23,3.85-.67,1.84-3,4-5.7,5.95-8.6,1.41-2.1,2.85-2.82,5.7-2.5C135.88,64.14,139.74,65.65,143.83,66.31Zm79.41,84.51c4,1.72,7.26-1.77,11.15-1.47,1.3.1.6-1.94,0-2.86-2.28-3.61-3.91-7.66-7-10.7a83.94,83.94,0,0,0-11.31-14.48c-1.21-1.23-2.21-3.63-4.15-3-2.17.66-1.61,3.39-2.19,5.21a5.87,5.87,0,0,0,.24,2.91,5.45,5.45,0,0,1-3,6.62c-3,1.67-6.18,3.17-9.18,4.93-2.45,1.45-5.1,3.15-4.05,6.59,1,3.26,3.79,4.14,7,4.56,4.69.62,8.56-1.72,13.4-3.48a10.2,10.2,0,0,1-5.08,4.8,14.19,14.19,0,0,0-7,8.63c-1,3-.25,5.34,2.1,7s4.67,1.16,7-.38a15.42,15.42,0,0,0,3.91-4.45C217.49,157.57,219.27,153.32,223.24,150.82Zm-84.17,47.57c-3.26-1.52-5.31-2-7.47-1.32-5.57,1.87-10.76.76-15.83-1.8-2.84-1.44-8.2.62-9.44,3.5a1.28,1.28,0,0,0,.82,1.92c6.45,2.63,12.95,5.48,20,5.24C132,205.77,134,200.61,139.07,198.39Zm54.38-2.2a14.58,14.58,0,0,0,1.49,1.71c3.34,2.79,8.78,1.34,10.07-2.76a4.6,4.6,0,0,0-1.24-5c-1.05-1-2.05-1.72-3.49-.72a54.45,54.45,0,0,1-15.47,7.87c-1,.28-2,1.42-.79,2.14,2.22,1.3,4.86.49,7.32.57C194.35,200.06,191.67,197.15,193.45,196.19Z"/><path class="cls-2" d="M123.21,278.56c-16.93-.66-33.47-3.23-49-10.38,2.34-7.4,4.22-15,8.49-21.64,1.26-2,2.17-2.89,4.64-1.71,9.42,4.49,18.78,9.06,27.13,15.43,1.18.91,2.6,1.59,2.66,3.34C117.31,269.34,120.27,274,123.21,278.56Z"/><path class="cls-2" d="M43.06,250.35c2.06-5,3.58-10.21,7.18-14.41,9.38,1,18.7,2.27,27.67,5.35,1.68.58,4.43.59,2.37,3.73-4.44,6.73-6.32,14.51-8.9,22A101.43,101.43,0,0,1,43.06,250.35Z"/><path class="cls-3" d="M71.38,267c2.58-7.49,4.46-15.27,8.9-22,2.06-3.14-.69-3.15-2.37-3.73-9-3.08-18.29-4.34-27.67-5.35,0-3.16,2.74-4.81,4.13-7.2,15.06.59,29,5.1,42.3,11.94a203.34,203.34,0,0,1,31.6,20.73c-.08.94,0,1.93-1,2.48l-3.75-2.31-1.81-1.2-2.17-1.81-1.83-1.19c-.58-.7-1.32-2-2.13-1.05s.65,1.41,1.39,1.87,1.2.8,1.79,1.21l2.2,1.8,1.82,1.19c1.15,1.63,2.45,3.05,4.52,3.47l0,0,.89.94.15,4-6.86-5.11c-.23-.17-.59-.54-.68-.48-.55.35-.25.73.08,1.07.24,4.85,3.8,8.21,5.58,12.37l-3.19-.07c-2.94-4.61-5.9-9.22-6.11-15-.06-1.75-1.48-2.43-2.66-3.34-8.35-6.37-17.71-10.94-27.13-15.43-2.47-1.18-3.38-.26-4.64,1.71-4.27,6.68-6.15,14.24-8.49,21.64A3.29,3.29,0,0,1,71.38,267ZM53.1,233.71c20.32,1,37.83,8.82,54.89,18C98.36,240.76,61.21,228.4,53.1,233.71Zm57,18.32c-.53.17-1.17.18-.75.85a1.79,1.79,0,0,0,1,.77c.36.08,1-.07.62-.75A4.35,4.35,0,0,0,110.11,252Zm3.32,3.82c.32-.34,1.09-.23.64-.93a1.84,1.84,0,0,0-1-.74c-.36-.07-1,.09-.61.75A5,5,0,0,0,113.43,255.85Z"/><path class="cls-2" d="M126.4,278.63c-1.78-4.16-5.34-7.52-5.58-12.37.21-.19.41-.39.6-.59l6.86,5.11a36.71,36.71,0,0,0,8.06,7.06A26,26,0,0,1,126.4,278.63Z"/><path class="cls-4" d="M102.07,174.93a12.56,12.56,0,0,1-4.84-4.1c-.16-1.46-.59-2.67-2.39-2.67l.14.08A1.11,1.11,0,0,0,94,167l0,.09c.63-2-.58-3.47-1.17-5.16-2.53-7.25-3.92-14.57-.93-22.07l.38,1.9c-.47,5.11,2.33,8.16,6.69,9.8,6.28,2.37,10.73,5.94,10.44,13.34a4.29,4.29,0,0,1-.14.73c-.15,3.59,1.64,6.33,4,8.75,8.78,9.13,25.94,12.38,37.2,6.73,2.68-1.34,6.54-2.17,6.57-6.48l0,.1,1.18-1-.12.11,1-1.21-.12.12a1,1,0,0,0,1-1.22l-.11.06c1.09.11,1.29-.64,1.43-1.46,2.85-5.22,5-10.53,11.84-12.7s8.43-9,9.1-16.12c-17,4.79-33.11,3.43-49-2.2-.86-3.37-1.46-6.82-.65-10.22a18.66,18.66,0,0,0,.36-8.75c3.63-3-.72-6.19.33-9.24a2,2,0,0,0,.83-2.43.34.34,0,0,1,.15-.51c2.08-.17,2.48-2,3.24-3.39,2.79-5.29,5.4-10.69,6.53-16.58.57-2.94,1.52-3.08,3.9-1.88a56.05,56.05,0,0,1,11.45,7.8c-.58,2-3.69,2.36-3.11,5l.08-.11c-1.27-.81-1.56.2-1.95,1-.64,4-4.3,6.92-4,11.25-.39,1.46-2.09,2.48-1.42,5.09,4.82-5.8,9.77-10.52,17-11.69A61.46,61.46,0,0,1,156.22,117c-.45.55-1.46.79-1,1.83-1.09,2.06-3.81.22-5,2.08-2.09,1.09-6.58-1.4-5.82,3.92-.79,3.81,1.35,5.76,4.49,7.07,2.91,4,7.49,5.19,11.73,6.91.83.33,2.13.63,2.44-.68s-1.08-1.41-1.93-1.75c-3.35-1.37-7-2.05-9.92-4.4-.09-2.25.53-3.64,3.14-2.49s5.06,2.28,7.63,3.34c4,1.66,7.47,5,12.33,4,3.28.05,4-1.23,1.78-3.71-1.88-2-4-3.9-6-5.84-.28-1.12-1.14-1.28-2.1-1.27l.12.08a1.18,1.18,0,0,0-1.37-.82l.1.18c-.07-1.4-1-1.43-2-1.22l.14.15c-.38-1.85-1.81-1.31-3-1.33l.07.09c0-1,.09-2.05.14-3.08,3.27.38,6.1,2,10.05,4.21-1.88-3.54-4.35-4.33-6.15-5.85a4.33,4.33,0,0,1,.68-4.91c2.29-2.73,4.31-5.68,6.44-8.54,9.74,4.48,7.42,13,6.51,22.19,2.76-3.45,2.87-6.45,3.66-9.18,1.54-.81,2.17-3.32,4.44-2.68,5.07,1.43,10.09,3,15.12,4.57.09,0,.08.31.15.46,1.36,3.24-.48,7.85-3.8,9.53-1.64.82-3.34,1.55-4.88,2.52-9.64,6-9.81,15.59-.31,21.92,1.69,1.12,2.1,1.93,1.52,4-2.18,7.61-.68,11,6.34,14.33,1.92.89,2.34,1.33,1,3.06-3.58,4.61-7.18,9.21-12.12,12.44-13.19,8.65-27.54,9.45-42.6,6.43-6.14-1.24-12.17-4.51-18.46-3.39-9.43,1.68-15.62-2.4-20.71-9.49-.66-.91-.81-2.24-2.18-2.55l0,.07a1,1,0,0,0-.86-1.2l.05,0C106.06,175.28,104.27,174.82,102.07,174.93Zm8.72,2.47c2.55,5.25,5,6.68,9.37,5.66A71.19,71.19,0,0,1,110.79,177.4Z"/><path class="cls-5" d="M146,17.66C156.05,5.41,169.65,2,184.53,3.47,207.18,5.72,223,18.4,234.41,37.59,244.92,55.28,247,74.88,248.3,94.73a136,136,0,0,0,3,21.74,17.86,17.86,0,0,0,3.29,7.57c1.17-1.81.91-3.27-.41-5.25,12.77,8,15.61,27.74,6.08,37.27,0-2.14-1-3.6-3.14-4.08a8,8,0,0,0-.94-5.28c-6.22-12.63-10.42-26.06-14.9-39.34-3.89-11.55-5-23.86-8.94-35.44-1-2.82-3.66-4.47-4.09-7.69-1.29-9.66-5.26-18.55-10.13-26.76C209.59,23.16,197.32,13.94,179.86,14c-3.19,0-7.28-2.43-9.69,2l-.21.14-.2-.15c-6.43-4.65-12.35-4.75-18.91-.32-1.37.92-2.72,1.86-4.08,2.8Z"/><path class="cls-6" d="M150.34,111.11c-.34-4.33,3.32-7.26,4-11.25.91.14,1.75.15,1.95-1l-.08.11c2.87-.77,5.72-1.75,8.64-2.26,6.24-1.08,12.16-.58,17.54,3.46A93.07,93.07,0,0,0,206.48,113c2.4.88,3.6,1.87,2,4.67a9.31,9.31,0,0,0-1.26,5.75c1,5.47-2.08,7.77-6.33,9.6a32.57,32.57,0,0,0-5.73,3c-6.85,4.77-6.2,11.8,1.37,15.29a43.51,43.51,0,0,0,4.86,1.56c-1,2.57-2.4,4.84-2.57,7.52-.21,3.42.83,6.21,3.74,8.19s5.93,1.82,9,.24c3.58-1.86,5.75-5,7.54-8.43,1.58-3,3.71-5,7.09-5.67-.48,2.86-2.2,6.35,3.16,6.27-2.94,2-5.89,4.08-8.82,6.13-2.49,1.74-1.29,2.82.69,3.75l1.11,1-.05,0,1.08,1,0,0c0,2.28,0,4.57-.05,6.85-4.41,3.91-8,1.09-11.65-1.69,1.16,3.45,2.62,6.33,6.66,6.21,4.26-.13,7.9-1.65,9.79-5.71,2.11-4.55-.78-7.46-4-10a5.92,5.92,0,0,1,.82-.92c9.49-6.52,12.15-6.33,19.34,1.36.3,1.78-.54,3.25-1.29,4.73-6.38,12.6-16.13,19.57-30.76,18.35l.06,0c-.53-1.16-1.59-1-2.57-1.06a2,2,0,0,1-2.14-1c-3.66-6.71-7.36-3.84-12.22-.93-17.43,10.41-36.23,11-55.46,6.15-3.57-.89-6.85-1.4-10.68-.51-10.17,2.35-20.41-5.12-22.23-15.6,1.37.31,1.52,1.64,2.18,2.55,5.09,7.09,11.28,11.17,20.71,9.49,6.29-1.12,12.32,2.15,18.46,3.39,15.06,3,29.41,2.22,42.6-6.43,4.94-3.23,8.54-7.83,12.12-12.44,1.35-1.73.93-2.17-1-3.06-7-3.29-8.52-6.72-6.34-14.33.58-2,.17-2.85-1.52-4-9.5-6.33-9.33-15.87.31-21.92,1.54-1,3.24-1.7,4.88-2.52,3.32-1.68,5.16-6.29,3.8-9.53-.07-.15-.06-.43-.15-.46-5-1.54-10.05-3.14-15.12-4.57-2.27-.64-2.9,1.87-4.44,2.68.62-15-12.15-20.17-22.66-15.09A36.48,36.48,0,0,0,150.34,111.11Z"/><path class="cls-2" d="M128.27,261.41a203.34,203.34,0,0,0-31.6-20.73c-13.29-6.84-27.24-11.35-42.3-11.94,3.39-5.62,7.1-11,12-15.46.35,7.34.73,7.71,7.65,7.63a8.43,8.43,0,0,0,2.47-.07c4.46-1.54,10,.84,13.61-3.35,4.28-5,8.11-10.44,12.14-15.69,7.61,2.79,15.06,6.08,23.23,7a14.85,14.85,0,0,1-1.84,2.23c-9.09,7.45-12.61,16.1-7.54,27.69,1.88,4.29,3.66,6.31,8.24,5a1.8,1.8,0,0,1,.72,2.15c-1.61,5.2-1.68,10,3.14,13.76A1.29,1.29,0,0,1,128.27,261.41Z"/><path class="cls-7" d="M138.23,221.91c3.65-3,7.63-3.27,12.11-2a75.25,75.25,0,0,1,25.17,12.33,62,62,0,0,1,5.7,12.84c-1.47,2.19-.92,4.81-1.56,7.21-2.27,8.48-5.23,11-14,10.61-5.46-.22-10.72-1.78-16-3a13,13,0,0,1-9.65-8.42,11.33,11.33,0,0,0,2.53-2.33c.88-1.52-.57-.87-1.17-1-4.86-3-5.8-7.39-4.29-12.58l2.19-2.65v0c.62,0,.82-.35.88-.87.7-.56,1.31-1.6.45-2C136.39,228.25,137.52,225.06,138.23,221.91Z"/><path class="cls-7" d="M51.63,180.79c-.89-1.65-1.53-.15-2.26.18-6.68,0-13.91,1.33-16.93-7.23.05-.47.1-1,.14-1.42a1,1,0,0,0,.75-1.29l.68-.4-.45-.45-.36.7c-.68,0-1,.34-1,1a1.48,1.48,0,0,0-.78.09c-5.48.87-10-.72-13.41-5.19,0-2.24,2.93-3.44,2.13-6,1,.2,1-.38.9-1.08l.41,0-.34.08-.9,1.1L18.51,162c-3.64-.81-5.17-4.33-8-6.21,3.94-5.73,9.51-8.54,16.31-9.15,5,.1,9.5,2.63,14.42,3.19.06.26.11.51.17.76l.44-.16-.66-.56c-2.46-2.71-6.13-3-9.17-4.61,12.65-3.95,30.92,11.35,32.34,25a5.69,5.69,0,0,1-.48,1.86c-2.38-3-2.32-7.61-6.7-9.41a55.8,55.8,0,0,1,5.15,13.57,46.31,46.31,0,0,1-10,21.19,13.34,13.34,0,0,1-5,3.92c-1.91-7.48-1.83-7.67,4.9-11.55C57,187.13,56.87,184.91,51.63,180.79Zm4.57-19.9-1-1c-.45-.82-1.27-.82-2-.93l-.11-.16.07.12c.63.51,1,1.56,2.15.93-.7.86.06,1.1.61,1.44l.91.78c.1-.13.29-.35.27-.37C56.82,161.41,56.51,161.15,56.2,160.89Z"/><path class="cls-8" d="M231,224.69l.3,1.18c-5.57,7.51-12,14.08-20.21,18.79-5.87,3.35-11.57,6.57-18.5,3.1q-1.28-5.88-2.54-11.78a54.79,54.79,0,0,0,13.48-8.29c1.5-1.23,3.39-2.34,2.61-4.83h0c.77.1,1.07-.26,1-1h0c2.3.1,2.28-1.36,2-3v0c1.2-.24,1.09-1.15,1-2l0,0c1.37-.62.88-1.88,1-2.93-.14-.84.51-1.84-.51-2.49-.46.77-1.13,1.51-.39,2.47l0-.05c-2.38-.3-2.27,2.49-3.89,3.13-1.85-.33-3.56.25-5.33.71a36.66,36.66,0,0,1-19,.14c-3.58-1-7.16-2.19-7.75-6.57-.54-4,2.49-5.75,5.31-7.52,3.11.38,6.2.9,9.32,1.11a110.22,110.22,0,0,1,22.93,3.49C220.51,210.85,228.85,214.31,231,224.69Z"/><path class="cls-9" d="M140,251.47a13,13,0,0,0,9.65,8.42c5.29,1.24,10.55,2.8,16,3,8.76.35,11.72-2.13,14-10.61.64-2.4.09-5,1.56-7.21l.11,0c2.36,2.52,3.1,6.93,7.81,6.72a27.29,27.29,0,0,1-3,14.67c-2.46,5-5.12,5.63-10,2.31,3.29-2.23,4.12-5.58,4.08-9.37-.88,3.51-3.56,5.79-5.55,8.54-10.48,4.22-20.1-1-30.13-2.6l3.53,2.59-6.68,3.56c3.14,1.05,7.34-3.76,9,2.7.87-2.35.09-3.85-.46-5.38,1.74.51,3.49,1,5.22,1.56,1.22.39,2.85.53,2.75,2.31a4.27,4.27,0,0,1-2.64,4c-4.17,1.27-8.35,2.32-12.82.48-10.89-4.49-10.94-4.37-10.8-18.47C135.24,257.26,136.12,252.64,140,251.47Z"/><path class="cls-10" d="M223.24,150.82c-4,2.5-5.75,6.75-8.25,10.41a15.42,15.42,0,0,1-3.91,4.45c-2.29,1.54-4.71,2-7,.38s-3.1-4-2.1-7a14.19,14.19,0,0,1,7-8.63,10.2,10.2,0,0,0,5.08-4.8c-4.84,1.76-8.71,4.1-13.4,3.48-3.22-.42-6-1.3-7-4.56-1.05-3.44,1.6-5.14,4.05-6.59,3-1.76,6.13-3.26,9.18-4.93a5.45,5.45,0,0,0,3-6.62,5.87,5.87,0,0,1-.24-2.91c.58-1.82,0-4.55,2.19-5.21,1.94-.59,2.94,1.81,4.15,3a83.94,83.94,0,0,1,11.31,14.48C228.77,141.56,228.29,146.82,223.24,150.82Zm-6-8.95.27-.38c-.08.14-.16.28-.23.42l-1,1c-.38.37-1.43.54-.39,1.33.11-.46.23-.92.35-1.38Zm8.81-1.33c-.19-1.27-.39-3-2.1-3.35-1.94-.41-2.49,1.22-2.8,2.74A13.06,13.06,0,0,1,216.8,147a9.58,9.58,0,0,0-2.31,3.76c-.48,1.35.21,2.29,1.83,1.93C219.4,152,226.09,143.75,226,140.54Zm-11.89-1.39c-.65-1.53-1-3.59-3.22-3.08a7,7,0,0,0-5.47,5.24c-.43,1.87,1.23,2.53,2.9,2.52C211.43,143.8,213.12,142,214.12,139.15Z"/><path class="cls-11" d="M209.25,110.84l-3.09-1c.25-2.82-1.44-3.91-3.75-5.09a125.64,125.64,0,0,1-16.34-9.37c-11.74-8.33-20.7-19.57-31.19-29.2a89,89,0,0,0-33.43-19.82c-2.78-.89-6.41,0-8.33-3.24l4.23-1.1c13.37,3.89,25.66,10,36.06,19.22,7.43,6.62,14.21,14,21.28,21A97.43,97.43,0,0,0,199.12,100c1.1.56,2.37,1.81,3.55.43.91-1-.24-2.17-.63-3.19a76.46,76.46,0,0,0-16.65-25.59c-7.79-8.59-15.93-16.72-27.2-20.75a1.56,1.56,0,0,0-2-1h0c-1.07-1.71-3-2.06-4.64-2.61-5.78-1.92-11.64-3.6-17.46-5.37l.63-2c7,.49,13.34,3,19.65,5.69,2,.84,3.85,1.89,6.07.91l0,.06a1.21,1.21,0,0,0,1.27,1.23,43.13,43.13,0,0,0,10.57,6.89c5.09,6,11.66,10.46,16.83,16.49C199.14,82.8,206.07,95.81,209.25,110.84Z"/><path class="cls-12" d="M92.21,135.86c0-1,.07-2.05.1-3.08.55.36,1.12.7,1.65,1.09,10.28,7.66,21,10.38,32.63,2.93.94-.6,1.86-.85,1.91.81-1.24.62-2.24,1.41-2,3a34.41,34.41,0,0,1-5.57,2.15c-4,.84-2.93,2.83-1.3,4.93,2.88,3.7,7.11,3.9,11,2.95,3.34-.82,5.21.12,7.35,2.32,2.9,3,7.19,4.22,10.54,2.44,5.64-3,11-4.15,17.22-2.63,4.38,1.07,7.51-3.1,11.56-3.89-2.73,6-9.81,9-16.58,7.35-1.5-.36-2.94-1.85-4.84.28-7.49,8.37-14.7,8.81-22.84,1.17-2.33-2.19-4-1.44-6.17-.76-7.89,2.43-13.73.21-17.55-6.95-1.16-2.19-2.39-3.31-5-3.05-5,.48-7.72-2.41-9-6.83-.5-1.77-1-3.17-3-3.28A1.06,1.06,0,0,1,92.21,135.86Z"/><path class="cls-5" d="M134.16,41.89c5.82,1.77,11.68,3.45,17.46,5.37,1.65.55,3.57.9,4.64,2.61-6.21.16-11.76-3.7-18-3-.34-.24-.67-.49-1-.72a3.68,3.68,0,0,0-.26.34l1.29.36c10.91,7.61,21.23,15.91,30.3,25.69,1,1,1.86,2.42,3.75,1.78,3.07-1,6.28-.57,9.4-.43,2,.1,2.88-.87,3.72-2.29A76.46,76.46,0,0,1,202,97.22c.39,1,1.54,2.14.63,3.19-1.18,1.38-2.45.13-3.55-.43A97.43,97.43,0,0,1,174.69,82.2c-7.07-7-13.85-14.37-21.28-21C143,52,130.72,45.88,117.35,42,122.94,41,128.55,42.09,134.16,41.89Z"/><path class="cls-13" d="M209.25,110.84c-3.18-15-10.11-28-20.09-39.72-5.17-6-11.74-10.47-16.83-16.49l5.75,1.26a19.11,19.11,0,0,0,2.65,2.93c12.63,9.21,21.63,21.24,28.15,35.35,6.06,13.12,12.72,26,22.45,36.83,7.45,8.32,14.18,17.65,25.75,21,2.18.48,3.1,1.94,3.14,4.08l-3.46,2.77c-2.79,2.24-5.08,2.85-6.85-1.32a9.21,9.21,0,0,0-5.42-5c-4.33-1.51-6.32-4.87-8.37-8.6A113.89,113.89,0,0,0,209.25,110.84Z"/><path class="cls-6" d="M159.28,93.89a56.05,56.05,0,0,0-11.45-7.8c-2.38-1.2-3.33-1.06-3.9,1.88-1.13,5.89-3.74,11.29-6.53,16.58-.76,1.42-1.16,3.22-3.24,3.39.62-4.56,2.36-8.9,2.51-13.56.21-6.8-1.67-10-7.43-12.34-1.48-2.56-5.33-2.6-6.19-5.82,2.54-5.86,7.77-7.41,12.37-3,3.21,3.09,7.34,5.64,8.55,11,1.74-5.45,1.47-7.49-1.55-13.9,12.8.62,18.28,11.48,27.12,19.07A26.09,26.09,0,0,0,159.28,93.89Z"/><path class="cls-13" d="M179.6,203.78c-2.82,1.77-5.85,3.53-5.31,7.52.59,4.38,4.17,5.62,7.75,6.57a36.66,36.66,0,0,0,19-.14c1.77-.46,3.48-1,5.33-.71-4,6.78-10.39,10.54-17.35,13.56a3.58,3.58,0,0,1-3.76-.3c-2.56-1.75-5.29-2.78-8.45-1.55-1,.41-2-.32-2.73-.91-5.88-4.5-12.61-7.29-20.47-9.86,7.59-7.68,14.6-14.76,25.85-14.75A2.3,2.3,0,0,0,179.6,203.78Z"/><path class="cls-6" d="M128.5,137.61c-.05-1.66-1-1.41-1.91-.81-11.64,7.45-22.35,4.73-32.63-2.93-.53-.39-1.1-.73-1.65-1.09-7.39-8.32-8.26-14.45-3.29-23,1,5.18,3,9.83,7.68,12.75a55.16,55.16,0,0,0,19.41,7.18c8.23,1.47,13.56-1.9,16.77-9.64l0,0a18.66,18.66,0,0,1-.36,8.75c-.81,3.4-.21,6.85.65,10.22C131.41,139.17,130,138.28,128.5,137.61Zm.61-2.83c-.24.33-.75.88-.68,1,.65.81.94,0,1.32-.38l.27-1.13Z"/><path class="cls-13" d="M143.82,66.31c-4.08-.66-7.94-2.17-12.13-2.64-2.85-.32-4.29.4-5.7,2.5-1.94,2.9-4.11,5.65-5.95,8.6-1.17,1.9-2.06,2-3.85.67a56.46,56.46,0,0,1-15.28-16.21c-3.22-5.31-1.13-8.95,5.14-9.39,6.85-.49,13.15,1.87,19.28,4.35a69.63,69.63,0,0,1,19.16,11.44C144.26,65.85,144,66.08,143.82,66.31Z"/><path class="cls-13" d="M78.33,171.93c-1.59-3.87-6.38-3.78-8.57-6.91,2.07-.59,2.58-2.45,3.32-4.1a22.14,22.14,0,0,0,1.12-16l10.53,2.86c.59,12.72,5.63,23.05,16.28,30.37,2.49,1.7,3.33,3.2-.28,4.63-2.46,1-4.79,2.27-7.18,3.43-3.68-3.87-5.67-9.46-11.41-11.24h0C82.19,172.31,80.52,171.79,78.33,171.93Z"/><path class="cls-2" d="M129.31,209c4.46-1.68,6.68-6.31,10.92-8.32,1.48-.7,2.68-1.7,4.59-1.26a68.14,68.14,0,0,0,31.53-.19c.79-.18,1.64-.21,2.66,1.15-11.83.18-19.45,7.37-26.7,15-2.53,2.67-5.22,1.38-7.2.15-9.58-6-13.1-5.66-21.1,2.48a7.6,7.6,0,0,1-1.65,1c-1.36-1.9.21-2.84,1.27-4Q126.48,212,129.31,209Z"/><path class="cls-13" d="M113.12,43.09c1.92,3.22,5.55,2.35,8.33,3.24a89,89,0,0,1,33.43,19.82c10.49,9.63,19.45,20.87,31.19,29.2a125.64,125.64,0,0,0,16.34,9.37c2.31,1.18,4,2.27,3.75,5.09-15.66-5.76-28.49-15.59-40-27.47-8.43-8.73-16.62-17.7-27.21-24.09s-21.65-11.31-34.92-11.61C106.92,43.72,110.19,43.84,113.12,43.09Z"/><path class="cls-13" d="M192.61,247.76c6.93,3.47,12.63.25,18.5-3.1,8.24-4.71,14.64-11.28,20.21-18.79,1.2,5.78-1.89,10.38-4.64,14.8-3.78,6.08-9.33,10.54-15.5,14.16-.42-.59-.71-.4-1,.16l.06-.08L209.22,256l.07-.05c-.85.05-1.71.05-2.07,1.06l.07,0c-5.58.06-10,4.62-15.74,4.06Q192.08,254.38,192.61,247.76Z"/><path class="cls-8" d="M84.73,147.76,74.2,144.9c-.61-.88-1.22-2.11-2.43-1.52-.45.22-.29,1.66-.4,2.55-3.21,3.47-4.5,8.89-10.09,9.94a50.85,50.85,0,0,0-16.2-12.58c.73-.38,1.5-.7,2.2-1.13,9.83-6,19.86-7.58,30.34-1.59,1.38.78,2.83,1.79,4.63,1.27h0c0,.72.38,1,1,1l0,0,1.13,1.48.6,1.6Z"/><path class="cls-2" d="M70.39,210c3.62,4.58,7.43,5.57,12.64,3.17a24.55,24.55,0,0,0,10.5-9.66c2.3-3.66,2.63-7.32-.91-10.32-2.27-1.93-.9-2.59.67-3.49s2.86-1.7,4.33-2.47c7.24-3.76,7.13-3.68,11.51,3.15,1.24,1.93-.11,2.21-1,3l-7,6.31c-1.88,2.06-3.78,4.11-5.64,6.19-4.63,5.18-7.53,11.78-16.65,11.83C70,217.81,69.8,218.71,70.39,210Z"/><path class="cls-9" d="M32.44,173.74c3,8.56,10.25,7.25,16.93,7.23-1.48,3.43-4,6.08-6.5,8.75-7,7.6-14.11,6.45-18.34-2.95C27.09,182.38,28.62,177.36,32.44,173.74Z"/><path class="cls-13" d="M160.51,46.45c-2.22,1-4.09-.07-6.07-.91-6.31-2.71-12.69-5.2-19.65-5.69,1.42-6.52,3.37-12.78,8.37-17.6l1.07-.23c1.22,8.55,6,14.59,13.29,18.86C158.52,42.74,159.52,44.59,160.51,46.45Z"/><path class="cls-4" d="M212.15,192c14.63,1.22,24.38-5.75,30.76-18.35.75-1.48,1.59-2.95,1.29-4.73.06-7-3.42-10-10.08-8.78-1.61.29-3.2.61-4.8.92-5.36.08-3.64-3.41-3.16-6.27.38-.92,1.17-.9,2-.85a1.71,1.71,0,0,0,1.72.68c11.75-1.7,19.06,5.83,16.79,17.33-.23,1.18-.54,2.26.25,3.32l-.08.31c-1.67-.36-1.47.65-1.23,1.68l-.25-.18.28.14c-.77,0-1.12.35-.85,1.14l0,.09c-1.47-.23-1.42.81-1.48,1.75-4.8,6.18-10.65,11-18.29,13.1C220.61,194.46,216.18,194.75,212.15,192Z"/><path class="cls-4" d="M132.88,120.09c-3.21,7.74-8.54,11.11-16.77,9.64a55.16,55.16,0,0,1-19.41-7.18C92,119.63,90,115,89,109.8l.63-.91,3.53-2a13.35,13.35,0,0,0,3.87,10.42c5.66,6,13,7.68,20.84,7.59,6.52-.07,10.91-4.12,11.33-10l2.05,0-.05-.07c.21,1.09-.21,2.4,1.07,3.12A2.15,2.15,0,0,1,132.88,120.09Z"/><path class="cls-13" d="M139.07,198.39c-5.1,2.22-7.08,7.38-11.89,7.54-7.08.24-13.58-2.61-20-5.24a1.28,1.28,0,0,1-.82-1.92c1.24-2.88,6.6-4.94,9.44-3.5,5.07,2.56,10.26,3.67,15.83,1.8C133.76,196.34,135.81,196.87,139.07,198.39Z"/><path class="cls-9" d="M51.63,180.79c5.24,4.12,5.37,6.34.57,9.1-6.73,3.88-6.81,4.07-4.9,11.55a6.71,6.71,0,0,1-4.07,1.68c-8.26.94-21.79-6-25.84-13.34,4.42-.11,4.42-.11,6.94,3,5.23,6.45,11.38,7.05,17.7,1.6C46.35,190.67,50.07,186.48,51.63,180.79Z"/><path class="cls-9" d="M10.53,155.81c2.81,1.88,4.34,5.4,8,6.21-2.69,5.34-7.23,9.9-7,16.49-6.3,0-9.72-4.24-8.06-10.38A26.48,26.48,0,0,1,10.53,155.81Z"/><path class="cls-9" d="M18,166.75c3.41,4.47,7.93,6.06,13.41,5.19-2.64,5.05-7.09,9.06-8.55,14.8-6.25,1-7.87-4-10.28-8C14.31,174.72,14.56,170,18,166.75Z"/><path class="cls-14" d="M90.07,195.89c2.07,6.92-4.7,15.68-12.07,15.56A5.05,5.05,0,0,1,73,208c1.91-1.46,1.14-3.44,1-5.29l-.13-.05c6,.48,10.81-1.42,14.28-6.5C88.42,195.83,89.42,196,90.07,195.89Z"/><path class="cls-9" d="M137.08,235.57c-1.52,5.2-.58,9.56,4.28,12.59-3.3,3.48-8.9,4.76-9.94,10.4-4.74-2.92-5.72-7-3.45-11.88a4.13,4.13,0,0,0,.06-4.21c1.66.71,2.35-.58,3.26-1.53C133.12,239,134.56,236.73,137.08,235.57Z"/><path class="cls-3" d="M70.39,210c-.59,8.67-.36,7.77,8.38,7.73,9.12-.05,12-6.65,16.65-11.83,1.86-2.08,3.76-4.13,5.64-6.19l1.14,2.05c-4,5.25-7.86,10.66-12.14,15.69-3.57,4.19-9.15,1.81-13.61,3.35a8.43,8.43,0,0,1-2.47.07c-6.92.08-7.3-.29-7.65-7.63C67.8,212.34,67.89,209.68,70.39,210Z"/><path class="cls-5" d="M179.6,203.78a2.3,2.3,0,0,1-.11-.57,120.51,120.51,0,0,1,34.45,2.93,29.43,29.43,0,0,1,11.49,5.68c4.17,3.28,6.69,7.29,5.59,12.87-2.17-10.38-10.51-13.84-19.17-16.31a110.22,110.22,0,0,0-22.93-3.49C185.8,204.68,182.71,204.16,179.6,203.78Z"/><path class="cls-3" d="M129.31,209q-2.84,3-5.68,6.05c-1.06,1.12-2.63,2.06-1.27,4l-.13,0c-4.2,1.22-6.74,4.94-5.82,8.82.85,3.62,2.08,7.15,2.87,10.78.53,2.44,2.09,2.66,4,2.55l1,2.61c-4.58,1.31-6.36-.71-8.24-5-5.07-11.59-1.55-20.24,7.54-27.69a14.85,14.85,0,0,0,1.84-2.23Z"/><path class="cls-12" d="M193.45,196.19c-1.78,1,.9,3.87-2.11,3.77-2.46-.08-5.1.73-7.32-.57-1.22-.72-.17-1.86.79-2.14a54.45,54.45,0,0,0,15.47-7.87c1.44-1,2.44-.24,3.49.72a4.6,4.6,0,0,1,1.24,5c-1.29,4.1-6.73,5.55-10.07,2.76A14.58,14.58,0,0,1,193.45,196.19Z"/><path class="cls-7" d="M189.13,251.85c-4.71.21-5.45-4.2-7.8-6.72-.4-4.62-.55-9.32-3.8-13.11,4.29-2.09,6.87.48,8.72,3.67C189.13,240.65,189.74,246.18,189.13,251.85Z"/><path class="cls-9" d="M138.23,221.91c-.71,3.15-1.84,6.34,2.35,8.19.86.38.25,1.42-.45,2-.51.07-1.08.08-.88.87v0c-5.51,1.15-8.87,4.8-11.2,9.64-3.43-2.87-2.49-6.36-.56-9.24C130.41,229,133.42,224.55,138.23,221.91Z"/><path class="cls-13" d="M61.28,155.87c5.59-1.05,6.88-6.47,10.08-9.94,1,.87.76,2.08.92,3.21.82,5.8-2.2,10.55-4.14,15.6C64.1,163.14,63.91,158.56,61.28,155.87Z"/><path class="cls-12" d="M132.88,120.09a2.15,2.15,0,0,0-.59-2.15,4,4,0,0,0-1.07-3.12l.05.07a4.82,4.82,0,0,0-1.91-3.2l0,0c-4.16-7-11-10.32-18.26-12.88a2.53,2.53,0,0,1,1.53-2.08l1.9.13,1.54.13a5.42,5.42,0,0,0,4,1.94l3.38,2,1.84,1.36c2.69,2.41,4.28,5.94,7.71,7.6l.14,1c-1.05,3.05,3.3,6.29-.33,9.24Z"/><path class="cls-7" d="M111.15,98.78c7.31,2.56,14.1,5.87,18.26,12.88a4,4,0,0,1-4-1.14c-8.07-7.34-16.89-12-28.14-7.62l-.86-.65C100.75,98.81,105.84,98.31,111.15,98.78Z"/><path class="cls-5" d="M82.25,141.84c-1.8.52-3.25-.49-4.63-1.27-10.48-6-20.51-4.41-30.34,1.59-.7.43-1.47.75-2.2,1.13-1.91-.38-2.34-1-.53-2.33C54.82,133.41,71.84,131.72,82.25,141.84Z"/><path class="cls-2" d="M123.32,241.12c-1.95.11-3.51-.11-4-2.55-.79-3.63-2-7.16-2.87-10.78-.92-3.88,1.62-7.6,5.82-8.82-2.27,4.89-3.26,9.48.47,14.47C124,235.18,123.17,238.52,123.32,241.12Z"/><path class="cls-15" d="M127,219.58c4.4-6,10-7.32,14.92-3.29A54.37,54.37,0,0,0,131,223.81C129.47,222.62,129.44,219.94,127,219.58Z"/><path class="cls-12" d="M223.24,150.82c5-4,5.53-9.26,4.12-15,3.14,3,4.77,7.09,7,10.7.58.92,1.28,3,0,2.86C230.5,149.05,227.2,152.54,223.24,150.82Z"/><path class="cls-15" d="M90.07,195.89c-.65.09-1.65-.06-1.89.3-3.47,5.08-8.32,7-14.28,6.5,2-5.6,6.19-8.43,11.94-8.91C87.45,193.65,89.74,193.06,90.07,195.89Z"/><path class="cls-16" d="M246.89,175.22c-.79-1.06-.48-2.14-.25-3.32,2.27-11.5-5-19-16.79-17.33a1.71,1.71,0,0,1-1.72-.68c7.31-2.59,14.26-1.14,18.61,3.87C250.74,162.39,250.79,168.37,246.89,175.22Z"/><path class="cls-16" d="M92.21,135.86a1.06,1.06,0,0,0,.05.95l-.36,3.08c-3,7.5-1.6,14.82.93,22.07.59,1.69,1.8,3.2,1.17,5.16-6.94-9.32-7.58-19.45-3.91-30.15C90.48,135.85,91,135.23,92.21,135.86Z"/><path class="cls-11" d="M68.14,164.74c1.94-5.05,5-9.8,4.14-15.6-.16-1.13.1-2.34-.92-3.21.12-.89,0-2.33.41-2.55,1.21-.59,1.82.64,2.43,1.52a22.14,22.14,0,0,1-1.12,16c-.74,1.65-1.25,3.51-3.32,4.1Z"/><path class="cls-4" d="M123.05,76.22c.86,3.22,4.71,3.26,6.19,5.82-5.19.86-8.14,5-11.86,8,.18-1.81.37-3.63.55-5.45l-.13,0c1.33-.15,1.36-1,1.15-2l-.08.13c1.31-.29,1.25-1.33,1.29-2.33A7.77,7.77,0,0,1,123.05,76.22Z"/><path class="cls-14" d="M127,219.58c2.45.36,2.48,3,4,4.23a16.83,16.83,0,0,1-2.9,3.25c-1.29.86-1.48,4.15-3.7,2.55-1.77-1.29-1.81-3.74-.28-5.74.93-.41,1-1.21,1-2.09l-.08.07,1.08-1.11-.12,0a1.12,1.12,0,0,0,1.08-1.08Z"/><path class="cls-5" d="M206.16,222.86c.78,2.49-1.11,3.6-2.61,4.83A54.79,54.79,0,0,1,190.07,236c-1.41-1.33-.92-2.27.65-2.9C196.57,230.73,201.39,226.83,206.16,222.86Z"/><path class="cls-2" d="M18,166.75c-3.41,3.27-3.66,8-5.42,12l-1.05-.23c-.23-6.59,4.31-11.15,7-16.49l1.67-1.17-.07-.07C20.9,163.31,18,164.51,18,166.75Z"/><path class="cls-8" d="M191.55,261c5.74.56,10.16-4,15.74-4.06-3.91,3.52-8.93,4.81-13.64,6.69-.85.34-2.18,1.66-2.93.09C190.42,263.09,191.24,261.92,191.55,261Z"/><path class="cls-2" d="M22.83,186.74c1.46-5.74,5.91-9.75,8.55-14.8a1.48,1.48,0,0,1,.78-.09c.14.16.28.32.43.47l-.15,1.42c-3.82,3.62-5.35,8.64-7.91,13Z"/><path class="cls-2" d="M62.35,176.33a55.8,55.8,0,0,0-5.15-13.57c4.38,1.8,4.32,6.42,6.7,9.41A3.86,3.86,0,0,1,62.35,176.33Z"/><path class="cls-2" d="M128.06,242.57c2.33-4.84,5.69-8.49,11.2-9.64l-2.19,2.65c-2.51,1.15-3.95,3.46-5.78,5.36-.91.95-1.6,2.24-3.26,1.53Z"/><path class="cls-2" d="M131.42,258.56c1-5.64,6.64-6.92,9.94-10.4.6.11,2-.54,1.17,1a11.33,11.33,0,0,1-2.53,2.33c-3.88,1.17-4.76,5.79-8.39,7.24Z"/><path class="cls-8" d="M82.14,175c5.74,1.78,7.73,7.37,11.41,11.24-1,1.14-1.91,1-2.8-.12Z"/><path class="cls-2" d="M177.53,232c3.25,3.79,3.4,8.49,3.8,13.11l-.12,0a62,62,0,0,0-5.7-12.84A1.62,1.62,0,0,1,177.53,232Z"/><path class="cls-2" d="M32,145.28c3,1.57,6.71,1.9,9.17,4.61l0,0c-4.92-.56-9.41-3.09-14.42-3.19C28.35,145.33,29.92,144.27,32,145.28Z"/><path class="cls-2" d="M149.9,268.87c.55,1.53,1.33,3,.46,5.38-1.65-6.46-5.85-1.65-9-2.7l6.68-3.56C148.85,267.9,149.57,268,149.9,268.87Z"/><path class="cls-16" d="M117.93,84.63c-.18,1.82-.37,3.64-.55,5.45.51,1.32-1.66,2.48-.23,3.86l.12-.09c-1.35-.64-1.18.28-1.11,1.08l.07-.09c-1.3,0-1.1,1.33-1.65,2l-1.9-.13C113.38,92.22,115.48,88.35,117.93,84.63Z"/><path class="cls-2" d="M174.65,268c2-2.75,4.67-5,5.55-8.54,0,3.79-.79,7.14-4.08,9.37C175.46,268.84,174.87,268.76,174.65,268Z"/><path class="cls-15" d="M74,202.74c.13,1.85.9,3.83-1,5.29C71.69,206,72.21,204.22,74,202.74Z"/><path class="cls-2" d="M127.27,265.87c-2.07-.42-3.37-1.84-4.51-3.47l.74-.82,3.74,2.31C127.41,264.55,127.94,265.2,127.27,265.87Z"/><path class="cls-8" d="M78.33,171.93c2.19-.14,3.86.38,3.83,3A6.48,6.48,0,0,1,78.33,171.93Z"/><path class="cls-6" d="M102.07,174.93c2.2-.11,4,.35,4.08,3.06A8,8,0,0,1,102.07,174.93Z"/><path class="cls-7" d="M93.18,106.84l-3.53,2a8.35,8.35,0,0,1,3.09-3.71,3.61,3.61,0,0,0,.46.69l0,1Z"/><path class="cls-7" d="M93.55,104.39l2.81-2.14.86.65a3.08,3.08,0,0,1-3,2A6.36,6.36,0,0,0,93.55,104.39Z"/><path class="cls-5" d="M209.17,218.85c.27,1.63.29,3.09-2,3A3,3,0,0,1,209.17,218.85Z"/><path class="cls-16" d="M94.84,168.16c1.8,0,2.23,1.21,2.39,2.67A4.75,4.75,0,0,1,94.84,168.16Z"/><path class="cls-5" d="M211.15,214c-.11,1,.38,2.31-1,2.93,0-1,.08-2,.13-3l0,.05.44.17Z"/><path class="cls-16" d="M120.16,80.43c0,1,0,2-1.29,2.33Z"/><path class="cls-16" d="M119,82.63c.21,1,.18,1.89-1.15,2C118.18,84,118.56,83.31,119,82.63Z"/><path class="cls-5" d="M84.38,144.3l-1.13-1.48c1.09-.38,1.62.16,1.88,1.15A2.64,2.64,0,0,0,84.38,144.3Z"/><path class="cls-13" d="M84.38,144.3a2.64,2.64,0,0,1,.75-.33L85,145.9Z"/><path class="cls-8" d="M207.22,257c.36-1,1.22-1,2.07-1.06A2.38,2.38,0,0,1,207.22,257Z"/><path class="cls-16" d="M245.58,177.21c-.24-1-.44-2,1.23-1.68Z"/><path class="cls-5" d="M144.58,19.42l1.4-1.76.79.78-1.37,1.63Z"/><path class="cls-16" d="M243.26,180.15c.06-.94,0-2,1.48-1.75Z"/><path class="cls-4" d="M209.64,190.93c1,0,2-.1,2.57,1.06A2.26,2.26,0,0,1,209.64,190.93Z"/><path class="cls-5" d="M210.18,216.84c.07.88.18,1.79-1,2C209.06,218,209.21,217.2,210.18,216.84Z"/><path class="cls-15" d="M125.14,221.78c.06.88,0,1.68-1,2.09C124.15,223,124.14,222.16,125.14,221.78Z"/><path class="cls-5" d="M144.23,22l-1.07.23c-1.64-1.17,0-1.39.57-1.91.24.25.47.5.71.74A7.51,7.51,0,0,0,144.23,22Z"/><path class="cls-5" d="M83.28,142.85c-.65,0-1.06-.29-1-1C83,141.81,83.47,142,83.28,142.85Z"/><path class="cls-16" d="M244.76,178.31c-.27-.79.08-1.12.85-1.14Z"/><path class="cls-8" d="M210.23,255c.24-.56.53-.75,1-.16Z"/><path class="cls-8" d="M209.22,256l1.07-1.06Z"/><path class="cls-15" d="M127.1,219.71a1.12,1.12,0,0,1-1.08,1.08C126,220.06,126.17,219.5,127.1,219.71Z"/><path class="cls-13" d="M144.49,65.63c.17.25.54.63.46.75-.36.63-.76.27-1.13-.07C144,66.08,144.26,65.85,144.49,65.63Z"/><path class="cls-15" d="M126.14,220.74l-1.08,1.11C125.12,221.18,125.31,220.66,126.14,220.74Z"/><path class="cls-6" d="M106.1,178a1,1,0,0,1,.86,1.2Z"/><path class="cls-5" d="M207.16,221.84c.08.75-.22,1.11-1,1C206.14,222.16,206.41,221.77,207.16,221.84Z"/><path class="cls-2" d="M128.13,266.78l-.89-.94C128.14,265.58,128,266.29,128.13,266.78Z"/><path class="cls-5" d="M143.73,20.34l.85-.92.82.65-1,1Z"/><path class="cls-7" d="M92.74,105.18l.81-.79a6.36,6.36,0,0,1,.66.5c0,.33,0,.66,0,1h-1A3.61,3.61,0,0,1,92.74,105.18Z"/><path class="cls-16" d="M94,167a1.11,1.11,0,0,1,1,1.21C94.63,167.84,94.29,167.44,94,167Z"/><path class="cls-2" d="M53.1,233.71c8.11-5.31,45.26,7,54.89,18C90.93,242.53,73.42,234.68,53.1,233.71Z"/><path class="cls-2" d="M120.93,261.21l-2.2-1.8.78-.84,2.17,1.81Z"/><path class="cls-2" d="M110.11,252a4.35,4.35,0,0,1,.9.87c.41.68-.26.83-.62.75a1.79,1.79,0,0,1-1-.77C108.94,252.21,109.58,252.2,110.11,252Z"/><path class="cls-2" d="M113.43,255.85a5,5,0,0,1-1-.92c-.39-.66.25-.82.61-.75a1.84,1.84,0,0,1,1,.74C114.52,255.62,113.75,255.51,113.43,255.85Z"/><path class="cls-2" d="M116.94,258.2c-.74-.46-2.24-.86-1.39-1.87s1.55.35,2.13,1.05Z"/><path class="cls-2" d="M118.73,259.41c-.59-.41-1.19-.81-1.79-1.21l.74-.82,1.83,1.19Z"/><path class="cls-2" d="M121.68,260.38l1.81,1.2-.73.82-1.83-1.19Z"/><path class="cls-2" d="M120.82,266.26c-.33-.34-.63-.72-.08-1.07.09-.06.45.31.68.48C121.23,265.87,121,266.07,120.82,266.26Z"/><path class="cls-1" d="M91.9,139.89l.36-3.08c2.09.11,2.54,1.51,3,3.28,1.26,4.42,4,7.31,9,6.83,2.57-.26,3.8.86,5,3.05,3.82,7.16,9.66,9.38,17.55,6.95,2.19-.68,3.84-1.43,6.17.76,8.14,7.64,15.35,7.2,22.84-1.17,1.9-2.13,3.34-.64,4.84-.28,6.77,1.66,13.85-1.38,16.58-7.35,2.5-5.34-1.91-2.81-3.31-2.62a90.88,90.88,0,0,1-25.78-.15c-7.42-1.11-14.37-4-21.67-5.5-.2-1.59.8-2.38,2-3,1.49.67,2.91,1.56,4.64,1.48,15.92,5.63,32.07,7,49,2.2-.67,7.13-2.17,13.93-9.1,16.12s-9,7.48-11.84,12.7c-1-.05-1.13.8-1.43,1.46l.11-.06-1,1.22.12-.12-1,1.21.12-.11-1.18,1,0-.1c-4.46,3.25-9.19,5.76-14.85,6.34-14.07,1.46-25.33-2.92-32.89-15.34a3.48,3.48,0,0,0,.13-.73c1.44-2.65.89-5.75.26-8.13-.69-2.61-2.33-6.53-5.41-6.66-6.11-.25-9.34-3.63-12-8.35Zm41.77,27.81c-3.82.3-6.15,2.87-8.45,5.52-1.18,1.36-1.65,2.45.61,3.2,9.18,3,18.1,3.48,26.45-2.4a8.32,8.32,0,0,0,4.58-4.31c-4.45-1.67-9.06-.52-12.89-2A12.73,12.73,0,0,0,133.67,167.7Zm1.13-4.18c-2.37-3.66-4.83-5.09-8.86-3.13-2.36,1.15-5.22.52-7.87.25-1.85-.19-3.84-2.92-5.28-.89s-.09,4.9,1.11,7a36.6,36.6,0,0,0,4.31,5.45c1.48,1.74,2.94,2,4.34-.19C125.38,167.62,129.72,165.29,134.8,163.52ZM151,165.26c2.34.54,4.58,1.44,6.85,1.52,3.45.12,3.22-3.66,4.92-5.46a1.15,1.15,0,0,0-.55-2c-2.06-.54-4.08-1.06-5.86,1A54.55,54.55,0,0,1,151,165.26Z"/><path class="cls-1" d="M144.4,124.78c-.76-5.32,3.73-2.83,5.82-3.92l11.86,2.26L162,123l3,1.33-.14-.15,2,1.22-.1-.18,1.37.82L168,126l2.1,1.27c2,1.94,4.07,3.79,6,5.84,2.26,2.48,1.5,3.76-1.78,3.71C165.73,129.36,155.49,126,144.4,124.78Z"/><path class="cls-1" d="M117.15,93.94c-1.43-1.38.74-2.54.23-3.86,3.72-3,6.67-7.18,11.86-8,5.76,2.31,7.64,5.54,7.43,12.34-.15,4.66-1.89,9-2.51,13.56a.34.34,0,0,0-.15.51l-1,1.4c-3.43-1.66-5-5.19-7.71-7.6l4.75-4.35c3.15,1.14,4.67.25,4.12-3.27-.2-1.27.27-2.68-.89-3.72-1.12-5.13-4.66-6.82-8.62-3.71-2,1.6-4.48,3.07-5.59,5.7C118.33,93,118.22,94.38,117.15,93.94Z"/><path class="cls-12" d="M150.34,111.11a36.48,36.48,0,0,1,10.41-8.24C171.26,97.79,184,103,183.41,118c-.79,2.73-.9,5.73-3.66,9.18.91-9.18,3.23-17.71-6.51-22.19a6.43,6.43,0,0,0-5.05-.88l-2.21.45h-.07c-7.22,1.17-12.17,5.89-17,11.69C148.25,113.59,150,112.57,150.34,111.11Z"/><path class="cls-16" d="M109.27,165.66c7.56,12.42,18.82,16.8,32.89,15.34,5.66-.58,10.39-3.09,14.85-6.34,0,4.31-3.89,5.14-6.57,6.48-11.26,5.65-28.42,2.4-37.2-6.73C110.91,172,109.12,169.25,109.27,165.66Z"/><path class="cls-6" d="M144.4,124.78c11.09,1.23,21.33,4.58,29.91,12-4.86,1-8.33-2.37-12.33-4-2.57-1.06-5.09-2.23-7.63-3.34s-3.23.24-3.14,2.49l-2.32-.08C145.75,130.54,143.61,128.59,144.4,124.78Z"/><path class="cls-16" d="M168.19,104.07a6.43,6.43,0,0,1,5.05.88c-2.13,2.86-4.15,5.81-6.44,8.54a4.33,4.33,0,0,0-.68,4.91c-3.19-1.25-6.55-1.34-9.9-1.45a61.46,61.46,0,0,0,9.69-12.44H166A1.68,1.68,0,0,0,168.19,104.07Z"/><path class="cls-6" d="M92.28,141.79c2.63,4.72,5.86,8.1,12,8.35,3.08.13,4.72,4.05,5.41,6.66.63,2.38,1.18,5.48-.26,8.13.3-7.4-4.15-11-10.43-13.34C94.61,150,91.81,146.9,92.28,141.79Z"/><path class="cls-12" d="M156.22,117c3.35.11,6.71.2,9.9,1.45,1.8,1.52,4.27,2.31,6.15,5.85-4-2.16-6.78-3.83-10.05-4.21a15.6,15.6,0,0,0-7-1.26C154.76,117.74,155.77,117.5,156.22,117Z"/><path class="cls-12" d="M148.89,131.85l2.32.08c2.92,2.35,6.57,3,9.92,4.4.85.34,2.25.38,1.93,1.75s-1.61,1-2.44.68C156.38,137,151.8,135.85,148.89,131.85Z"/><path class="cls-16" d="M155.21,118.78a15.6,15.6,0,0,1,7,1.26c-.05,1-.09,2-.14,3.08l-11.86-2.26C151.4,119,154.12,120.84,155.21,118.78Z"/><path class="cls-12" d="M110.79,177.4a71.19,71.19,0,0,0,9.37,5.66C115.75,184.08,113.34,182.65,110.79,177.4Z"/><path class="cls-16" d="M165,124.36,162,123C163.2,123.05,164.63,122.51,165,124.36Z"/><path class="cls-1" d="M156.25,98.82c-.2,1.19-1,1.18-1.95,1C154.69,99,155,98,156.25,98.82Z"/><path class="cls-16" d="M159.8,171.57c.3-.66.41-1.51,1.43-1.46C161.09,170.93,160.89,171.68,159.8,171.57Z"/><path class="cls-6" d="M133,109.85l1-1.4a2,2,0,0,1-.83,2.43Z"/><path class="cls-16" d="M170.14,127.26,168,126C169,126,169.86,126.14,170.14,127.26Z"/><path class="cls-16" d="M166.89,125.43l-2-1.22C165.92,124,166.82,124,166.89,125.43Z"/><path class="cls-16" d="M157,174.76l1.18-1Z"/><path class="cls-16" d="M168.16,126.07l-1.37-.82A1.18,1.18,0,0,1,168.16,126.07Z"/><path class="cls-16" d="M158,173.82l1-1.21Z"/><path class="cls-16" d="M158.92,172.73l1-1.22A1,1,0,0,1,158.92,172.73Z"/><path class="cls-8" d="M257.08,152c-11.57-3.33-18.3-12.66-25.75-21-9.73-10.87-16.39-23.71-22.45-36.83C202.36,80.06,193.36,68,180.73,58.82a19.11,19.11,0,0,1-2.65-2.93l2.47-.23c9.41-.79,16.23-5.86,18.25-13.6,2.14-8.14-1.39-16.53-8.84-22-6.05-4.42-12.84-4.44-19.79-4.09,2.41-4.43,6.5-2,9.69-2,17.46,0,29.73,9.18,38.22,23.49,4.87,8.21,8.84,17.1,10.13,26.76.43,3.22,3.12,4.87,4.09,7.69,3.95,11.58,5,23.89,8.94,35.44,4.48,13.28,8.68,26.71,14.9,39.34A8,8,0,0,1,257.08,152Z"/><path class="cls-7" d="M170.17,16c7-.35,13.74-.33,19.79,4.09,7.45,5.46,11,13.85,8.84,22-2,7.74-8.84,12.81-18.25,13.6l-2.47.23-5.75-1.26a43.13,43.13,0,0,1-10.57-6.89l-1.27-1.23,0-.06c-1-1.86-2-3.71-3-5.57-.3-1.47-.56-2.94-.91-4.4C155,29.74,160.94,17.64,169.76,16l.2.15Zm14.47,18.87C183.52,40.74,182.51,46,181.37,52c2.76-1.25,6.28.22,6.91-3.37,1.21-6.93,2-13.93,3-21.54-3.73,1.39-7.14,4-9.49,3.22-3.15-1-1.75-5.67-2.76-8.62-.07-.22-.47-.32-.88-.57-5.49,4.17-11,8.49-16.6,12.56-3,2.16-1.13,4.55,0,6,1.5,2,2.65-.61,3.71-1.44,3.25-2.52,6.33-5.25,9.59-8C177.34,37.05,177.34,37.05,184.64,34.85Z"/><path class="cls-8" d="M169.76,16c-8.82,1.67-14.74,13.77-13.15,20.51.35,1.46.61,2.93.91,4.4-7.29-4.27-12.07-10.31-13.29-18.86a7.51,7.51,0,0,1,.21-.94l1-1,1.37-1.63c1.36-.93,2.71-1.87,4.08-2.79C157.41,11.22,163.33,11.32,169.76,16Z"/><path class="cls-12" d="M229.32,161c1.6-.31,3.19-.63,4.8-.92,6.66-1.22,10.14,1.81,10.08,8.78-7.19-7.69-9.85-7.88-19.34-1.36a5.92,5.92,0,0,0-.82.92c3.24,2.54,6.13,5.45,4,10-1.89,4.06-5.53,5.58-9.79,5.71-4,.12-5.5-2.76-6.66-6.21,3.67,2.78,7.24,5.6,11.65,1.69,3.77-3.74,3.77-4.64.05-6.85l0,0c.38-1.13-.25-1.17-1.08-1l.05,0c.15-.93-.51-.91-1.11-1-2-.93-3.18-2-.69-3.75C223.43,165.09,226.38,163.05,229.32,161Z"/><path class="cls-4" d="M223.31,172.77c3.72,2.21,3.72,3.11-.05,6.85C223.28,177.34,223.3,175.05,223.31,172.77Z"/><path class="cls-4" d="M222.25,171.81c.83-.17,1.46-.13,1.08,1Z"/><path class="cls-4" d="M221.19,170.89c.6.05,1.26,0,1.11,1Z"/><path class="cls-2" d="M139.25,233c-.2-.79.37-.8.88-.87C140.07,232.6,139.87,233,139.25,233Z"/><path class="cls-2" d="M55.31,159.82c-1.12.64-1.52-.41-2.15-.92l0,0c.77.11,1.59.11,2,.93Z"/><path class="cls-2" d="M56.2,160.89c.31.26.62.52.9.79,0,0-.17.24-.27.37l-.91-.78Z"/><path class="cls-2" d="M55.92,161.27c-.55-.34-1.31-.58-.61-1.44l-.07,0,1,1Z"/><path class="cls-2" d="M20.17,160.85l.9-1.1L21,159.7c.12.7.1,1.28-.89,1.08Z"/><path class="cls-2" d="M21.07,159.75l.34-.08-.41,0Z"/><polygon class="cls-2" points="53.16 158.9 53.09 158.78 53.2 158.94 53.16 158.9"/><path class="cls-2" d="M41.21,149.89l.66.56-.44.16c-.06-.25-.11-.5-.17-.76Z"/><path class="cls-2" d="M33.33,171a1,1,0,0,1-.75,1.29l-.42-.47c.07-.63.36-1,1-1Z"/><path class="cls-2" d="M33.2,170.88l.36-.7.45.45-.68.4Z"/><path class="cls-1" d="M211.15,214l-.46.15-.44-.17c-.74-1-.07-1.7.39-2.47C211.66,212.12,211,213.12,211.15,214Z"/><path class="cls-5" d="M226,140.54c.08,3.21-6.61,11.46-9.69,12.14-1.62.36-2.31-.58-1.83-1.93A9.58,9.58,0,0,1,216.8,147a13.06,13.06,0,0,0,4.31-7.06c.31-1.52.86-3.15,2.8-2.74C225.62,137.56,225.82,139.27,226,140.54Z"/><path class="cls-5" d="M214.12,139.15c-1,2.83-2.69,4.65-5.79,4.68-1.67,0-3.33-.65-2.9-2.52a7,7,0,0,1,5.47-5.24C213.11,135.56,213.47,137.62,214.12,139.15Z"/><path class="cls-1" d="M216.19,142.87l-.35,1.38c-1-.79,0-1,.39-1.33Z"/><path class="cls-1" d="M217.24,141.91l.23-.42-.27.38Z"/><path class="cls-1" d="M217.2,141.87l-1,1,0,0,1-1Z"/><path class="cls-8" d="M138.21,46.9c6.29-.73,11.84,3.13,18,3h0c.3,1,1.13,1,2,1,11.27,4,19.41,12.16,27.2,20.75-.84,1.42-1.68,2.39-3.72,2.29-3.12-.14-6.33-.62-9.4.43-1.89.64-2.79-.75-3.75-1.78-9.07-9.78-19.39-18.08-30.3-25.69Z"/><path class="cls-5" d="M158.19,50.88c-.84,0-1.67,0-2-1A1.56,1.56,0,0,1,158.19,50.88Z"/><path class="cls-13" d="M160.49,46.51l1.27,1.23A1.21,1.21,0,0,1,160.49,46.51Z"/><path class="cls-10" d="M126.46,140.61c7.3,1.52,14.25,4.39,21.67,5.5a90.88,90.88,0,0,0,25.78.15c1.4-.19,5.81-2.72,3.31,2.62-4.05.79-7.18,5-11.56,3.89-6.25-1.52-11.58-.37-17.22,2.63-3.35,1.78-7.64.57-10.54-2.44-2.14-2.2-4-3.14-7.35-2.32-3.85,1-8.08.75-11-2.95-1.63-2.1-2.7-4.09,1.3-4.93A34.41,34.41,0,0,0,126.46,140.61Z"/><path class="cls-8" d="M138.22,46.88l-1.29-.36a3.68,3.68,0,0,1,.26-.34c.35.23.68.48,1,.72Z"/><path class="cls-12" d="M129.76,135.36c-.39.37-.68,1.19-1.33.38-.07-.08.44-.63.68-1A4,4,0,0,0,129.76,135.36Z"/><path class="cls-12" d="M129.11,134.78l.91-.55c-.09.38-.18.75-.26,1.13A4,4,0,0,1,129.11,134.78Z"/><path class="cls-16" d="M94.22,105.88c0-.33,0-.66,0-1a3.08,3.08,0,0,0,3-2c11.25-4.38,20.07.28,28.14,7.62a4,4,0,0,0,4,1.14l0,0c-.05,1.06-.1,2.11-.14,3.17-.42,5.87-4.81,9.92-11.33,10-7.85.09-15.18-1.54-20.84-7.59a13.35,13.35,0,0,1-3.87-10.42v0Z"/><path class="cls-7" d="M129.22,114.86c0-1.06.09-2.11.14-3.17a4.82,4.82,0,0,1,1.91,3.2Z"/><path class="cls-7" d="M131.22,114.82a4,4,0,0,1,1.07,3.12C131,117.22,131.43,115.91,131.22,114.82Z"/><path class="cls-9" d="M130.08,97.9l-4.75,4.35-1.84-1.36c-1.17-2.49,1.59-4.59.68-7l0,0,1.12.07-.07-1.12,0,0C128.33,93,132.32,92.42,130.08,97.9Z"/><path class="cls-16" d="M117.15,93.94c1.07.44,1.18-.91,1.95-1,3,1.82,4.36-3.56,7.36-1.6l-1.31,1.56,0,0c-.74,0-1.1.3-1,1.05l0,0c-2.33.91-3,3.15-4.06,5.06a5.42,5.42,0,0,1-4-1.94c.08-.71,1.38-1.35.11-2.12l-.07.09c1.34.64,1.15-.3,1.11-1.08Z"/><path class="cls-3" d="M120.11,98.9c1.07-1.91,1.73-4.15,4.06-5.06.91,2.46-1.85,4.56-.68,7Z"/><path class="cls-1" d="M116.23,94.84c1.27.77,0,1.41-.11,2.12l-1.54-.13C115.13,96.17,114.93,94.88,116.23,94.84Z"/><path class="cls-1" d="M117.27,93.85c0,.78.23,1.72-1.11,1.08C116.09,94.13,115.92,93.21,117.27,93.85Z"/><path class="cls-4" d="M94.22,105.88l-1,1,0-1Z"/><path class="cls-6" d="M152.28,174c-8.35,5.88-17.27,5.44-26.45,2.4-2.26-.75-1.79-1.84-.61-3.2,2.3-2.65,4.63-5.22,8.45-5.52C139.78,170.09,147.13,168.82,152.28,174Z"/><path class="cls-10" d="M134.8,163.52c-5.08,1.77-9.42,4.1-12.25,8.52-1.4,2.17-2.86,1.93-4.34.19a36.6,36.6,0,0,1-4.31-5.45c-1.2-2.13-2.61-4.92-1.11-7s3.43.7,5.28.89c2.65.27,5.51.9,7.87-.25C130,158.43,132.43,159.86,134.8,163.52Z"/><path class="cls-5" d="M152.28,174c-5.15-5.2-12.5-3.93-18.61-6.32a12.73,12.73,0,0,1,10.3,0c3.83,1.51,8.44.36,12.89,2A8.32,8.32,0,0,1,152.28,174Z"/><path class="cls-10" d="M151,165.26a54.55,54.55,0,0,0,5.36-4.86c1.78-2.1,3.8-1.58,5.86-1a1.15,1.15,0,0,1,.55,2c-1.7,1.8-1.47,5.58-4.92,5.46C155.55,166.7,153.31,165.8,151,165.26Z"/><path class="cls-9" d="M126.46,91.3c-3-2-4.39,3.42-7.36,1.6,1.11-2.63,3.54-4.1,5.59-5.7,4-3.11,7.5-1.42,8.62,3.71-2-.88-4.09-.54-6.13,0l-.61-.43-.12.78Z"/><path class="cls-3" d="M127.18,90.91c2-.54,4.09-.88,6.13,0,1.16,1,.69,2.45.89,3.72.55,3.52-1,4.41-4.12,3.27,2.24-5.48-1.75-4.87-4.93-5l1.31-1.56v0A1,1,0,0,0,127.18,90.91Z"/><path class="cls-4" d="M168.19,104.07a1.68,1.68,0,0,1-2.21.45Z"/><path class="cls-8" d="M184.64,34.85c-7.3,2.2-7.3,2.2-9.85-4.57-3.26,2.75-6.34,5.48-9.59,8-1.06.83-2.21,3.47-3.71,1.44-1.09-1.48-3-3.87,0-6,5.64-4.07,11.11-8.39,16.6-12.56.41.25.81.35.88.57,1,2.95-.39,7.62,2.76,8.62,2.35.75,5.76-1.83,9.49-3.22-1,7.61-1.77,14.61-3,21.54-.63,3.59-4.15,2.12-6.91,3.37C182.51,46,183.52,40.74,184.64,34.85Z"/><path class="cls-3" d="M124.14,93.87c0-.75.31-1.1,1-1.05,0,.37,0,.74.07,1.12Z"/><path class="cls-16" d="M127.18,90.91a1,1,0,0,1-.73.35l.12-.78Z"/></g></g></svg>