<svg xmlns="http://www.w3.org/2000/svg" viewBox="0 0 42.33 76.88"><defs><style>.cls-1{fill:#fff;}.cls-1,.cls-2,.cls-3,.cls-4,.cls-5{fill-rule:evenodd;}.cls-2{fill:#ed1c24;}.cls-3{fill:#e6e6e6;}.cls-4{fill:#dbd1d2;}.cls-5{fill:#ce1b28;}</style></defs><title>Asset 1</title><g id="Layer_2" data-name="Layer 2"><g id="Layer_1-2" data-name="Layer 1"><path class="cls-1" d="M.93,46.71h0a.93.93,0,0,0,.93-.93V31.1a.93.93,0,0,0-.93-.93h0A.93.93,0,0,0,0,31.1V45.78a.93.93,0,0,0,.93.93Z"/><path class="cls-1" d="M37.48,61.54a8.2,8.2,0,0,0-.85.64c-2.51,2.92-2.56,6.14-2.77,8.78a9.29,9.29,0,0,1-.38,2.5C33,75,32.07,76,29.65,76.37l-.48.06-.82.09a71.78,71.78,0,0,1-14.36,0l-.83-.09-.48-.06C10.27,76,9.3,75,8.85,73.46A9.29,9.29,0,0,1,8.47,71c-.21-2.64-.26-5.86-2.77-8.78a7.12,7.12,0,0,0-.84-.64A8.69,8.69,0,0,1,3,59.85a5.66,5.66,0,0,1-1.76-3.37,4.2,4.2,0,0,1-.11-.92v-35A6.08,6.08,0,0,1,4,15.91l.14-.09.11-.08a9.4,9.4,0,0,0,1.44-1.27C7.63,12.3,8.4,9.14,8.64,6.21c0-.45.06-.91.08-1.36,0-.14,0-.27,0-.4,0-2.64,1.24-3.87,3.7-4l.68-.06a90.3,90.3,0,0,1,16.11,0l.68.06c2.47.16,3.7,1.39,3.7,4,0,.13,0,.26,0,.4,0,.45,0,.91.08,1.36.3,3.61,1.29,7.33,4.36,9.53l.11.08.14.09a6.08,6.08,0,0,1,2.88,4.66v35a4.2,4.2,0,0,1-.11.92,7.62,7.62,0,0,1-3.59,5.06Z"/><path class="cls-2" d="M5.66,60.82a8.91,8.91,0,0,0,2.85.42h25.4a5.45,5.45,0,0,0,3-.57A6.66,6.66,0,0,0,40,56.33v-.07a3.34,3.34,0,0,0,.08-.7v-35a5.06,5.06,0,0,0-2.4-3.78l-.14-.1h0l0,0-.09-.07a5,5,0,0,0-3.62-.95H8.67a5.65,5.65,0,0,0-3.78.95l-.09.07,0,0h0l-.15.1a5.06,5.06,0,0,0-2.4,3.78v35a3.34,3.34,0,0,0,.08.7v.07a6.75,6.75,0,0,0,3.14,4.34l.23.15Z"/><path class="cls-3" d="M41,31.7h0a1.34,1.34,0,0,0,1.34-1.34V26.83A1.35,1.35,0,0,0,41,25.48h0a1.36,1.36,0,0,0-1.35,1.35v3.53A1.35,1.35,0,0,0,41,31.7Z"/><path class="cls-3" d="M41,42.89h0a.93.93,0,0,0,.93-.93V34.6a.93.93,0,0,0-.93-.93h0a.93.93,0,0,0-.93.93V42a.93.93,0,0,0,.93.93Z"/><path class="cls-4" d="M37.48,61.54a8.2,8.2,0,0,0-.85.64c-2.51,2.92-2.56,6.14-2.77,8.78a9.29,9.29,0,0,1-.38,2.5C33,75,32.07,76,29.65,76.37l-.48.06-.82.09a69.27,69.27,0,0,1-7.15.36V0c2.7,0,5.4.12,8,.36l.68.06c2.47.16,3.7,1.39,3.7,4,0,.13,0,.26,0,.4,0,.45,0,.91.08,1.36.3,3.61,1.29,7.33,4.36,9.53l.11.08.14.09a6.08,6.08,0,0,1,2.88,4.66v35a4.2,4.2,0,0,1-.11.92,7.62,7.62,0,0,1-3.59,5.06Z"/><path class="cls-5" d="M21.2,61.24H33.91a5.45,5.45,0,0,0,3-.57A6.66,6.66,0,0,0,40,56.33v-.07a3.34,3.34,0,0,0,.08-.7v-35a5.06,5.06,0,0,0-2.4-3.78l-.14-.1h0l0,0-.09-.07a5,5,0,0,0-3.62-.95H21.2v45.6Z"/></g></g></svg>