<svg xmlns="http://www.w3.org/2000/svg" viewBox="0 0 32.28 81.59"><defs><style>.cls-1{fill:#fff;}.cls-2{fill:#dbd1d2;}.cls-3{fill:#9f9b9a;}.cls-4{fill:#ed1c24;}</style></defs><title>Asset 3</title><g id="Layer_2" data-name="Layer 2"><g id="Layer_1-2" data-name="Layer 1"><path class="cls-1" d="M16.34,81.58c-8.52.25-16-6-16.15-14.31C-.13,52,.15,36.88,0,21.54c0-4,2.61-3.54,5.06-3.76a38.7,38.7,0,0,0,11.22,0,2.37,2.37,0,0,0,0,.88Z"/><path class="cls-2" d="M16.23,81.58c0-21,0-41.86-.05-62.88h0l9.27-1.43,1.9,1c1.17,1.8,3,1,4.65,1.26.09,15.82.49,31.36.14,47.2C31.94,75.42,25.47,80.86,16.23,81.58Z"/><path class="cls-3" d="M22.1,7.87c.1,1.33-1.11,1.2-2,1.26S18.05,9,18,7.75"/><path class="cls-1" d="M8.28,0h15.8a2.06,2.06,0,0,1,2.06,2.06V18.26a0,0,0,0,1,0,0H6.22a0,0,0,0,1,0,0V2.06A2.06,2.06,0,0,1,8.28,0Z"/><path class="cls-2" d="M16.18,0h8.36a2,2,0,0,1,2,2V18.26a0,0,0,0,1,0,0H16.18a0,0,0,0,1,0,0V0A0,0,0,0,1,16.18,0Z"/><path class="cls-2" d="M16.18,17.78H30.65A1.36,1.36,0,0,1,32,19.14v2.29a0,0,0,0,1,0,0H16.18a0,0,0,0,1,0,0V17.78A0,0,0,0,1,16.18,17.78Z"/><rect class="cls-4" x="10.58" y="7.75" width="1.82" height="1.82"/><rect class="cls-4" x="20.45" y="7.75" width="1.82" height="1.82"/><path class="cls-4" d="M6.22,17.78H26.54a0,0,0,0,1,0,0V18a1.34,1.34,0,0,1-1.34,1.34H7.56A1.34,1.34,0,0,1,6.22,18v-.24a0,0,0,0,1,0,0Z"/></g></g></svg>