<svg xmlns="http://www.w3.org/2000/svg" viewBox="0 0 305.29541 305.29523"><defs><style>.cls-1{fill:#fff;}</style></defs><title>Asset 21</title><g id="Layer_2" data-name="Layer 2"><g id="Layer_1-2" data-name="Layer 1"><path class="cls-1" d="M152.64771,61.26648a91.38111,91.38111,0,1,1-91.38111,91.3811,91.48462,91.48462,0,0,1,91.38111-91.3811m0-10a101.38111,101.38111,0,1,0,101.3811,101.3811,101.38113,101.38113,0,0,0-101.3811-101.3811Z"/><path class="cls-1" d="M152.64771,10A142.64761,142.64761,0,0,1,253.51489,253.51471,142.64768,142.64768,0,1,1,51.78052,51.78052,141.71441,141.71441,0,0,1,152.64771,10m0-10a152.64762,152.64762,0,1,0,152.6477,152.64758A152.64769,152.64769,0,0,0,152.64771,0Z"/><path class="cls-1" d="M152.63013,62.41858a246.51927,246.51927,0,0,1,133.32226,39.36755,143.10657,143.10657,0,0,1-.1145,102.02137,246.49376,246.49376,0,0,1-133.74878,39.64514,246.51852,246.51852,0,0,1-132.261-38.67786,143.13138,143.13138,0,0,1-.47315-103.0199,246.50307,246.50307,0,0,1,133.27515-39.3363m0-10A256.0292,256.0292,0,0,0,11.22778,95.10986a153.06068,153.06068,0,0,0,.52588,116.36219,255.98294,255.98294,0,0,0,140.33545,41.98059,256.05592,256.05592,0,0,0,141.87134-43.00537,153.03767,153.03767,0,0,0,.12036-115.30457A256.044,256.044,0,0,0,152.63013,52.41858Z"/><rect class="cls-1" x="59.85822" y="147.35943" width="193.06725" height="10.00014" transform="translate(-61.92837 155.20703) rotate(-44.99901)"/><circle class="cls-1" cx="152.64765" cy="152.6476" r="39.16996"/><rect class="cls-1" x="59.8584" y="147.35974" width="193.06689" height="10"/><rect class="cls-1" x="151.39185" y="55.82605" width="10" height="193.06689"/></g></g></svg>