<svg xmlns="http://www.w3.org/2000/svg" viewBox="0 0 3046.26172 305.29523"><title>Asset 11</title><g id="Layer_2" data-name="Layer 2"><g id="Layer_1-2" data-name="Layer 1"><path d="M577.01807,86.93591c-2.56446-4.396-4.396-6.96-5.86133-8.42529-16.11768-18.68213-46.156-22.71191-68.86768-22.71191A140.79931,140.79931,0,0,0,480.67627,57.264c-2.19775.36621-36.26538,2.93066-36.26538,28.57275,0,13.1875,9.158,18.68213,20.51391,22.34571,18.31592,5.49462,64.47193,12.08837,83.1543,15.75146,18.31543,3.29687,26.37451,5.12842,35.166,8.05908,15.019,5.12842,52.38379,18.31592,52.01758,66.30322,0,23.44434-8.42579,60.44288-61.1753,77.29346-14.28662,4.39551-28.20654,6.22705-42.85913,7.69238q-13.73694,1.09937-27.47388,1.09913c-46.156,0-71.79834-9.52442-90.11425-19.415A135.39569,135.39569,0,0,1,395.69067,253.244a126.98914,126.98914,0,0,1-27.10742-30.77051,83.51882,83.51882,0,0,1-6.22754-10.98975l58.9773-15.019c15.38525,32.23633,55.314,40.29492,86.81714,40.29492,2.56421,0,35.16674.3667,52.74975-11.72216,3.29688-2.19776,12.45508-9.52393,12.45508-22.34522a20.8438,20.8438,0,0,0-8.42529-17.2168c-8.05908-6.22754-24.90967-8.792-48.35425-12.45507-47.62134-7.32618-73.26343-10.98926-94.14356-20.87989-11.72216-5.49463-40.66137-22.3457-40.66137-61.5415,0-34.43359,21.24658-51.65088,31.50342-58.61084,16.48437-11.356,43.22558-22.34522,89.38159-22.34522,43.95825,0,67.40259,7.69239,85.7185,16.48438a102.6051,102.6051,0,0,1,32.23584,21.979c8.4253,8.4253,11.72217,13.55371,17.583,23.44434Z"/><path d="M899.74072,276.32214l-21.979-48.72021H745.15479l-21.9795,48.72021H652.47607L777.39063,17.702h69.96679L972.27148,276.32214ZM811.82422,80.70837l-45.78955,101.104h90.84668Z"/><path d="M1208.54492,276.32214,1139.67725,172.288h-73.9961V276.32214H1001.209V17.702h178.03028c22.3457,0,32.23633,1.46484,42.85937,4.76172,33.335,9.89062,51.65088,38.46337,51.65088,72.53125a80.84076,80.84076,0,0,1-6.96,34.06738c-11.72217,26.375-34.06787,34.43408-60.44238,39.1958l78.7583,108.064Zm-5.49463-200.00927c-8.05908-12.45508-22.3457-13.1875-35.5332-13.1875H1065.68115v63.373h103.66748c.3667,0,10.62354.36621,16.11817-1.09912,7.69287-1.83154,22.71191-8.42529,22.71191-29.67187C1208.17871,93.16345,1207.812,83.639,1203.05029,76.31287Z"/><path d="M1602.33008,212.9491c-4.0293,8.05908-10.98926,19.78125-26.74121,33.70117-21.2461,18.68213-55.314,38.46338-119.05323,38.46338-14.65283,0-65.937-.36621-106.23193-30.4043-46.88867-34.80029-49.08691-89.01514-49.08691-108.06348,0-26.375,6.22754-53.84912,20.88037-75.82812a105.07027,105.07027,0,0,1,16.48437-19.41455c8.79151-8.42529,13.1875-11.356,18.31592-14.65283,16.85059-11.356,51.65039-27.10743,103.30127-27.10743,14.28662,0,64.106,1.09864,104.40088,28.20655A125.10419,125.10419,0,0,1,1603.4292,79.243c1.83154,3.66309,3.66309,7.32666,5.12842,10.98975l-70.69922,8.7915c-4.02979-6.22754-11.356-17.583-26.00879-27.47363-8.42529-5.49512-26.0083-14.28662-51.65088-14.28662-6.59375,0-23.07764.36621-40.29492,7.69287-33.70117,13.91992-51.65088,46.15576-51.65088,82.42139,0,17.9497,5.49512,37.731,16.11816,52.74951a79.00311,79.00311,0,0,0,16.11817,16.48437c9.89062,8.05908,29.67138,20.88037,61.541,20.88037,37.731,0,57.87842-15.75195,68.13526-27.84033,4.396-4.76221,7.32666-9.52441,13.1875-20.51367l68.13525-.73242C1607.8252,201.59314,1605.627,206.35535,1602.33008,212.9491Z"/><path d="M1861.31348,276.32214l-21.979-48.72021H1706.72754l-21.97949,48.72021h-70.69922L1738.96338,17.702h69.9668l124.91406,258.62011ZM1773.397,80.70837l-45.78955,101.104h90.84668Z"/><path d="M2156.564,86.93591c-2.56445-4.396-4.396-6.96-5.86132-8.42529-16.11768-18.68213-46.15576-22.71191-68.86768-22.71191a140.79924,140.79924,0,0,0-21.61279,1.46533c-2.19776.36621-36.26514,2.93066-36.26514,28.57275,0,13.1875,9.15772,18.68213,20.51367,22.34571,18.31592,5.49462,64.47168,12.08837,83.1543,15.75146,18.31543,3.29687,26.37451,5.12842,35.166,8.05908,15.019,5.12842,52.38378,18.31592,52.01757,66.30322,0,23.44434-8.42578,60.44288-61.17529,77.29346-14.28662,4.39551-28.20654,6.22705-42.85937,7.69238q-13.73658,1.09937-27.47364,1.09913c-46.15625,0-71.79834-9.52442-90.11425-19.415a135.3928,135.3928,0,0,1-17.94971-11.72217,127.00025,127.00025,0,0,1-27.10742-30.77051,83.54022,83.54022,0,0,1-6.227-10.98975l58.977-15.019c15.38525,32.23633,55.314,40.29492,86.81738,40.29492,2.564,0,35.1665.3667,52.74951-11.72216,3.29688-2.19776,12.45508-9.52393,12.45508-22.34522a20.84383,20.84383,0,0,0-8.42529-17.2168c-8.05909-6.22754-24.90967-8.792-48.354-12.45507-47.62158-7.32618-73.26367-10.98926-94.144-20.87989-11.72217-5.49463-40.66113-22.3457-40.66113-61.5415,0-34.43359,21.24658-51.65088,31.50341-58.61084,16.48438-11.356,43.22559-22.34522,89.38135-22.34522,43.9585,0,67.40283,7.69239,85.71875,16.48438a102.6051,102.6051,0,0,1,32.23584,21.979c8.42529,8.4253,11.72217,13.55371,17.583,23.44434Z"/><path d="M2544.49121,276.32214l1.46533-198.91064-83.15429,198.91064h-58.977L2319.93848,77.4115l1.46533,198.91064H2259.8623V17.702h93.77735l80.22363,189.75244L2513.354,17.702h92.67871V276.32214Z"/><path d="M2744.26221,229.69617a20.79351,20.79351,0,0,1-8.81446,12.09179c-5.87646,3.95508-13.22216,6.32813-27.00879,11.1875-5.65039,1.92139-8.47558,3.16407-10.73583,4.97217a12.46509,12.46509,0,0,0-2.938,3.50342h48.70605v14.46484h-69.7251a38.9617,38.9617,0,0,1,2.25977-14.917c1.69531-4.52,5.08545-11.07471,14.8042-16.61182,4.97217-2.82519,9.94433-4.5205,20.68017-8.58837,2.147-.791,4.18116-1.46924,6.21534-2.37305,1.582-.67822,7.34521-2.93848,7.34521-9.49268a8.14917,8.14917,0,0,0-1.356-4.74658c-2.03418-3.05078-6.4414-4.52-14.126-4.52-1.356,0-7.79737-.11328-11.75244,3.95508a9.80887,9.80887,0,0,0-2.26026,3.50342,10.52395,10.52395,0,0,0-.791,4.18115h-18.87207a50.90012,50.90012,0,0,1,.90429-5.98926c2.03369-9.37988,7.11914-13.10888,10.73535-15.14306,4.18116-2.26026,11.30079-4.40723,22.48829-4.40723a64.65891,64.65891,0,0,1,11.41357.791c2.48633.33886,17.064,2.26025,22.03662,13.67382a21.32885,21.32885,0,0,1,1.69483,8.36231A22.18414,22.18414,0,0,1,2744.26221,229.69617Z"/><path d="M2840.98975,263.372a31.91122,31.91122,0,0,1-7.68457,7.45849c-4.06836,2.8252-11.1875,6.44141-22.94043,6.44141a40.79209,40.79209,0,0,1-20.228-4.85937c-8.02344-4.40723-17.29-12.99561-17.29-33.563,0-4.06787.22607-18.75879,10.62256-28.70362a28.17052,28.17052,0,0,1,6.32861-4.6333,39.894,39.894,0,0,1,19.437-4.85888c3.95508-.11328,18.646.11279,28.59082,10.05761,7.11914,7.23243,9.83155,18.08106,9.83155,28.02539C2847.65723,241.67468,2847.43115,254.10583,2840.98975,263.372Zm-21.4712-45.88037a16.304,16.304,0,0,0-9.94482-2.48633,19.6243,19.6243,0,0,0-7.23242,1.582c-5.65039,2.59912-8.13623,7.4585-9.3794,13.10889a44.44809,44.44809,0,0,0-.90429,9.49267c0,11.41358,4.18164,23.73145,17.85547,23.73145,3.05078,0,10.2832-.56494,14.35156-8.13672a24.55145,24.55145,0,0,0,2.48633-7.34522,41.962,41.962,0,0,0,.90381-9.94482C2827.65479,225.96716,2824.37793,220.54285,2819.51855,217.49158Z"/><path d="M2944.72412,229.69617a20.79344,20.79344,0,0,1-8.81445,12.09179c-5.87647,3.95508-13.22217,6.32813-27.00879,11.1875-5.65039,1.92139-8.47559,3.16407-10.73584,4.97217a12.46509,12.46509,0,0,0-2.938,3.50342h48.70606v14.46484H2874.208a38.96164,38.96164,0,0,1,2.25976-14.917c1.69532-4.52,5.08545-11.07471,14.8042-16.61182,4.97217-2.82519,9.94434-4.5205,20.68018-8.58837,2.147-.791,4.18115-1.46924,6.21533-2.37305,1.582-.67822,7.34522-2.93848,7.34522-9.49268a8.14925,8.14925,0,0,0-1.356-4.74658c-2.03418-3.05078-6.44141-4.52-14.126-4.52-1.356,0-7.79736-.11328-11.75244,3.95508a9.8087,9.8087,0,0,0-2.26025,3.50342,10.52383,10.52383,0,0,0-.791,4.18115H2876.355a50.90012,50.90012,0,0,1,.9043-5.98926c2.03369-9.37988,7.11914-13.10888,10.73535-15.14306,4.18115-2.26026,11.30078-4.40723,22.48828-4.40723a64.65891,64.65891,0,0,1,11.41357.791c2.48633.33886,17.064,2.26025,22.03663,13.67382a21.32889,21.32889,0,0,1,1.69482,8.36231A22.18375,22.18375,0,0,1,2944.72412,229.69617Z"/><path d="M3039.19189,263.372a31.91082,31.91082,0,0,1-7.68457,7.45849c-4.06836,2.8252-11.1875,6.44141-22.94043,6.44141a40.79205,40.79205,0,0,1-20.228-4.85937c-8.02344-4.40723-17.29-12.99561-17.29-33.563,0-4.06787.22607-18.75879,10.62256-28.70362A28.17052,28.17052,0,0,1,2988,205.51257a39.894,39.894,0,0,1,19.437-4.85888c3.95508-.11328,18.646.11279,28.59082,10.05761,7.11914,7.23243,9.83155,18.08106,9.83155,28.02539C3045.85938,241.67468,3045.6333,254.10583,3039.19189,263.372Zm-21.47119-45.88037a16.304,16.304,0,0,0-9.94482-2.48633,19.62427,19.62427,0,0,0-7.23242,1.582c-5.65039,2.59912-8.13623,7.4585-9.3794,13.10889a44.44809,44.44809,0,0,0-.90429,9.49267c0,11.41358,4.18164,23.73145,17.85546,23.73145,3.05079,0,10.28321-.56494,14.35157-8.13672a24.55145,24.55145,0,0,0,2.48633-7.34522,41.96233,41.96233,0,0,0,.9038-9.94482C3025.85693,225.96716,3022.58008,220.54285,3017.7207,217.49158Z"/><path d="M2732.66748,174.14978V145.27673h-40.59375v28.87305H2675.207V106.87439h16.8667v25.91894h40.59375V106.87439h16.8667v67.27539Z"/><path d="M2848.25244,163.00085a25.07181,25.07181,0,0,1-4.00244,4.76465c-7.2417,6.4795-19.24854,8.67139-28.4917,8.67139a64.345,64.345,0,0,1-13.15039-1.334c-13.436-2.95411-19.15332-9.91065-21.53564-15.4375-1.42969-3.335-1.90577-6.38428-1.90577-13.72168V106.87439h16.771V146.5155c0,5.14551.76221,9.4336,5.33643,12.67334,5.33642,3.812,13.05468,3.6211,14.57959,3.6211,1.23877,0,7.90918,0,12.57812-2.668a13.12511,13.12511,0,0,0,5.33643-5.33643c.7622-1.52441,1.14355-2.668,1.14355-5.90771V106.87439h16.77149v39.16455C2851.68311,152.328,2851.5874,157.56921,2848.25244,163.00085Z"/><path d="M2939.062,174.14978l-41.54687-47.16895v47.16895h-16.00879V106.87439h16.8667l41.26074,46.97852V106.87439h16.00928v67.27539Z"/><path d="M3021.39111,119.16687v54.98291H3004.4292V119.16687h-24.96631V106.87439h66.79883v12.29248Z"/><path d="M2750.29639,64.79626a28.03252,28.03252,0,0,1-6.95606,8.76661c-5.52685,4.85986-14.38916,10.00586-30.96972,10.00586-3.81153,0-17.15235-.09522-27.63428-7.90918-12.19727-9.05274-12.769-23.15577-12.769-28.11084,0-6.86133,1.61962-14.00782,5.43164-19.72559a27.33516,27.33516,0,0,1,4.28808-5.05029,26.81179,26.81179,0,0,1,4.76416-3.81153c4.38379-2.9541,13.43653-7.05175,26.87256-7.05175,3.71631,0,16.67578.28613,27.15772,7.3374A32.54923,32.54923,0,0,1,2750.58252,30.015c.47607.95264.95264,1.90577,1.334,2.85889l-18.39111,2.28662a23.2305,23.2305,0,0,0-6.76562-7.14648,24.58683,24.58683,0,0,0-13.436-3.71631,27.01278,27.01278,0,0,0-10.48242,2.001c-8.7666,3.62109-13.436,12.00683-13.436,21.44043a24.48486,24.48486,0,0,0,4.19287,13.72168,20.54187,20.54187,0,0,0,4.19288,4.28857,24.60308,24.60308,0,0,0,16.00878,5.43115c9.815,0,15.05616-4.09717,17.72413-7.2417a23.4497,23.4497,0,0,0,3.43066-5.33642l17.72412-.19043A29.44431,29.44431,0,0,1,2750.29639,64.79626Z"/><path d="M2809.75635,81.28162l-17.915-27.0625h-19.24854v27.0625h-16.77148V14.00623h46.31152c5.813,0,8.38574.38085,11.14893,1.23877,8.67187,2.57275,13.436,10.00537,13.436,18.86767a21.028,21.028,0,0,1-1.81054,8.86182c-3.04932,6.86084-8.86182,8.95752-15.72266,10.19629l20.48731,28.11084Zm-1.42969-52.02881c-2.09619-3.24024-5.8125-3.43067-9.24316-3.43067h-26.49073V42.3075h26.96729a19.21868,19.21868,0,0,0,4.19287-.28565,7.39427,7.39427,0,0,0,5.90771-7.71875A10.01322,10.01322,0,0,0,2808.32666,29.25281Z"/><path d="M2870.83545,56.02966v25.252h-16.771v-25.252l-32.01806-42.02343h20.67822l19.8208,28.11084,19.91553-28.11084h20.48779Z"/><path d="M2974.605,44.68982a13.45034,13.45034,0,0,1-2.57324,4.09766,19.28438,19.28438,0,0,1-4.3833,3.81152c-5.24073,3.14453-12.102,3.335-18.00977,3.335h-23.44189V81.28162h-16.58057V14.00623h41.54688c1.71533,0,3.43066,0,5.146.09521,6.95606.47656,13.53125,2.57275,17.24756,8.95752a23.21822,23.21822,0,0,1,2.9541,12.00635A23.92485,23.92485,0,0,1,2974.605,44.68982Zm-20.583-18.58154a11.34487,11.34487,0,0,0-4.19287-.47657h-23.63232V44.118H2946.875c2.47754,0,5.9082,0,8.19531-.95312,4.57373-1.90576,4.66895-6.4795,4.66895-8.09961C2959.73926,33.63611,2959.45361,27.72791,2954.022,26.10828Z"/><path d="M3019.77051,26.29871V81.28162h-16.96192V26.29871h-24.9663V14.00623h66.79882V26.29871Z"/><path d="M152.64771,61.26648a91.38111,91.38111,0,1,1-91.38111,91.3811,91.48462,91.48462,0,0,1,91.38111-91.3811m0-10a101.38111,101.38111,0,1,0,101.3811,101.3811,101.38113,101.38113,0,0,0-101.3811-101.3811Z"/><path d="M152.64771,10A142.64761,142.64761,0,0,1,253.51489,253.51471,142.64768,142.64768,0,1,1,51.78052,51.78052,141.71441,141.71441,0,0,1,152.64771,10m0-10a152.64762,152.64762,0,1,0,152.6477,152.64758A152.64769,152.64769,0,0,0,152.64771,0Z"/><path d="M152.63013,62.41858a246.51927,246.51927,0,0,1,133.32226,39.36755,143.10657,143.10657,0,0,1-.1145,102.02137,246.49376,246.49376,0,0,1-133.74878,39.64514,246.51852,246.51852,0,0,1-132.261-38.67786,143.13138,143.13138,0,0,1-.47315-103.0199,246.50307,246.50307,0,0,1,133.27515-39.3363m0-10A256.0292,256.0292,0,0,0,11.22778,95.10986a153.06068,153.06068,0,0,0,.52588,116.36219,255.98294,255.98294,0,0,0,140.33545,41.98059,256.05592,256.05592,0,0,0,141.87134-43.00537,153.03767,153.03767,0,0,0,.12036-115.30457A256.044,256.044,0,0,0,152.63013,52.41858Z"/><rect x="59.85822" y="147.35943" width="193.06725" height="10.00014" transform="translate(-61.92837 155.20703) rotate(-44.99901)"/><circle cx="152.64765" cy="152.6476" r="39.16996"/><rect x="59.8584" y="147.35974" width="193.06689" height="10"/><rect x="151.39185" y="55.82605" width="10" height="193.06689"/></g></g></svg>