<svg xmlns="http://www.w3.org/2000/svg" viewBox="0 0 2695.34302 275.4707"><defs><style>.cls-1{fill:#fff;}</style></defs><title>Asset 20</title><g id="Layer_2" data-name="Layer 2"><g id="Layer_1-2" data-name="Layer 1"><path class="cls-1" d="M214.66235,77.293c-2.56445-4.396-4.396-6.96-5.86132-8.42529-16.11768-18.68213-46.156-22.71192-68.86768-22.71192a140.79924,140.79924,0,0,0-21.61279,1.46533c-2.19776.36621-36.26538,2.93067-36.26538,28.57276,0,13.1875,9.158,18.68213,20.51391,22.3457,18.31592,5.49463,64.47193,12.08838,83.1543,15.75147,18.31543,3.29687,26.37451,5.12841,35.166,8.05908,15.019,5.12842,52.38379,18.31592,52.01758,66.30322,0,23.44434-8.42578,60.44287-61.17529,77.29346-14.28662,4.39551-28.20654,6.22705-42.85913,7.69238q-13.73694,1.09936-27.47388,1.09912c-46.156,0-71.79834-9.52441-90.11426-19.415A135.39472,135.39472,0,0,1,33.335,243.60107a126.98892,126.98892,0,0,1-27.10742-30.7705A83.51769,83.51769,0,0,1,0,201.84082l58.97729-15.019c15.38526,32.23633,55.314,40.29492,86.81714,40.29492,2.56421,0,35.16675.3667,52.74976-11.72217,3.29687-2.19775,12.45508-9.52392,12.45508-22.34521a20.84381,20.84381,0,0,0-8.4253-17.2168c-8.05908-6.22754-24.90966-8.792-48.35424-12.45508-47.62134-7.32617-73.26343-10.98926-94.14356-20.87988-11.72217-5.49463-40.66138-22.3457-40.66138-61.54151,0-34.43359,21.24659-51.65087,31.50342-58.61084C67.40259,10.98926,94.1438,0,140.2998,0c43.95826,0,67.40259,7.69238,85.71851,16.48438a102.60492,102.60492,0,0,1,32.23584,21.979c8.42529,8.42529,11.72217,13.55371,17.583,23.44433Z"/><path class="cls-1" d="M537.385,266.6792,515.406,217.959H382.79907L360.81958,266.6792H290.12036L415.03491,8.05908h69.9668L609.91577,266.6792ZM449.46851,71.06543,403.679,172.16943h90.84667Z"/><path class="cls-1" d="M846.18921,266.6792,777.32153,162.645H703.32544V266.6792H638.85327V8.05908H816.88354c22.34571,0,32.23633,1.46485,42.85938,4.76172,33.335,9.89063,51.65088,38.46338,51.65088,72.53125a80.84076,80.84076,0,0,1-6.96,34.06738c-11.72217,26.375-34.06787,34.43409-60.44238,39.1958l78.7583,108.064ZM840.69458,66.66992c-8.05908-12.45508-22.3457-13.1875-35.5332-13.1875H703.32544v63.37305H806.99292c.3667,0,10.62354.36621,16.11816-1.09912,7.69288-1.83155,22.71192-8.4253,22.71192-29.67188C845.823,83.52051,845.4563,73.99609,840.69458,66.66992Z"/><path class="cls-1" d="M1239.97437,203.30615c-4.0293,8.05908-10.98926,19.78125-26.74122,33.70117-21.24609,18.68213-55.314,38.46338-119.05322,38.46338-14.65283,0-65.937-.36621-106.23193-30.40429-46.88867-34.8003-49.08692-89.01514-49.08692-108.06348,0-26.375,6.22754-53.84912,20.88038-75.82813a105.06989,105.06989,0,0,1,16.48437-19.41455c8.7915-8.42529,13.1875-11.35595,18.31592-14.65283C1011.39233,15.75146,1046.19214,0,1097.843,0c14.28662,0,64.10595,1.09863,104.40088,28.20654a125.10419,125.10419,0,0,1,38.82959,41.39356c1.83154,3.66308,3.66308,7.32666,5.12841,10.98974l-70.69921,8.79151c-4.02979-6.22754-11.356-17.583-26.00879-27.47364-8.4253-5.49511-26.0083-14.28662-51.65088-14.28662-6.59375,0-23.07764.36621-40.29492,7.69287-33.70118,13.91993-51.65088,46.15577-51.65088,82.42139,0,17.94971,5.49511,37.731,16.11816,52.74951a79.00271,79.00271,0,0,0,16.11816,16.48438c9.89063,8.05908,29.67139,20.88037,61.541,20.88037,37.731,0,57.87842-15.752,68.13525-27.84033,4.396-4.76221,7.32666-9.52442,13.1875-20.51367l68.13526-.73243C1245.46948,191.9502,1243.27124,196.7124,1239.97437,203.30615Z"/><path class="cls-1" d="M1498.95776,266.6792l-21.979-48.72022H1344.37183l-21.9795,48.72022h-70.69921L1376.60767,8.05908h69.96679L1571.48853,266.6792Zm-87.9165-195.61377-45.78955,101.104h90.84668Z"/><path class="cls-1" d="M1794.20825,77.293c-2.56445-4.396-4.396-6.96-5.86133-8.42529-16.11767-18.68213-46.15576-22.71192-68.86767-22.71192a140.79924,140.79924,0,0,0-21.61279,1.46533c-2.19776.36621-36.26514,2.93067-36.26514,28.57276,0,13.1875,9.15771,18.68213,20.51367,22.3457,18.31592,5.49463,64.47168,12.08838,83.1543,15.75147,18.31543,3.29687,26.37451,5.12841,35.166,8.05908,15.019,5.12842,52.38379,18.31592,52.01758,66.30322,0,23.44434-8.42578,60.44287-61.17529,77.29346-14.28662,4.39551-28.20655,6.22705-42.85938,7.69238q-13.73656,1.09936-27.47363,1.09912c-46.15625,0-71.79834-9.52441-90.11426-19.415a135.3925,135.3925,0,0,1-17.9497-11.72217,127.00038,127.00038,0,0,1-27.10743-30.7705,83.5425,83.5425,0,0,1-6.22705-10.98975l58.97705-15.019c15.38526,32.23633,55.314,40.29492,86.81739,40.29492,2.564,0,35.1665.3667,52.74951-11.72217,3.29687-2.19775,12.45508-9.52392,12.45508-22.34521a20.84381,20.84381,0,0,0-8.4253-17.2168c-8.05908-6.22754-24.90966-8.792-48.354-12.45508-47.62158-7.32617-73.26367-10.98926-94.144-20.87988-11.72217-5.49463-40.66114-22.3457-40.66114-61.54151,0-34.43359,21.24659-51.65087,31.50342-58.61084C1646.94849,10.98926,1673.6897,0,1719.84546,0c43.9585,0,67.40283,7.69238,85.71875,16.48438a102.60492,102.60492,0,0,1,32.23584,21.979c8.42529,8.42529,11.72217,13.55371,17.583,23.44433Z"/><path class="cls-1" d="M2182.1355,266.6792l1.46533-198.91065-83.1543,198.91065h-58.97705L1957.58276,67.76855l1.46534,198.91065h-61.54151V8.05908h93.77735l80.22363,189.75244L2150.99829,8.05908H2243.677V266.6792Z"/><path class="cls-1" d="M2312.37476,266.273V253.02734a30.842,30.842,0,0,1,9.62451-11.62548c6.19385-4.85987,11.24414-7.05127,18.39111-10.29151,3.04932-1.334,6.09863-2.76318,9.24316-4.28808a14.21633,14.21633,0,0,0,4.76465-3.04932,5.95742,5.95742,0,0,0,1.52491-3.71631c-.09522-5.24072-6.95655-5.71728-10.48243-5.71728-6.66992,0-9.5288,2.47753-10.67236,5.52685a11.44331,11.44331,0,0,0-.667,4.28809l-19.8208-.47657c.38135-5.9082.85791-10.48193,4.95556-15.15136a16.044,16.044,0,0,1,5.33594-4.28809c4.3833-2.28662,12.00684-3.62109,23.251-3.62109,12.19726,0,19.249,1.90576,23.82275,5.05078a15.85992,15.85992,0,0,1,7.05176,13.62646c0,3.6211-.95313,8.38575-7.3374,13.34082-3.52588,2.668-7.3374,4.3833-15.3418,7.814a139.96288,139.96288,0,0,0-13.2456,6.28906,43.2435,43.2435,0,0,0-6.95606,4.57373c2.001-.09521,3.90674-.19043,5.90772-.19043h38.02148V266.273Z"/><path class="cls-1" d="M2478.3689,254.64746a29.68408,29.68408,0,0,1-5.62207,5.8125c-7.814,6.00342-17.34278,7.71875-26.87207,7.71875a64.66911,64.66911,0,0,1-12.4834-1.23877c-4.002-.85742-17.62891-4.3833-23.251-17.53369a38.7487,38.7487,0,0,1-2.57275-14.86523c0-2.95411,0-11.33985,4.57422-19.05811,4.09716-6.86133,11.05371-13.436,27.8247-14.96094,2.38233-.19043,4.76465-.28564,7.24219-.28564,2.85889.09521,10.19629,0,17.91455,2.8584a30.71124,30.71124,0,0,1,5.33643,2.57324,27.3124,27.3124,0,0,1,12.00683,16.29443,46.75008,46.75008,0,0,1,1.4292,12.38819C2483.89575,237.11377,2483.80054,246.92871,2478.3689,254.64746Zm-18.39112-27.92041c-.7622-3.71631-3.23974-12.769-14.57959-12.38769a15.10218,15.10218,0,0,0-6.48,1.52441c-8.09961,4.28809-8.00439,16.19971-8.00439,17.62891a38.34373,38.34373,0,0,0,.38135,5.71777c.57177,3.52539,2.38232,14.19824,14.38916,14.19824,3.23974,0,6.09863-.47656,8.67138-2.57275a15.31507,15.31507,0,0,0,2.668-2.85889c1.62012-2.38232,3.6211-7.3374,3.6211-14.57959A30.17242,30.17242,0,0,0,2459.97778,226.72705Z"/><path class="cls-1" d="M2511.5271,266.273V253.02734a30.842,30.842,0,0,1,9.62451-11.62548c6.19385-4.85987,11.24414-7.05127,18.39111-10.29151,3.04932-1.334,6.09864-2.76318,9.24317-4.28808a14.21652,14.21652,0,0,0,4.76465-3.04932,5.95739,5.95739,0,0,0,1.5249-3.71631c-.09522-5.24072-6.95654-5.71728-10.48242-5.71728-6.66992,0-9.52881,2.47753-10.67237,5.52685a11.44352,11.44352,0,0,0-.667,4.28809l-19.8208-.47657c.38135-5.9082.85791-10.48193,4.95557-15.15136a16.04384,16.04384,0,0,1,5.33594-4.28809c4.3833-2.28662,12.00683-3.62109,23.251-3.62109,12.19727,0,19.249,1.90576,23.82276,5.05078a15.8599,15.8599,0,0,1,7.05175,13.62646c0,3.6211-.95312,8.38575-7.3374,13.34082-3.52588,2.668-7.3374,4.3833-15.3418,7.814a139.96288,139.96288,0,0,0-13.2456,6.28906,43.24444,43.24444,0,0,0-6.95606,4.57373c2.001-.09521,3.90674-.19043,5.90772-.19043h38.02148V266.273Z"/><path class="cls-1" d="M2677.52124,254.64746a29.68408,29.68408,0,0,1-5.62207,5.8125c-7.814,6.00342-17.34277,7.71875-26.87207,7.71875a64.66917,64.66917,0,0,1-12.4834-1.23877c-4.002-.85742-17.62891-4.3833-23.251-17.53369A38.7487,38.7487,0,0,1,2606.72,234.541c0-2.95411,0-11.33985,4.57422-19.05811,4.09717-6.86133,11.05371-13.436,27.82471-14.96094,2.38232-.19043,4.76464-.28564,7.24218-.28564,2.85889.09521,10.19629,0,17.91455,2.8584a30.71124,30.71124,0,0,1,5.33643,2.57324,27.31245,27.31245,0,0,1,12.00684,16.29443,46.75008,46.75008,0,0,1,1.4292,12.38819C2683.0481,237.11377,2682.95288,246.92871,2677.52124,254.64746Zm-18.39111-27.92041c-.76221-3.71631-3.23975-12.769-14.57959-12.38769a15.10218,15.10218,0,0,0-6.48,1.52441c-8.09961,4.28809-8.0044,16.19971-8.0044,17.62891a38.34373,38.34373,0,0,0,.38135,5.71777c.57178,3.52539,2.38232,14.19824,14.38916,14.19824,3.23975,0,6.09863-.47656,8.67139-2.57275a15.3154,15.3154,0,0,0,2.668-2.85889c1.62011-2.38232,3.62109-7.3374,3.62109-14.57959A30.17286,30.17286,0,0,0,2659.13013,226.72705Z"/><path class="cls-1" d="M2364.78491,174.50684V148.68311h-29.44482v25.82373H2311.136V107.23145h24.29931v24.48974h29.34961V107.23145h24.39453v67.27539Z"/><path class="cls-1" d="M2487.99292,168.12256c-5.8125,5.43115-15.53223,8.7666-32.58936,8.7666a117.69324,117.69324,0,0,1-14.00781-.76221c-2.28711-.28613-16.104-1.90576-22.39355-11.43506-3.71631-5.62207-3.52539-12.102-3.52539-14.29394v-43.1665H2439.49v38.21142c0,4.85986.38135,9.148,4.28809,12.67383,4.19287,3.81152,10.00537,3.81152,11.62548,3.81152,1.334,0,7.33741-.09521,11.33985-3.52539a11.61454,11.61454,0,0,0,2.8584-4.00244c1.42968-3.04932,1.5249-6.09863,1.5249-9.33838V107.23145h24.01318v35.25732C2495.13989,151.63721,2495.426,161.166,2487.99292,168.12256Z"/><path class="cls-1" d="M2577.37378,174.50684l-31.92236-36.02v36.02h-23.82276V107.23145h19.91553l32.11328,35.44824V107.23145H2597.385v67.27539Z"/><path class="cls-1" d="M2666.75415,122.28711v52.21973h-24.2041V122.28711h-23.918V107.23145h71.94482v15.05566Z"/><path class="cls-1" d="M2387.17847,62.96729c-8.67139,8.7666-22.6792,10.95849-34.40039,10.95849-12.67334,0-19.91553-2.38232-24.96582-4.76465-6.67041-3.14453-19.53467-11.43506-19.53467-31.16015a35.97388,35.97388,0,0,1,6.09863-20.29688c5.90772-8.481,16.771-16.19971,39.16455-16.19971,18.2959,0,28.68262,4.76465,34.30469,10.9585a26.45631,26.45631,0,0,1,5.71728,10.2915l-22.29785,3.90674a17.20658,17.20658,0,0,0-2.001-3.335c-3.6211-4.66943-9.62452-6.57519-15.24659-6.48-2.28711,0-9.91064.47656-15.24658,6.09863-3.71679,4.00245-5.24121,9.62452-5.24121,14.96094,0,7.14649,2.57275,11.43457,4.3833,13.72168,5.24121,6.86084,12.3877,7.05176,15.437,7.05176,8.95752,0,14.29395-4.479,16.39014-7.24219a14.86718,14.86718,0,0,0,2.09668-4.00244l22.96484,2.38232A31.39113,31.39113,0,0,1,2387.17847,62.96729Z"/><path class="cls-1" d="M2447.59058,71.63867,2433.678,47.14893h-12.769V71.63867h-24.20411V4.36328h49.55127c9.05274,0,17.72461.667,23.15577,9.24317a22.258,22.258,0,0,1,3.43066,12.10205c0,3.14453-.667,12.102-9.148,16.771a20.47351,20.47351,0,0,1-6.28906,2.28711l16.771,26.87207Zm.19043-49.26562c-1.62012-2.38233-4.28809-2.76319-6.86084-2.76319h-20.01123v12.3877h18.10546c4.57373,0,6.95606-.57178,8.48047-2.38233a5.85027,5.85027,0,0,0,1.33448-3.81152A6.09234,6.09234,0,0,0,2447.781,22.37305Z"/><path class="cls-1" d="M2521.24976,51.62744V71.63867h-23.918V51.62744L2466.45728,4.36328h28.11084l14.6748,26.77686,14.6748-26.77686h27.8252Z"/><path class="cls-1" d="M2618.25464,43.43262c-6.48,4.3833-15.81836,4.47851-23.15576,4.47851h-18.20069V71.63867H2552.885V4.36328h46.12061c2.2871,0,4.66943,0,6.95654.19043,7.90918.47656,14.6748,2.38233,18.48633,10.00537a24.65071,24.65071,0,0,1,2.38232,11.24463C2626.83081,29.04346,2626.44946,38.001,2618.25464,43.43262ZM2601.8645,22.75439c-1.62012-2.85888-4.57422-3.14453-7.43262-3.14453h-17.53369V32.75977h15.72315a19.92728,19.92728,0,0,0,5.43164-.38086,5.99881,5.99881,0,0,0,4.66894-6.19434A7.2663,7.2663,0,0,0,2601.8645,22.75439Z"/><path class="cls-1" d="M2671.52026,19.419V71.63867h-24.2041V19.419h-23.918V4.36328H2695.343V19.419Z"/></g></g></svg>