<svg xmlns="http://www.w3.org/2000/svg" viewBox="0 0 46 69.63"><defs><style>.cls-1{fill:#fff;}.cls-2{fill:#ec1c24;opacity:0.5;}.cls-3{fill:#dad0d1;}.cls-4{fill:#5cbeaa;}</style></defs><title>Asset 7</title><g id="Layer_2" data-name="Layer 2"><g id="Layer_1-2" data-name="Layer 1"><path class="cls-1" d="M3,0A3.1,3.1,0,0,0,0,3.22V66.41a3.1,3.1,0,0,0,3,3.22H43a3.1,3.1,0,0,0,3-3.22V3.22A3.1,3.1,0,0,0,43,0ZM23,5.12A12.56,12.56,0,1,1,10.44,17.68,12.57,12.57,0,0,1,23,5.12ZM23,64.5A15.76,15.76,0,1,1,38.76,48.75,15.75,15.75,0,0,1,23,64.5Z"/><path class="cls-2" d="M23,63A14.21,14.21,0,1,1,37.21,48.76,14.21,14.21,0,0,1,23,63Z"/><path class="cls-3" d="M10.44,17.68A12.56,12.56,0,1,0,23,5.12,12.56,12.56,0,0,0,10.44,17.68Zm23.63,0A11.07,11.07,0,1,1,23,6.59,11.07,11.07,0,0,1,34.07,17.66Z"/><path class="cls-4" d="M30.53,17.68A7.53,7.53,0,1,1,23,10.15,7.53,7.53,0,0,1,30.53,17.68Z"/><path class="cls-3" d="M15.47,17.68A7.53,7.53,0,1,0,23,10.15,7.53,7.53,0,0,0,15.47,17.68Z"/><path class="cls-3" d="M13.9,48.76a9.1,9.1,0,1,0,9.1-9.1A9.09,9.09,0,0,0,13.9,48.76Z"/></g></g></svg>