<svg xmlns="http://www.w3.org/2000/svg" viewBox="0 0 72.95 68.41"><defs><style>.cls-1{fill:#ec1c24;opacity:0.5;}.cls-2{fill:#fefefe;}.cls-3{fill:#dad0d1;}.cls-4{fill:#b1b1b1;}.cls-5{fill:#a6a6a6;}.cls-6{fill:#bfbfbf;}.cls-7{fill:#fdfdfd;}</style></defs><title>Asset 8</title><g id="Layer_2" data-name="Layer 2"><g id="Layer_1-2" data-name="Layer 1"><path class="cls-1" d="M9.47,9c.36-.52.77-1,1.18-1.51a6.69,6.69,0,0,1,4-2.37A55.6,55.6,0,0,0,28,.42,6.37,6.37,0,0,1,31.35.07a72.26,72.26,0,0,0,11,0,5.61,5.61,0,0,1,2.88.52A52.39,52.39,0,0,0,57.89,5a7.56,7.56,0,0,1,4.83,3c1.65,2.15,3.09,4.42,4.56,6.67,1.8,2.76,3.57,5.54,5.34,8.32.57.89.42,1.37-.61,1.86q-4.83,2.33-9.68,4.62c-1,.47-1.36.36-1.92-.52a2.87,2.87,0,0,0-.48-.61,12.78,12.78,0,0,1-3.49-4.23A3.92,3.92,0,0,0,56,26.35q0,19.15,0,38.31a2.27,2.27,0,0,0,.19,1c.32.73.21,1.06-.54,1.47a8.81,8.81,0,0,1-3.48.88c-3,.3-6.08.36-9.12.4-3.56,0-7.13.07-10.7,0-3.82,0-7.65-.08-11.46-.43a9.83,9.83,0,0,1-3.32-.78c-.92-.44-1.07-.8-.72-1.65A2.9,2.9,0,0,0,17,64.41Q17,45.6,17,26.8a6.42,6.42,0,0,0-.2-2.22,3.09,3.09,0,0,0-.18-.37c-.08.06-.15.08-.18.13a12.15,12.15,0,0,1-3.2,3.79,3.37,3.37,0,0,0-.75.93c-.39.69-.83.83-1.63.47-1.49-.68-3-1.38-4.43-2.08-1.81-.86-3.63-1.72-5.43-2.6-1.07-.52-1.22-1-.62-1.91"/><path class="cls-2" d="M12.6,27.88c-.18.26-.38.51-.54.78-.4.67-.44.69-1.23.32L5,26.21,1.26,24.43C.47,24,.41,23.85.85,23.16c3.05-4.75,6-9.53,9.29-14.17.29-.41.62-.79.94-1.17a6.4,6.4,0,0,1,3.81-2.25A55.31,55.31,0,0,0,28.26.85a5.67,5.67,0,0,1,3-.3,66.67,66.67,0,0,0,10.48,0,6.56,6.56,0,0,1,3.57.58,53.81,53.81,0,0,0,13,4.52A6.11,6.11,0,0,1,61.77,7.7a40.77,40.77,0,0,1,3.44,4.79c2.32,3.55,4.61,7.13,6.9,10.7.44.67.39.85-.38,1.22L62.05,29c-.7.33-.76.29-1.14-.33-.19-.31-.44-.61-.66-.91-.53-.69-1.11-1.34-1.57-2.06a2.76,2.76,0,0,1-.09-3.11c.33-.56.72-1.09,1.09-1.63a5.91,5.91,0,0,0,.91-2.5,3.78,3.78,0,0,1-.8,2.06.72.72,0,0,1-.71.29c-.34-.08-.41-.31-.43-.58a3.21,3.21,0,0,1,.09-1.07,34.11,34.11,0,0,0,.84-4.33,1.37,1.37,0,0,0-.1-1,4.59,4.59,0,0,0-.5,1.68A17.28,17.28,0,0,1,57.13,20a12,12,0,0,0-1.7,6.28V64.51a2.47,2.47,0,0,0,.24,1.34c.23.37,0,.56-.27.76a5.71,5.71,0,0,1-2,.67,44.83,44.83,0,0,1-6.23.48c-4.93.2-9.87.17-14.81.14-3.74,0-7.48-.08-11.21-.39a10.29,10.29,0,0,1-3.26-.72c-.52-.22-.93-.48-.55-1.1a2.26,2.26,0,0,0,.2-1.18c0-12.92,0-25.84,0-38.76A11,11,0,0,0,15.8,20a17.76,17.76,0,0,1-2-5.35c-.06-.22,0-.46-.25-.63-.39,0-.26.29-.23.46a47.32,47.32,0,0,0,.93,4.86,2.5,2.5,0,0,1,.1,1,.5.5,0,0,1-.38.48.65.65,0,0,1-.65-.16,3.11,3.11,0,0,1-.91-2c0-.08-.08,0,0,0s0,0,0,.05a6.22,6.22,0,0,0,1.46,3.14,3.69,3.69,0,0,1,.88,2.23,4.2,4.2,0,0,1-1.25,2.72Z"/><path class="cls-3" d="M12.6,27.88a5.31,5.31,0,0,1,.91-1.44,3.41,3.41,0,0,0-.12-4.77,4.43,4.43,0,0,1-1.16-3.21c0-.2,0-.42.19-.63a5.52,5.52,0,0,0,.63,2c.2.3.39.83.8.71s.19-.63.11-1a23.87,23.87,0,0,1-.79-5.16,1.69,1.69,0,0,1,0-.45c0-.17-.08-.46.23-.44s.09.29.12.44a.24.24,0,0,0-.12.3A45.91,45.91,0,0,0,15,19.61a6.57,6.57,0,0,1-1.54,7.49Z"/><path class="cls-3" d="M59.48,13.8l.06-.75h.18a18.83,18.83,0,0,1,0,2.81A26,26,0,0,1,59,19.53c-.08.35-.31.92.09,1s.65-.47.85-.8a6.34,6.34,0,0,0,.63-2.08A4.24,4.24,0,0,1,60,21c-.36.54-.76,1.07-1.11,1.62a2.56,2.56,0,0,0-.09,2.69A16.44,16.44,0,0,0,60,27.21a1,1,0,0,1,.27.57A7,7,0,0,1,58,19.55a22.38,22.38,0,0,0,1.49-5A5.3,5.3,0,0,0,59.48,13.8Z"/><path class="cls-3" d="M44.61,5.91A9.24,9.24,0,0,1,39.1,8.37a19.6,19.6,0,0,1-6.35-.2,8.28,8.28,0,0,1-4.62-2.5c0-.12,0-.15.14-.12a8.73,8.73,0,0,0,5.6,2.37,26.43,26.43,0,0,0,6-.1,8.92,8.92,0,0,0,4.57-2C44.59,5.77,44.65,5.8,44.61,5.91Z"/><path class="cls-1" d="M28.17,2.34c-.08-.73.08-.91.87-1.07a8.57,8.57,0,0,1,2.53.06,54.29,54.29,0,0,0,10.74-.09,5,5,0,0,1,1.81.07c.28.07.55.15.62.43s0,.28-.15.33c-1.59-.51-3.18-.06-4.77,0a64.12,64.12,0,0,1-9-.18,8.6,8.6,0,0,0-1.34,0,1.42,1.42,0,0,0-1.11.47A.22.22,0,0,1,28.17,2.34Z"/><path class="cls-1" d="M44.62,2l.12-.26a.87.87,0,0,1,0,.83C44,4.81,42.2,6,39.72,6.46a7.14,7.14,0,0,1-1.79.22.18.18,0,0,1-.06-.17c.14-.29.46-.23.71-.26a10,10,0,0,0,2.55-.58A3.27,3.27,0,0,0,42.9,4.35a2.6,2.6,0,0,0,1.17-1.64C44.28,2.48,44.28,2.14,44.62,2Z"/><path class="cls-1" d="M34.94,6.67a8.28,8.28,0,0,1-5-1.67.28.28,0,0,1,.16-.12.52.52,0,0,1,.42.12,8.73,8.73,0,0,0,4,1.27c.23,0,.46,0,.61.2S35.05,6.64,34.94,6.67Z"/><path class="cls-1" d="M30.11,5l-.2,0a4.25,4.25,0,0,1-1.74-2.66h.11c.21-.06.28.09.38.2a7.64,7.64,0,0,0,1.49,2.11A.38.38,0,0,1,30.11,5Z"/><path class="cls-4" d="M28.27,5.55l-.14.12A4.76,4.76,0,0,1,27,3.23,11,11,0,0,0,28.27,5.55Z"/><path class="cls-5" d="M44.61,5.91l-.14-.12a7.64,7.64,0,0,0,.92-1.37c.12,0,.18,0,.13.11A3.58,3.58,0,0,1,44.61,5.91Z"/><path class="cls-1" d="M34.94,6.67l.13-.1c.46-.39,1-.2,1.56-.2s.94-.17,1.31.21a.31.31,0,0,0,0,.1A23,23,0,0,1,34.94,6.67Z"/><path class="cls-6" d="M45.52,4.53l-.13-.11c.18-.47.35-.93.53-1.39A2.77,2.77,0,0,1,45.52,4.53Z"/><path class="cls-7" d="M28.43,2.67l-.15-.33c0-.43.31-.61.77-.7a14.55,14.55,0,0,1,3.43.16,64.34,64.34,0,0,0,10-.19A2.52,2.52,0,0,1,44.62,2c.07.32-.13.59-.19.89a.3.3,0,0,1-.25,0,2.81,2.81,0,0,0-2.31-.47,63.77,63.77,0,0,1-8.06.21c-1.15,0-2.29-.23-3.44-.22a3.12,3.12,0,0,0-1.51.27A.47.47,0,0,1,28.43,2.67Z"/><path class="cls-3" d="M28.43,2.67A1.9,1.9,0,0,1,30,2.08c.81,0,1.6.1,2.4.15a57.2,57.2,0,0,0,9.88-.17,6.18,6.18,0,0,1,1.36.08.85.85,0,0,1,.77.75,4.23,4.23,0,0,1-1.15,1.62,9.11,9.11,0,0,1-5.42,1.82,16.15,16.15,0,0,1-5.66-.5A7.84,7.84,0,0,1,30,4.76,4.61,4.61,0,0,1,28.43,2.67Z"/><path class="cls-1" d="M30,4.76A13,13,0,0,0,33.72,6a18,18,0,0,0,7.7-.51,19,19,0,0,0,1.86-.93,5.84,5.84,0,0,1-2.93,1.61c-.78.25-1.62.27-2.41.46H35.07c-.73-.13-1.48-.23-2.21-.39A7.24,7.24,0,0,1,30.11,5Z"/></g></g></svg>