<svg xmlns="http://www.w3.org/2000/svg" viewBox="0 0 39.37832 39.37832"><defs><style>.cls-1{fill:#8c8c8c;}</style></defs><title>Asset 3</title><g id="Layer_2" data-name="Layer 2"><g id="Layer_1-2" data-name="Layer 1"><path class="cls-1" d="M19.68938,39.37832A19.68916,19.68916,0,1,1,39.37832,19.68916,19.71153,19.71153,0,0,1,19.68938,39.37832Zm0-37.61717a17.928,17.928,0,1,0,17.92779,17.928A17.9485,17.9485,0,0,0,19.68938,1.76115Z"/><path class="cls-1" d="M30.24705,14.31069a7.96064,7.96064,0,0,1-2.29166.6279,4.00347,4.00347,0,0,0,1.75468-2.20695,7.98737,7.98737,0,0,1-2.53364.968,3.993,3.993,0,0,0-6.79876,3.63925A11.32575,11.32575,0,0,1,12.15417,13.17a3.99394,3.99394,0,0,0,1.23449,5.32692,3.96708,3.96708,0,0,1-1.80686-.49951l-.00053.05055a3.99213,3.99213,0,0,0,3.20072,3.9117,3.99834,3.99834,0,0,1-1.80183.069A3.9938,3.9938,0,0,0,16.70724,24.799a8.05593,8.05593,0,0,1-5.90656,1.65227A11.346,11.346,0,0,0,28.2679,16.89193q0-.25921-.01175-.516a8.09685,8.09685,0,0,0,1.9909-2.06527Z"/></g></g></svg>