<svg xmlns="http://www.w3.org/2000/svg" viewBox="0 0 111.31595 61.84349"><defs><style>.cls-1{fill:#fff;}</style></defs><title>Asset 1</title><g id="Layer_2" data-name="Layer 2"><g id="Layer_1-2" data-name="Layer 1"><path class="cls-1" d="M6.51022,23.0845A12.07081,12.07081,0,0,0,12.447,24.444q5.72909-.00953,11.4582-.00083A6.83479,6.83479,0,0,1,29.89669,34.517a6.45579,6.45579,0,0,1-5.72487,3.60851c-1.51963.0787-3.04648.01233-4.57012.01186q-2.1633-.00072-4.32667-.00008l.00024-.11361q-2.46719,0-4.93436-.00028c-1.38146-.001-2.76293-.012-4.14431-.003-.60253.00389-.78894.17383-.74744.71107.09719,1.25884.02784,2.51821.04657,3.77706.0144.96446.0933,1.05455,1.04583,1.06486q.06093.00066.1219.0002c3.4127-.01928,6.82394.09065,10.236.1148a72.30089,72.30089,0,0,0,8.70476-.22674,12.32082,12.32082,0,0,0,5.7428-2.043A12.51862,12.51862,0,0,0,35.83919,27.79a12.3877,12.3877,0,0,0-11.8529-8.77453c-3.83748.09485-7.679.01722-11.5187.01956a7.40153,7.40153,0,0,1-1.75268-.185,6.62387,6.62387,0,0,1-5.18558-6.38929,7.05166,7.05166,0,0,1,4.50613-6.977.91221.91221,0,0,1,.29375-.06335c1.35607-.10139,2.709-.25546,4.07128-.25515q4.99773.00126,9.99546-.001c.70166-.00052.85522-.15645.859-.87553q.00887-1.67288-.00031-3.34582C25.25017.247,25.03549.03533,24.3366.00538c-.16224-.00694-.325-.00159-.48757-.00159Q17.72384.00379,11.59857,0A10.38074,10.38074,0,0,0,8.71985.411,12.09719,12.09719,0,0,0,.272,14.58714,12.154,12.154,0,0,0,6.51022,23.0845Z"/><path class="cls-1" d="M83.1495,61.65606c-.02281-3.57241.06327-7.14331.13229-10.71457A12.75125,12.75125,0,0,0,80.209,42.04644c-.107-.12408-.20239-.25844-.30517-.38637a.46764.46764,0,0,1,.02991-.70832c.23591-.22707.46547-.46115.70618-.68278a12.41076,12.41076,0,0,0,3.35035-4.8046,11.88278,11.88278,0,0,0,.48662-6.39738,11.74223,11.74223,0,0,0-6.55951-8.83773,9.98718,9.98718,0,0,0-4.77683-1.05487c-1.80684.042-3.61434.04745-5.42082.14582q-3.2901,0-6.58021.00179c-.65541.00143-.78905.1367-.79421.79734-.00778.99124-.00234,1.98257-.00214,2.97385.00024,1.21132.00147,1.21462,1.17879,1.215q5.424.00167,10.848-.00012a9.16825,9.16825,0,0,1,1.27444.0864,6.75874,6.75874,0,0,1,5.68929,6.94894,6.982,6.982,0,0,1-5.22128,6.48235,15.28817,15.28817,0,0,1-3.69141.33357c-3.02661.02888-6.05358.01341-9.08038.02-.83427.00178-.99049.16224-.99577,1.01754-.00634,1.03254-.00269,2.06519-.00035,3.09777a2.9925,2.9925,0,0,0,.0286.49368c.07287.42854.20084.55834.63573.61467a6.69264,6.69264,0,0,0,.85026.04716q4.23549.00489,8.47106.00377c.44644.00056.89414.00778,1.33914.04122A6.84385,6.84385,0,0,1,78.09852,50.204c.08092,2.24787.095,4.50553-.01678,6.75079-.08125,1.63177-.05867,3.25946-.08517,4.88869"/><path class="cls-1" d="M96.06148,43.335a18.43648,18.43648,0,0,0,3.38569.36131c1.70591.00678,3.40818-.16264,4.50335-.12254H110.229c.08124,0,.16248.002.24364-.00055.631-.01972.83487-.22056.8382-.86193q.0094-1.82733-.00063-3.65472c-.00444-.66314-.33718-.9632-1.00076-.93519-.20271.00853-.4055.02487-.60821.025q-5.33171.00232-10.66335.00194a6.78073,6.78073,0,0,1-5.44565-2.657,7.00916,7.00916,0,0,1-.65239-7.16541,6.25163,6.25163,0,0,1,4.59733-3.6972,13.74914,13.74914,0,0,1,2.66665-.23373q4.87438-.00459,9.74891.0094c.1828.00024.36591.00639.54823-.00369.50046-.02769.66746-.1653.67445-.67266q.02642-1.91975-.002-3.84006c-.00857-.54144-.18406-.68888-.70491-.72351-.12147-.00806-.24365-.00631-.36551-.00631-2.45756-.00032-4.91528-.00635-7.37283.00289-.95364.00357-1.90633.02293-2.85957.10782a22.41757,22.41757,0,0,1-2.23244.27634,7.48786,7.48786,0,0,0-2.38972.39887,12.20413,12.20413,0,0,0-8.23789,14.18229C87.77975,38.192,91.607,42.4853,96.06148,43.335Z"/><path class="cls-1" d="M42.67329,18.56548c.00162.44651.01067.44687.4235.47606.081.00575.16252.00421.24337.01131A11.76125,11.76125,0,0,1,48.22858,20.419a5.19578,5.19578,0,0,1,2.80176,4.85327c-.01352,2.86932-.00329,5.73876-.00329,8.60812v3.22035c0,1.96107.004,3.92217-.00428,5.88324-.00123.29275.03395.45147.39046.44861,2.05079-.01634,4.10178-.013,6.15262-.00254.30323.00155.39859-.1196.375-.403-.01194-.14345-.002-.28883-.002-.43335q0-8.23653.00556-16.47312a12.77817,12.77817,0,0,0-.44576-3.423,13.22685,13.22685,0,0,0-6.50246-8.5644,17.26481,17.26481,0,0,0-7.98711-1.87991c-.28577-.00757-.34337.1179-.34024.367.00833.66049.00262,1.32113.00262,1.98169C42.6715,15.92318,42.66849,17.24435,42.67329,18.56548Z"/><path class="cls-1" d="M38.56475,43.4241q2.01044.00333,4.02087.00071c1.3606,0,2.7212.00211,4.08179-.00107.50868-.00115.51125-.00666.51752-.49772q.00672-.52636,0-1.05285c-.00611-.49177-.00861-.49681-.51351-.49776-1.48242-.0027-2.96488.001-4.4473-.0021-.47825-.001-.48523-.00695-.487-.4512-.00642-1.58956-.0067-3.17913-.01134-4.76874a6.99513,6.99513,0,0,1,.13912-1.35258A3.41773,3.41773,0,0,1,44.0874,32.0782a3.036,3.036,0,0,1,1.12635-.23928c.34746.00571.39669-.14856.39221-.44576-.01361-.90813-.00488-1.81663-.00488-2.725,0-1.02941-.09794-1.10922-1.11569-.9062-.05954.01186-.11662.03594-.17589.04971a9.74068,9.74068,0,0,0-3.13609,1.46227,6.75662,6.75662,0,0,0-3.14478,5.75931c-.06537,2.6202-.01611,5.24333-.01377,7.8652C38.01534,43.41958,38.02181,43.42323,38.56475,43.4241Z"/><path class="cls-1" d="M52.46607,13.01312a4.38136,4.38136,0,0,0,2.68542.4907A4.145,4.145,0,0,0,58.887,10.65339a4.57889,4.57889,0,0,0-1.32153-5.01858,4.18526,4.18526,0,0,0-6.36858.52946,5.161,5.161,0,0,0-.90219,3.14351A3.91677,3.91677,0,0,0,52.46607,13.01312Z"/><path class="cls-1" d="M40.218,27.91965a2.139,2.139,0,0,0,2.19455-2.15378,2.07084,2.07084,0,0,0-1.9755-2.16512A2.233,2.233,0,0,0,38.142,25.82363,1.99952,1.99952,0,0,0,40.218,27.91965Z"/></g></g></svg>