<svg xmlns="http://www.w3.org/2000/svg" viewBox="0 0 81.86 55.29"><defs><style>.cls-1{fill:#dad0d1;}.cls-2{fill:#fff;}.cls-3{fill:#ec1c24;}.cls-4{fill:#f34d59;}</style></defs><title>Asset 5</title><g id="Layer_2" data-name="Layer 2"><g id="Layer_1-2" data-name="Layer 1"><path class="cls-1" d="M7.27,14.29,7,14.47A1.06,1.06,0,0,0,7,16l2.67,2.81a1,1,0,0,0,1.16.23,23,23,0,0,1,18.76.1,1,1,0,0,0,1.14-.19l2.85-2.71a1.06,1.06,0,0,0,.32-.92,1,1,0,0,0-.55-.79A28.89,28.89,0,0,0,7.27,14.29Z"/><path class="cls-2" d="M.51,5.37.33,5.5A1.07,1.07,0,0,0,.29,7L2.91,9.76A1,1,0,0,0,4.18,10a32.43,32.43,0,0,1,32.55.39A1,1,0,0,0,38,10.2l2.78-2.63a1.07,1.07,0,0,0,.32-.87,1,1,0,0,0-.48-.78A38.43,38.43,0,0,0,.51,5.37Z"/><rect class="cls-3" x="65.04" y="48.03" width="12.12" height="0.91"/><rect class="cls-3" x="65.04" y="42.35" width="6.12" height="3.21"/><rect class="cls-4" x="71.16" y="42.35" width="5.99" height="3.21"/><path class="cls-2" d="M7.33,37.3A2.69,2.69,0,0,0,4.64,40V52.59a2.69,2.69,0,0,0,2.69,2.7H79.16a2.7,2.7,0,0,0,2.7-2.7V40a2.7,2.7,0,0,0-2.7-2.7H21.52V30a4.47,4.47,0,1,0-2.62,0V37.3ZM65,42.35H77.16v3.21H65ZM65,48H77.15V49H65ZM17.88,25.72a2.37,2.37,0,1,1,2.37,2.37A2.38,2.38,0,0,1,17.88,25.72ZM60.38,45v2.58h-50V45Z"/><path class="cls-3" d="M17.88,25.72a2.37,2.37,0,1,0,2.37-2.37A2.38,2.38,0,0,0,17.88,25.72Z"/></g></g></svg>