<svg xmlns="http://www.w3.org/2000/svg" viewBox="0 0 39 39"><defs><style>.cls-1,.cls-2{fill:#8c8c8c;}.cls-2{fill-rule:evenodd;}</style></defs><title>Asset 7</title><g id="Layer_2" data-name="Layer 2"><g id="Layer_1-2" data-name="Layer 1"><path class="cls-1" d="M19.50047,39A19.5,19.5,0,1,1,39,19.49953,19.522,19.522,0,0,1,19.50047,39Zm0-37.09161a17.59161,17.59161,0,1,0-.00094,35.18322h.00094a17.59161,17.59161,0,0,0,0-35.18322Z"/><path class="cls-2" d="M29.10018,15.93424a2.8941,2.8941,0,0,0-2.89433-2.89506H12.63069a2.89413,2.89413,0,0,0-2.89436,2.89506v7.76363a2.89461,2.89461,0,0,0,2.89436,2.89519H26.20585a2.89458,2.89458,0,0,0,2.89433-2.89519ZM16.22135,23.73285V15.1584L23.85492,19.445Z"/></g></g></svg>